<svg viewBox="0 0 512 512" version="1.1" xmlns="http://www.w3.org/2000/svg" desc="Created with imagetracer.js version 1.2.6" ><path fill="currentColor" stroke="currentColor" stroke-width="1" opacity="0.7098039215686275" d="M 100.5 0 L 103 0.5 L 100.5 1 L 100.5 0 Z " /><path fill="currentColor" stroke="currentColor" stroke-width="1" opacity="0.7098039215686275" d="M 317.5 1 L 442.5 127 L 317.5 1 Z " /><path fill="currentColor" stroke="currentColor" stroke-width="1" opacity="0.7098039215686275" d="M 76.5 14 L 75.5 16 L 76.5 14 Z " /><path fill="currentColor" stroke="currentColor" stroke-width="1" opacity="0.7098039215686275" d="M 90.5 20 L 88.5 23 L 90.5 20 Z " /><path fill="currentColor" stroke="currentColor" stroke-width="1" opacity="0.7098039215686275" d="M 320.5 26 L 321 103.5 L 320 103.5 L 320.5 26 Z " /><path fill="currentColor" stroke="currentColor" stroke-width="1" opacity="0.7098039215686275" d="M 68.5 32 L 69 479.5 L 68 479.5 L 68.5 32 Z " /><path fill="currentColor" stroke="currentColor" stroke-width="1" opacity="0.7098039215686275" d="M 120.5 49 L 118.5 52 L 120.5 49 Z " /><path fill="currentColor" stroke="currentColor" stroke-width="1" opacity="0.7098039215686275" d="M 130.5 60 L 130 61.5 L 129.5 63 L 129 61.5 L 130.5 60 Z " /><path fill="currentColor" stroke="currentColor" stroke-width="1" opacity="0.7098039215686275" d="M 114.5 62 L 115 99.5 L 114 99.5 L 114.5 62 Z " /><path fill="currentColor" stroke="currentColor" stroke-width="1" opacity="0.7098039215686275" d="M 284.5 103 L 285.5 105 L 284.5 103 Z " /><path fill="currentColor" stroke="currentColor" stroke-width="1" opacity="0.7098039215686275" d="M 285.5 113 L 284.5 115 L 285.5 113 Z " /><path fill="currentColor" stroke="currentColor" stroke-width="1" opacity="0.7098039215686275" d="M 132.5 116 L 280 116.5 L 132.5 117 L 132.5 116 Z " /><path fill="currentColor" stroke="currentColor" stroke-width="1" opacity="0.7098039215686275" d="M 313.5 123 L 315.5 126 L 313.5 123 Z " /><path fill="currentColor" stroke="currentColor" stroke-width="1" opacity="0.7098039215686275" d="M 341.5 123 L 418 123.5 L 341.5 124 L 341.5 123 Z " /><path fill="currentColor" stroke="currentColor" stroke-width="1" opacity="0.7098039215686275" d="M 318.5 128 L 320.5 131 L 318.5 128 Z " /><path fill="currentColor" stroke="currentColor" stroke-width="1" opacity="0.7098039215686275" d="M 443.5 129 L 444 286.5 L 443 286.5 L 443.5 129 Z " /><path fill="currentColor" stroke="currentColor" stroke-width="1" opacity="0.7098039215686275" d="M 126.5 152 L 186 152.5 L 126.5 153 L 126.5 152 Z " /><path fill="currentColor" stroke="currentColor" stroke-width="1" opacity="0.7098039215686275" d="M 233.5 152 L 388 152.5 L 233.5 153 L 233.5 152 Z " /><path fill="currentColor" stroke="currentColor" stroke-width="1" opacity="0.7098039215686275" d="M 190.5 154 L 191.5 156 L 190.5 154 Z " /><path fill="currentColor" stroke="currentColor" stroke-width="1" opacity="0.7098039215686275" d="M 117.5 158 L 116.5 160 L 117.5 158 Z " /><path fill="currentColor" stroke="currentColor" stroke-width="1" opacity="0.7098039215686275" d="M 228.5 163 L 230.5 166 L 228.5 163 Z " /><path fill="currentColor" stroke="currentColor" stroke-width="1" opacity="0.7098039215686275" d="M 392.5 163 L 390.5 166 L 392.5 163 Z " /><path fill="currentColor" stroke="currentColor" stroke-width="1" opacity="0.7098039215686275" d="M 114.5 166 L 115 220.5 L 114 220.5 L 114.5 166 Z " /><path fill="currentColor" stroke="currentColor" stroke-width="1" opacity="0.7098039215686275" d="M 182.5 167 L 183 219.5 L 181.5 221 L 129.5 221 L 129.5 220 L 182 220 L 182.5 167 Z " /><path fill="currentColor" stroke="currentColor" stroke-width="1" opacity="0.7098039215686275" d="M 233.5 182 L 388 182.5 L 233.5 183 L 233.5 182 Z " /><path fill="currentColor" stroke="currentColor" stroke-width="1" opacity="0.7098039215686275" d="M 228.5 193 L 230.5 196 L 228.5 193 Z " /><path fill="currentColor" stroke="currentColor" stroke-width="1" opacity="0.7098039215686275" d="M 392.5 193 L 390.5 196 L 392.5 193 Z " /><path fill="currentColor" stroke="currentColor" stroke-width="1" opacity="0.7098039215686275" d="M 117.5 229 L 119.5 232 L 117.5 229 Z " /><path fill="currentColor" stroke="currentColor" stroke-width="1" opacity="0.7098039215686275" d="M 193.5 230 L 192.5 232 L 193.5 230 Z " /><path fill="currentColor" stroke="currentColor" stroke-width="1" opacity="0.7098039215686275" d="M 126.5 265 L 186 265.5 L 126.5 266 L 126.5 265 Z " /><path fill="currentColor" stroke="currentColor" stroke-width="1" opacity="0.7098039215686275" d="M 233.5 265 L 388 265.5 L 233.5 266 L 233.5 265 Z " /><path fill="currentColor" stroke="currentColor" stroke-width="1" opacity="0.7098039215686275" d="M 190.5 267 L 191.5 269 L 190.5 267 Z " /><path fill="currentColor" stroke="currentColor" stroke-width="1" opacity="0.7098039215686275" d="M 117.5 271 L 116.5 273 L 117.5 271 Z " /><path fill="currentColor" stroke="currentColor" stroke-width="1" opacity="0.7098039215686275" d="M 228.5 276 L 230.5 279 L 228.5 276 Z " /><path fill="currentColor" stroke="currentColor" stroke-width="1" opacity="0.7098039215686275" d="M 392.5 276 L 390.5 279 L 392.5 276 Z " /><path fill="currentColor" stroke="currentColor" stroke-width="1" opacity="0.7098039215686275" d="M 114.5 279 L 115 333.5 L 114 333.5 L 114.5 279 Z " /><path fill="currentColor" stroke="currentColor" stroke-width="1" opacity="0.7098039215686275" d="M 182.5 280 L 183 332.5 L 181.5 334 L 129.5 334 L 129.5 333 L 182 333 L 182.5 280 Z " /><path fill="currentColor" stroke="currentColor" stroke-width="1" opacity="0.7098039215686275" d="M 233.5 295 L 388 295.5 L 233.5 296 L 233.5 295 Z " /><path fill="currentColor" stroke="currentColor" stroke-width="1" opacity="0.7098039215686275" d="M 228.5 306 L 230.5 309 L 228.5 306 Z " /><path fill="currentColor" stroke="currentColor" stroke-width="1" opacity="0.7098039215686275" d="M 392.5 306 L 390.5 309 L 392.5 306 Z " /><path fill="currentColor" stroke="currentColor" stroke-width="1" opacity="0.7098039215686275" d="M 434.5 312 L 438 312.5 L 434.5 313 L 434.5 312 Z " /><path fill="currentColor" stroke="currentColor" stroke-width="1" opacity="0.7098039215686275" d="M 440.5 313 L 442.5 316 L 440.5 313 Z " /><path fill="currentColor" stroke="currentColor" stroke-width="1" opacity="0.7098039215686275" d="M 443.5 318 L 444 478.5 L 443 478.5 L 443.5 318 Z " /><path fill="currentColor" stroke="currentColor" stroke-width="1" opacity="0.7098039215686275" d="M 117.5 342 L 119.5 345 L 117.5 342 Z " /><path fill="currentColor" stroke="currentColor" stroke-width="1" opacity="0.7098039215686275" d="M 193.5 343 L 192.5 345 L 193.5 343 Z " /><path fill="currentColor" stroke="currentColor" stroke-width="1" opacity="0.7098039215686275" d="M 126.5 378 L 186 378.5 L 126.5 379 L 126.5 378 Z " /><path fill="currentColor" stroke="currentColor" stroke-width="1" opacity="0.7098039215686275" d="M 233.5 378 L 388 378.5 L 233.5 379 L 233.5 378 Z " /><path fill="currentColor" stroke="currentColor" stroke-width="1" opacity="0.7098039215686275" d="M 190.5 380 L 191.5 382 L 190.5 380 Z " /><path fill="currentColor" stroke="currentColor" stroke-width="1" opacity="0.7098039215686275" d="M 117.5 384 L 116.5 386 L 117.5 384 Z " /><path fill="currentColor" stroke="currentColor" stroke-width="1" opacity="0.7098039215686275" d="M 228.5 389 L 230.5 392 L 228.5 389 Z " /><path fill="currentColor" stroke="currentColor" stroke-width="1" opacity="0.7098039215686275" d="M 392.5 389 L 390.5 392 L 392.5 389 Z " /><path fill="currentColor" stroke="currentColor" stroke-width="1" opacity="0.7098039215686275" d="M 114.5 392 L 115 446.5 L 114 446.5 L 114.5 392 Z " /><path fill="currentColor" stroke="currentColor" stroke-width="1" opacity="0.7098039215686275" d="M 182.5 393 L 183 445.5 L 181.5 447 L 129.5 447 L 129.5 446 L 182 446 L 182.5 393 Z " /><path fill="currentColor" stroke="currentColor" stroke-width="1" opacity="0.7098039215686275" d="M 233.5 408 L 388 408.5 L 233.5 409 L 233.5 408 Z " /><path fill="currentColor" stroke="currentColor" stroke-width="1" opacity="0.7098039215686275" d="M 228.5 419 L 230.5 422 L 228.5 419 Z " /><path fill="currentColor" stroke="currentColor" stroke-width="1" opacity="0.7098039215686275" d="M 392.5 419 L 390.5 422 L 392.5 419 Z " /><path fill="currentColor" stroke="currentColor" stroke-width="1" opacity="0.7098039215686275" d="M 117.5 455 L 119.5 458 L 117.5 455 Z " /><path fill="currentColor" stroke="currentColor" stroke-width="1" opacity="0.7098039215686275" d="M 193.5 456 L 192.5 458 L 193.5 456 Z " /><path fill="currentColor" stroke="currentColor" stroke-width="1" opacity="0.7098039215686275" d="M 88.5 489 L 90.5 492 L 88.5 489 Z " /><path fill="currentColor" stroke="currentColor" stroke-width="1" opacity="0.7098039215686275" d="M 423.5 489 L 421.5 492 L 423.5 489 Z " /><path fill="currentColor" stroke="currentColor" stroke-width="1" opacity="0.7098039215686275" d="M 75.5 496 L 76.5 498 L 75.5 496 Z " /><path fill="currentColor" stroke="currentColor" stroke-width="1" opacity="0.7098039215686275" d="M 436.5 496 L 435.5 498 L 436.5 496 Z " /><path fill="currentColor" stroke="currentColor" stroke-width="1" opacity="0.7098039215686275" d="M 100.5 511 L 103 511.5 L 100.5 512 L 100.5 511 Z " /><path fill="currentColor" stroke="currentColor" stroke-width="1" opacity="0.7098039215686275" d="M 409.5 511 L 412 511.5 L 409.5 512 L 409.5 511 Z " /><path fill="currentColor" stroke="currentColor" stroke-width="1" opacity="0.7098039215686275" d="M 82.5 8 L 77.5 14 L 82.5 8 Z " /><path fill="currentColor" stroke="currentColor" stroke-width="1" opacity="0.7098039215686275" d="M 92.5 18 L 91.5 20 L 92.5 18 Z " /><path fill="currentColor" stroke="currentColor" stroke-width="1" opacity="0.7098039215686275" d="M 87.5 23 L 86.5 25 L 87.5 23 Z " /><path fill="currentColor" stroke="currentColor" stroke-width="1" opacity="0.7098039215686275" d="M 129.5 100 L 130.5 102 L 129.5 100 Z " /><path fill="currentColor" stroke="currentColor" stroke-width="1" opacity="0.7098039215686275" d="M 118.5 109 L 121.5 113 L 118.5 109 Z " /><path fill="currentColor" stroke="currentColor" stroke-width="1" opacity="0.7098039215686275" d="M 325.5 115 L 328.5 119 L 325.5 115 Z " /><path fill="currentColor" stroke="currentColor" stroke-width="1" opacity="0.7098039215686275" d="M 316.5 126 L 317.5 128 L 316.5 126 Z " /><path fill="currentColor" stroke="currentColor" stroke-width="1" opacity="0.7098039215686275" d="M 321.5 130 L 322.5 132 L 321.5 130 Z " /><path fill="currentColor" stroke="currentColor" stroke-width="1" opacity="0.7098039215686275" d="M 230.5 154 L 229.5 156 L 230.5 154 Z " /><path fill="currentColor" stroke="currentColor" stroke-width="1" opacity="0.7098039215686275" d="M 390.5 154 L 391.5 156 L 390.5 154 Z " /><path fill="currentColor" stroke="currentColor" stroke-width="1" opacity="0.7098039215686275" d="M 120.5 155 L 118.5 158 L 120.5 155 Z " /><path fill="currentColor" stroke="currentColor" stroke-width="1" opacity="0.7098039215686275" d="M 192.5 156 L 193.5 158 L 192.5 156 Z " /><path fill="currentColor" stroke="currentColor" stroke-width="1" opacity="0.7098039215686275" d="M 230.5 184 L 229.5 186 L 230.5 184 Z " /><path fill="currentColor" stroke="currentColor" stroke-width="1" opacity="0.7098039215686275" d="M 390.5 184 L 391.5 186 L 390.5 184 Z " /><path fill="currentColor" stroke="currentColor" stroke-width="1" opacity="0.7098039215686275" d="M 230.5 267 L 229.5 269 L 230.5 267 Z " /><path fill="currentColor" stroke="currentColor" stroke-width="1" opacity="0.7098039215686275" d="M 390.5 267 L 391.5 269 L 390.5 267 Z " /><path fill="currentColor" stroke="currentColor" stroke-width="1" opacity="0.7098039215686275" d="M 120.5 268 L 118.5 271 L 120.5 268 Z " /><path fill="currentColor" stroke="currentColor" stroke-width="1" opacity="0.7098039215686275" d="M 192.5 269 L 193.5 271 L 192.5 269 Z " /><path fill="currentColor" stroke="currentColor" stroke-width="1" opacity="0.7098039215686275" d="M 441.5 289 L 440.5 291 L 441.5 289 Z " /><path fill="currentColor" stroke="currentColor" stroke-width="1" opacity="0.7098039215686275" d="M 230.5 297 L 229.5 299 L 230.5 297 Z " /><path fill="currentColor" stroke="currentColor" stroke-width="1" opacity="0.7098039215686275" d="M 390.5 297 L 391.5 299 L 390.5 297 Z " /><path fill="currentColor" stroke="currentColor" stroke-width="1" opacity="0.7098039215686275" d="M 230.5 380 L 229.5 382 L 230.5 380 Z " /><path fill="currentColor" stroke="currentColor" stroke-width="1" opacity="0.7098039215686275" d="M 390.5 380 L 391.5 382 L 390.5 380 Z " /><path fill="currentColor" stroke="currentColor" stroke-width="1" opacity="0.7098039215686275" d="M 120.5 381 L 118.5 384 L 120.5 381 Z " /><path fill="currentColor" stroke="currentColor" stroke-width="1" opacity="0.7098039215686275" d="M 192.5 382 L 193.5 384 L 192.5 382 Z " /><path fill="currentColor" stroke="currentColor" stroke-width="1" opacity="0.7098039215686275" d="M 230.5 410 L 229.5 412 L 230.5 410 Z " /><path fill="currentColor" stroke="currentColor" stroke-width="1" opacity="0.7098039215686275" d="M 390.5 410 L 391.5 412 L 390.5 410 Z " /><path fill="currentColor" stroke="currentColor" stroke-width="1" opacity="0.7098039215686275" d="M 86.5 487 L 87.5 489 L 86.5 487 Z " /><path fill="currentColor" stroke="currentColor" stroke-width="1" opacity="0.7098039215686275" d="M 425.5 487 L 424.5 489 L 425.5 487 Z " /><path fill="currentColor" stroke="currentColor" stroke-width="1" opacity="0.7098039215686275" d="M 91.5 492 L 92.5 494 L 91.5 492 Z " /><path fill="currentColor" stroke="currentColor" stroke-width="1" opacity="0.7098039215686275" d="M 420.5 492 L 419.5 494 L 420.5 492 Z " /><path fill="currentColor" stroke="currentColor" stroke-width="1" opacity="0.7098039215686275" d="M 77.5 498 L 82.5 504 L 77.5 498 Z " /><path fill="currentColor" stroke="currentColor" stroke-width="1" opacity="0.7098039215686275" d="M 434.5 498 L 429.5 504 L 434.5 498 Z " /><path fill="currentColor" stroke="currentColor" stroke-width="1" opacity="0.7098039215686275" d="M 81.5 8 L 76.5 14 L 81.5 8 Z " /><path fill="currentColor" stroke="currentColor" stroke-width="1" opacity="0.7098039215686275" d="M 305.5 15 L 306 44.5 L 305 44.5 L 305.5 15 Z " /><path fill="currentColor" stroke="currentColor" stroke-width="1" opacity="0.7098039215686275" d="M 321.5 26 L 417.5 123 L 321.5 26 Z " /><path fill="currentColor" stroke="currentColor" stroke-width="1" opacity="0.7098039215686275" d="M 83.5 34 L 84 477.5 L 83 477.5 L 83.5 34 Z " /><path fill="currentColor" stroke="currentColor" stroke-width="1" opacity="0.7098039215686275" d="M 122.5 47 L 121.5 49 L 122.5 47 Z " /><path fill="currentColor" stroke="currentColor" stroke-width="1" opacity="0.7098039215686275" d="M 114.5 59 L 115 61.5 L 114 61.5 L 114.5 59 Z " /><path fill="currentColor" stroke="currentColor" stroke-width="1" opacity="0.7098039215686275" d="M 305.5 60 L 306 104.5 L 305 104.5 L 305.5 60 Z " /><path fill="currentColor" stroke="currentColor" stroke-width="1" opacity="0.7098039215686275" d="M 129.5 63 L 130 98.5 L 129 98.5 L 129.5 63 Z " /><path fill="currentColor" stroke="currentColor" stroke-width="1" opacity="0.7098039215686275" d="M 114.5 100 L 115 102.5 L 114 102.5 L 114.5 100 Z " /><path fill="currentColor" stroke="currentColor" stroke-width="1" opacity="0.7098039215686275" d="M 132.5 101 L 282 101.5 L 132.5 102 L 132.5 101 Z " /><path fill="currentColor" stroke="currentColor" stroke-width="1" opacity="0.7098039215686275" d="M 118.5 110 L 120.5 113 L 118.5 110 Z " /><path fill="currentColor" stroke="currentColor" stroke-width="1" opacity="0.7098039215686275" d="M 325.5 114 L 329.5 119 L 325.5 114 Z " /><path fill="currentColor" stroke="currentColor" stroke-width="1" opacity="0.7098039215686275" d="M 128.5 116 L 132 116.5 L 128.5 117 L 128.5 116 Z " /><path fill="currentColor" stroke="currentColor" stroke-width="1" opacity="0.7098039215686275" d="M 315.5 126 L 317.5 129 L 315.5 126 Z " /><path fill="currentColor" stroke="currentColor" stroke-width="1" opacity="0.7098039215686275" d="M 341.5 138 L 429 138 L 429 284.5 L 428 284.5 L 428 139 L 341.5 139 L 341.5 138 Z " /><path fill="currentColor" stroke="currentColor" stroke-width="1" opacity="0.7098039215686275" d="M 230.5 153 L 228.5 156 L 230.5 153 Z " /><path fill="currentColor" stroke="currentColor" stroke-width="1" opacity="0.7098039215686275" d="M 390.5 153 L 392.5 156 L 390.5 153 Z " /><path fill="currentColor" stroke="currentColor" stroke-width="1" opacity="0.7098039215686275" d="M 119.5 155 L 117.5 158 L 119.5 155 Z " /><path fill="currentColor" stroke="currentColor" stroke-width="1" opacity="0.7098039215686275" d="M 192.5 155 L 194.5 158 L 192.5 155 Z " /><path fill="currentColor" stroke="currentColor" stroke-width="1" opacity="0.7098039215686275" d="M 114.5 163 L 115 165.5 L 114 165.5 L 114.5 163 Z " /><path fill="currentColor" stroke="currentColor" stroke-width="1" opacity="0.7098039215686275" d="M 197.5 164 L 198 223.5 L 197 223.5 L 197.5 164 Z " /><path fill="currentColor" stroke="currentColor" stroke-width="1" opacity="0.7098039215686275" d="M 130.5 167 L 182 167.5 L 130 168 L 129.5 220 L 129 168.5 L 130.5 167 Z " /><path fill="currentColor" stroke="currentColor" stroke-width="1" opacity="0.7098039215686275" d="M 234.5 167 L 387 167.5 L 234.5 168 L 234.5 167 Z " /><path fill="currentColor" stroke="currentColor" stroke-width="1" opacity="0.7098039215686275" d="M 230.5 183 L 228.5 186 L 230.5 183 Z " /><path fill="currentColor" stroke="currentColor" stroke-width="1" opacity="0.7098039215686275" d="M 390.5 183 L 392.5 186 L 390.5 183 Z " /><path fill="currentColor" stroke="currentColor" stroke-width="1" opacity="0.7098039215686275" d="M 234.5 197 L 387 197.5 L 234.5 198 L 234.5 197 Z " /><path fill="currentColor" stroke="currentColor" stroke-width="1" opacity="0.7098039215686275" d="M 114.5 221 L 115 223.5 L 114 223.5 L 114.5 221 Z " /><path fill="currentColor" stroke="currentColor" stroke-width="1" opacity="0.7098039215686275" d="M 195.5 228 L 194.5 230 L 195.5 228 Z " /><path fill="currentColor" stroke="currentColor" stroke-width="1" opacity="0.7098039215686275" d="M 191.5 232 L 190.5 234 L 191.5 232 Z " /><path fill="currentColor" stroke="currentColor" stroke-width="1" opacity="0.7098039215686275" d="M 127.5 235 L 185 235.5 L 127.5 236 L 127.5 235 Z " /><path fill="currentColor" stroke="currentColor" stroke-width="1" opacity="0.7098039215686275" d="M 230.5 266 L 228.5 269 L 230.5 266 Z " /><path fill="currentColor" stroke="currentColor" stroke-width="1" opacity="0.7098039215686275" d="M 390.5 266 L 392.5 269 L 390.5 266 Z " /><path fill="currentColor" stroke="currentColor" stroke-width="1" opacity="0.7098039215686275" d="M 119.5 268 L 117.5 271 L 119.5 268 Z " /><path fill="currentColor" stroke="currentColor" stroke-width="1" opacity="0.7098039215686275" d="M 192.5 268 L 194.5 271 L 192.5 268 Z " /><path fill="currentColor" stroke="currentColor" stroke-width="1" opacity="0.7098039215686275" d="M 114.5 276 L 115 278.5 L 114 278.5 L 114.5 276 Z " /><path fill="currentColor" stroke="currentColor" stroke-width="1" opacity="0.7098039215686275" d="M 197.5 277 L 198 336.5 L 197 336.5 L 197.5 277 Z " /><path fill="currentColor" stroke="currentColor" stroke-width="1" opacity="0.7098039215686275" d="M 130.5 280 L 182 280.5 L 130 281 L 129.5 333 L 129 281.5 L 130.5 280 Z " /><path fill="currentColor" stroke="currentColor" stroke-width="1" opacity="0.7098039215686275" d="M 234.5 280 L 387 280.5 L 234.5 281 L 234.5 280 Z " /><path fill="currentColor" stroke="currentColor" stroke-width="1" opacity="0.7098039215686275" d="M 430.5 289 L 432.5 292 L 430.5 289 Z " /><path fill="currentColor" stroke="currentColor" stroke-width="1" opacity="0.7098039215686275" d="M 442.5 289 L 441.5 291 L 442.5 289 Z " /><path fill="currentColor" stroke="currentColor" stroke-width="1" opacity="0.7098039215686275" d="M 230.5 296 L 228.5 299 L 230.5 296 Z " /><path fill="currentColor" stroke="currentColor" stroke-width="1" opacity="0.7098039215686275" d="M 390.5 296 L 392.5 299 L 390.5 296 Z " /><path fill="currentColor" stroke="currentColor" stroke-width="1" opacity="0.7098039215686275" d="M 234.5 310 L 387 310.5 L 234.5 311 L 234.5 310 Z " /><path fill="currentColor" stroke="currentColor" stroke-width="1" opacity="0.7098039215686275" d="M 428.5 320 L 429 477.5 L 428 477.5 L 428.5 320 Z " /><path fill="currentColor" stroke="currentColor" stroke-width="1" opacity="0.7098039215686275" d="M 114.5 334 L 115 336.5 L 114 336.5 L 114.5 334 Z " /><path fill="currentColor" stroke="currentColor" stroke-width="1" opacity="0.7098039215686275" d="M 195.5 341 L 194.5 343 L 195.5 341 Z " /><path fill="currentColor" stroke="currentColor" stroke-width="1" opacity="0.7098039215686275" d="M 191.5 345 L 190.5 347 L 191.5 345 Z " /><path fill="currentColor" stroke="currentColor" stroke-width="1" opacity="0.7098039215686275" d="M 127.5 348 L 185 348.5 L 127.5 349 L 127.5 348 Z " /><path fill="currentColor" stroke="currentColor" stroke-width="1" opacity="0.7098039215686275" d="M 230.5 379 L 228.5 382 L 230.5 379 Z " /><path fill="currentColor" stroke="currentColor" stroke-width="1" opacity="0.7098039215686275" d="M 390.5 379 L 392.5 382 L 390.5 379 Z " /><path fill="currentColor" stroke="currentColor" stroke-width="1" opacity="0.7098039215686275" d="M 119.5 381 L 117.5 384 L 119.5 381 Z " /><path fill="currentColor" stroke="currentColor" stroke-width="1" opacity="0.7098039215686275" d="M 192.5 381 L 194.5 384 L 192.5 381 Z " /><path fill="currentColor" stroke="currentColor" stroke-width="1" opacity="0.7098039215686275" d="M 114.5 389 L 115 391.5 L 114 391.5 L 114.5 389 Z " /><path fill="currentColor" stroke="currentColor" stroke-width="1" opacity="0.7098039215686275" d="M 197.5 390 L 198 449.5 L 197 449.5 L 197.5 390 Z " /><path fill="currentColor" stroke="currentColor" stroke-width="1" opacity="0.7098039215686275" d="M 130.5 393 L 182 393.5 L 130 394 L 129.5 446 L 129 394.5 L 130.5 393 Z " /><path fill="currentColor" stroke="currentColor" stroke-width="1" opacity="0.7098039215686275" d="M 234.5 393 L 387 393.5 L 234.5 394 L 234.5 393 Z " /><path fill="currentColor" stroke="currentColor" stroke-width="1" opacity="0.7098039215686275" d="M 230.5 409 L 228.5 412 L 230.5 409 Z " /><path fill="currentColor" stroke="currentColor" stroke-width="1" opacity="0.7098039215686275" d="M 390.5 409 L 392.5 412 L 390.5 409 Z " /><path fill="currentColor" stroke="currentColor" stroke-width="1" opacity="0.7098039215686275" d="M 234.5 423 L 387 423.5 L 234.5 424 L 234.5 423 Z " /><path fill="currentColor" stroke="currentColor" stroke-width="1" opacity="0.7098039215686275" d="M 114.5 447 L 115 449.5 L 114 449.5 L 114.5 447 Z " /><path fill="currentColor" stroke="currentColor" stroke-width="1" opacity="0.7098039215686275" d="M 195.5 454 L 194.5 456 L 195.5 454 Z " /><path fill="currentColor" stroke="currentColor" stroke-width="1" opacity="0.7098039215686275" d="M 191.5 458 L 190.5 460 L 191.5 458 Z " /><path fill="currentColor" stroke="currentColor" stroke-width="1" opacity="0.7098039215686275" d="M 127.5 461 L 185 461.5 L 127.5 462 L 127.5 461 Z " /><path fill="currentColor" stroke="currentColor" stroke-width="1" opacity="0.7098039215686275" d="M 443.5 479 L 444 481.5 L 443 481.5 L 443.5 479 Z " /><path fill="currentColor" stroke="currentColor" stroke-width="1" opacity="0.7098039215686275" d="M 87.5 487 L 88.5 489 L 87.5 487 Z " /><path fill="currentColor" stroke="currentColor" stroke-width="1" opacity="0.7098039215686275" d="M 424.5 487 L 423.5 489 L 424.5 487 Z " /><path fill="currentColor" stroke="currentColor" stroke-width="1" opacity="0.7098039215686275" d="M 76.5 498 L 81.5 504 L 76.5 498 Z " /><path fill="currentColor" stroke="currentColor" stroke-width="1" opacity="0.7098039215686275" d="M 435.5 498 L 430.5 504 L 435.5 498 Z " /><path fill="currentColor" stroke="currentColor" stroke-width="1" opacity="0.7098039215686275" d="M 427.5 505 L 426.5 507 L 427.5 505 Z " /><path fill="currentColor" stroke="currentColor" stroke-width="1" opacity="0" d="M 0 0 L 98 0.5 Q 83.5 3.5 76 13.5 Q 70.1 20.1 68 30.5 L 68 481.5 Q 71.4 496.1 81.5 504 L 91.5 510 L 98 511.5 L 0 512 L 0 0 Z " /><path fill="currentColor" stroke="currentColor" stroke-width="1" opacity="0" d="M 317.5 0 L 512 0 L 512 512 L 414 511.5 Q 428.6 508.6 436 498.5 Q 441.9 491.9 444 481.5 L 444 316.5 Q 442.1 310.9 433.5 312 L 429 316.5 L 428 320.5 L 428 480.5 Q 425.9 487.9 420.5 492 L 408.5 497 L 103.5 497 Q 94.1 495.4 89 489.5 L 84 480.5 L 84 31.5 Q 86.1 24.1 91.5 20 L 103.5 15 L 305 15 L 305 44.5 L 304.5 45 L 127.5 45 Q 120.3 46.8 117 52.5 L 114 59.5 L 114 102.5 L 120.5 113 L 128.5 117 L 281.5 117 L 287 112.5 Q 288.8 103.8 283.5 102 L 281.5 101 L 130 101 L 130 61.5 L 131.5 60 L 304.5 60 L 305 60.5 L 305 104.5 Q 307.7 120.3 317.5 129 L 328.5 136 L 341.5 139 L 428 139 L 428 284.5 L 432.5 292 L 436.5 293 L 443 289.5 L 444 287.5 L 444 128.5 L 317.5 0 Z M 126 152 L 120 155 L 114 164 L 114 224 L 116 229 Q 119 235 128 236 L 185 236 L 191 234 Q 196 231 198 224 L 198 165 L 195 158 L 187 152 L 126 152 Z M 233 152 L 231 153 L 227 158 L 228 164 L 235 168 L 387 168 L 390 167 L 394 162 L 393 156 L 389 152 L 233 152 Z M 233 182 L 231 183 L 227 188 L 228 194 L 235 198 L 387 198 L 390 197 L 394 192 L 393 186 L 389 182 L 233 182 Z M 126 265 L 120 268 L 114 277 L 114 337 L 116 342 Q 119 348 128 349 L 185 349 L 191 347 Q 196 344 198 337 L 198 278 L 195 271 L 187 265 L 126 265 Z M 233 265 L 231 266 L 227 271 L 228 277 L 235 281 L 387 281 L 390 280 L 394 275 L 393 269 L 389 265 L 233 265 Z M 233 295 L 231 296 L 227 301 L 228 307 L 235 311 L 387 311 L 390 310 L 394 305 L 393 299 L 389 295 L 233 295 Z M 126 378 L 120 381 L 114 390 L 114 450 L 116 455 Q 119 461 128 462 L 185 462 L 191 460 Q 196 457 198 450 L 198 391 L 195 384 L 187 378 L 126 378 Z M 233 378 L 231 379 L 227 384 L 228 390 L 235 394 L 387 394 L 390 393 L 394 388 L 393 382 L 389 378 L 233 378 Z M 233 408 L 231 409 L 227 414 L 228 420 L 235 424 L 387 424 L 390 423 L 394 418 L 393 412 L 389 408 L 233 408 Z " /><path fill="currentColor" stroke="currentColor" stroke-width="1" opacity="0" d="M 321.5 27 L 416.5 123 L 339.5 123 Q 328.8 120.7 324 112.5 L 321 104.5 L 321.5 27 Z " /><path fill="currentColor" stroke="currentColor" stroke-width="1" opacity="0" d="M 130 168 L 182 168 L 182 220 L 130 220 L 130 168 Z " /><path fill="currentColor" stroke="currentColor" stroke-width="1" opacity="0" d="M 130 281 L 182 281 L 182 333 L 130 333 L 130 281 Z " /><path fill="currentColor" stroke="currentColor" stroke-width="1" opacity="0" d="M 130 394 L 182 394 L 182 446 L 130 446 L 130 394 Z " /><path fill="currentColor" stroke="currentColor" stroke-width="1" opacity="0.7098039215686275" d="M 105.5 0 L 312.5 0 L 315.5 1 L 442 126.5 L 443 128.5 L 443 287.5 Q 441 291.5 435.5 292 L 431 290 L 429 285.5 L 429 138 L 339.5 138 Q 321.5 135 313 122.5 L 309 115.5 L 306 104.5 L 306 60 L 130.5 60 L 129 61.5 L 129 100.5 L 130.5 102 L 281.5 102 L 285 104.5 L 287 109.5 L 283.5 115 L 281.5 116 L 128.5 116 Q 120.6 113.9 117 107.5 L 115 102.5 L 115 59.5 Q 116.6 52.5 121.5 49 L 132.5 45 L 306 45 L 306 15.5 L 305.5 15 L 99.5 15 Q 90.4 17.4 86 24.5 L 83 31.5 L 83 480.5 Q 85.4 489.5 92.5 494 L 99.5 497 L 412.5 497 Q 421.5 494.5 426 487.5 L 429 480.5 L 429 319.5 L 433.5 313 Q 440 312 442 315.5 L 443 317.5 L 443 481.5 Q 439.2 497.1 427.5 505 L 420.5 509 L 406.5 512 L 105.5 512 L 94.5 510 L 87.5 507 L 75 495.5 L 69 481.5 L 69 30.5 Q 72.6 14.6 84.5 7 L 91.5 3 L 105.5 0 Z M 321 25 L 320 105 L 325 116 Q 330 122 341 124 L 419 124 L 321 25 Z " /><path fill="currentColor" stroke="currentColor" stroke-width="1" opacity="0.7098039215686275" d="M 125.5 153 L 186.5 153 L 195 159.5 L 197 164.5 L 197 223.5 L 191.5 232 L 184.5 235 L 127.5 235 L 118 229.5 L 115 223.5 L 115 163.5 L 121.5 155 L 125.5 153 Z M 129 167 L 129 221 L 183 221 L 183 167 L 129 167 Z " /><path fill="currentColor" stroke="currentColor" stroke-width="1" opacity="0.7098039215686275" d="M 232.5 153 L 388.5 153 L 393 157.5 Q 393.9 164.4 389.5 166 L 387.5 167 L 234.5 167 L 229 163.5 L 228 157.5 L 232.5 153 Z " /><path fill="currentColor" stroke="currentColor" stroke-width="1" opacity="0.7098039215686275" d="M 232.5 183 L 388.5 183 L 393 187.5 Q 393.9 194.4 389.5 196 L 387.5 197 L 234.5 197 L 229 193.5 L 228 187.5 L 232.5 183 Z " /><path fill="currentColor" stroke="currentColor" stroke-width="1" opacity="0.7098039215686275" d="M 125.5 266 L 186.5 266 L 195 272.5 L 197 277.5 L 197 336.5 L 191.5 345 L 184.5 348 L 127.5 348 L 118 342.5 L 115 336.5 L 115 276.5 L 121.5 268 L 125.5 266 Z M 129 280 L 129 334 L 183 334 L 183 280 L 129 280 Z " /><path fill="currentColor" stroke="currentColor" stroke-width="1" opacity="0.7098039215686275" d="M 232.5 266 L 388.5 266 L 393 270.5 Q 393.9 277.4 389.5 279 L 387.5 280 L 234.5 280 L 229 276.5 L 228 270.5 L 232.5 266 Z " /><path fill="currentColor" stroke="currentColor" stroke-width="1" opacity="0.7098039215686275" d="M 232.5 296 L 388.5 296 L 393 300.5 Q 393.9 307.4 389.5 309 L 387.5 310 L 234.5 310 L 229 306.5 L 228 300.5 L 232.5 296 Z " /><path fill="currentColor" stroke="currentColor" stroke-width="1" opacity="0.7098039215686275" d="M 125.5 379 L 186.5 379 L 195 385.5 L 197 390.5 L 197 449.5 L 191.5 458 L 184.5 461 L 127.5 461 L 118 455.5 L 115 449.5 L 115 389.5 L 121.5 381 L 125.5 379 Z M 129 393 L 129 447 L 183 447 L 183 393 L 129 393 Z " /><path fill="currentColor" stroke="currentColor" stroke-width="1" opacity="0.7098039215686275" d="M 232.5 379 L 388.5 379 L 393 383.5 Q 393.9 390.4 389.5 392 L 387.5 393 L 234.5 393 L 229 389.5 L 228 383.5 L 232.5 379 Z " /><path fill="currentColor" stroke="currentColor" stroke-width="1" opacity="0.7098039215686275" d="M 232.5 409 L 388.5 409 L 393 413.5 Q 393.9 420.4 389.5 422 L 387.5 423 L 234.5 423 L 229 419.5 L 228 413.5 L 232.5 409 Z " /></svg>





