<svg viewBox="0 0 512 512" version="1.1" xmlns="http://www.w3.org/2000/svg" desc="Created with imagetracer.js version 1.2.6" ><path fill="currentColor" stroke="currentColor" stroke-width="1" opacity="0" d="M 0 0 L 196 0.5 Q 176.8 3.3 167 15.5 Q 159.1 23.6 156 36.5 L 155 62 L 91.5 62 Q 90 64.5 84.5 63 Q 66.4 67.4 57 80.5 L 50 93.5 L 48 101.5 L 48 114.5 Q 51.3 132.2 62.5 142 Q 70 149.7 82 152 L 82 456.5 Q 87 486.5 107.5 501 L 122.5 509 L 134 511.5 L 0 512 L 0 0 Z " /><path fill="currentColor" stroke="currentColor" stroke-width="1" opacity="0" d="M 316.5 0 L 512 0 L 512 512 L 377 511.5 Q 403.1 507.1 416 489.5 L 425 474.5 L 430 454.5 L 430 152 Q 446.5 148.3 455 135.5 Q 460.7 128.7 463 118.5 L 464 102.5 Q 460 82.5 446.5 72 L 434.5 65 L 420.5 62 L 357 62 L 357 45.5 L 354 30.5 L 343 13 L 327.5 3 L 316.5 1 L 316.5 0 Z " /><path fill="currentColor" stroke="currentColor" stroke-width="1" opacity="0" d="M 198.5 24 L 313.5 24 Q 323.8 26.8 329 34.5 L 332 41.5 L 333 62 L 179.5 62 L 179 61.5 L 179 44.5 Q 180.6 35 186.5 30 L 198.5 24 Z " /><path fill="currentColor" stroke="currentColor" stroke-width="1" opacity="0" d="M 93.5 86 L 417.5 86 L 426.5 88 L 435 94.5 Q 440.8 100.2 439 113.5 Q 436.9 120.9 431.5 125 L 423.5 129 L 88.5 129 Q 80.2 126.9 76 120.5 Q 72 115.5 72 106.5 Q 73.7 95.2 81.5 90 L 87.5 87 Q 92.2 88.3 93.5 86 Z " /><path fill="currentColor" stroke="currentColor" stroke-width="1" opacity="0" d="M 106 154 L 406 154 L 406 448.5 L 403 463.5 Q 399 474.5 390.5 481 L 381.5 486 L 372.5 488 L 139.5 488 Q 122.3 485.3 114 473.5 L 109 464.5 L 106 451.5 L 106 154 Z M 186 185 L 178 188 L 173 196 L 173 426 L 174 430 Q 176 435 183 436 L 189 436 L 194 433 L 197 428 L 197 195 L 195 191 Q 192 186 186 185 Z M 256 185 L 250 187 L 244 195 L 244 428 L 247 433 L 253 436 L 262 435 Q 267 433 268 427 L 268 196 L 265 190 L 261 186 L 256 185 Z M 327 185 L 321 187 L 315 194 L 315 429 L 317 432 L 324 436 Q 331 437 334 434 Q 338 431 339 425 L 339 197 L 336 190 L 332 186 L 327 185 Z " /><path fill="currentColor" stroke="currentColor" stroke-width="1" opacity="0.7098039215686275" d="M 196.5 0 L 201 0.5 L 196.5 1 L 196.5 0 Z " /><path fill="currentColor" stroke="currentColor" stroke-width="1" opacity="0.7098039215686275" d="M 311.5 0 L 316 0.5 L 311.5 1 L 311.5 0 Z " /><path fill="currentColor" stroke="currentColor" stroke-width="1" opacity="0.7098039215686275" d="M 326.5 3 L 329 4.5 L 327.5 4 L 326.5 3 Z " /><path fill="currentColor" stroke="currentColor" stroke-width="1" opacity="0.7098039215686275" d="M 180.5 5 L 179.5 7 L 180.5 5 Z " /><path fill="currentColor" stroke="currentColor" stroke-width="1" opacity="0.7098039215686275" d="M 175.5 8 L 173.5 11 L 175.5 8 Z " /><path fill="currentColor" stroke="currentColor" stroke-width="1" opacity="0.7098039215686275" d="M 337.5 9 L 339.5 12 L 337.5 9 Z " /><path fill="currentColor" stroke="currentColor" stroke-width="1" opacity="0.7098039215686275" d="M 170.5 12 L 167.5 16 L 170.5 12 Z " /><path fill="currentColor" stroke="currentColor" stroke-width="1" opacity="0.7098039215686275" d="M 345.5 17 L 347.5 20 L 345.5 17 Z " /><path fill="currentColor" stroke="currentColor" stroke-width="1" opacity="0.7098039215686275" d="M 165.5 18 L 163.5 21 L 165.5 18 Z " /><path fill="currentColor" stroke="currentColor" stroke-width="1" opacity="0.7098039215686275" d="M 160.5 26 L 159.5 28 L 160.5 26 Z " /><path fill="currentColor" stroke="currentColor" stroke-width="1" opacity="0.7098039215686275" d="M 320.5 26 L 321.5 28 L 320.5 26 Z " /><path fill="currentColor" stroke="currentColor" stroke-width="1" opacity="0.7098039215686275" d="M 189.5 27 L 187.5 30 L 189.5 27 Z " /><path fill="currentColor" stroke="currentColor" stroke-width="1" opacity="0.7098039215686275" d="M 323.5 28 L 328.5 34 L 323.5 28 Z " /><path fill="currentColor" stroke="currentColor" stroke-width="1" opacity="0.7098039215686275" d="M 184.5 32 L 182.5 35 L 184.5 32 Z " /><path fill="currentColor" stroke="currentColor" stroke-width="1" opacity="0.7098039215686275" d="M 355.5 37 L 356 39.5 L 355 39.5 L 355.5 37 Z " /><path fill="currentColor" stroke="currentColor" stroke-width="1" opacity="0.7098039215686275" d="M 155.5 42 L 156 61.5 L 154.5 63 L 91.5 63 L 91.5 62 L 154.5 62 L 155 61.5 L 155.5 42 Z " /><path fill="currentColor" stroke="currentColor" stroke-width="1" opacity="0.7098039215686275" d="M 332.5 42 L 333 47.5 L 332 47.5 L 332.5 42 Z " /><path fill="currentColor" stroke="currentColor" stroke-width="1" opacity="0.7098039215686275" d="M 356.5 45 L 357 62 L 421 62.5 L 356 63 L 356.5 45 Z " /><path fill="currentColor" stroke="currentColor" stroke-width="1" opacity="0.7098039215686275" d="M 179.5 62 L 333 62.5 L 179.5 63 L 179.5 62 Z " /><path fill="currentColor" stroke="currentColor" stroke-width="1" opacity="0.7098039215686275" d="M 69.5 69 L 68.5 71 L 69.5 69 Z " /><path fill="currentColor" stroke="currentColor" stroke-width="1" opacity="0.7098039215686275" d="M 442.5 69 L 443.5 71 L 442.5 69 Z " /><path fill="currentColor" stroke="currentColor" stroke-width="1" opacity="0.7098039215686275" d="M 66.5 71 L 65.5 73 L 66.5 71 Z " /><path fill="currentColor" stroke="currentColor" stroke-width="1" opacity="0.7098039215686275" d="M 446.5 72 L 454.5 81 L 446.5 72 Z " /><path fill="currentColor" stroke="currentColor" stroke-width="1" opacity="0.7098039215686275" d="M 58.5 79 L 57.5 81 L 58.5 79 Z " /><path fill="currentColor" stroke="currentColor" stroke-width="1" opacity="0.7098039215686275" d="M 89.5 86 L 93 86.5 L 89.5 87 L 89.5 86 Z " /><path fill="currentColor" stroke="currentColor" stroke-width="1" opacity="0.7098039215686275" d="M 418.5 86 L 423 86.5 L 418.5 87 L 418.5 86 Z " /><path fill="currentColor" stroke="currentColor" stroke-width="1" opacity="0.7098039215686275" d="M 429.5 89 L 430.5 91 L 429.5 89 Z " /><path fill="currentColor" stroke="currentColor" stroke-width="1" opacity="0.7098039215686275" d="M 79.5 91 L 77.5 94 L 79.5 91 Z " /><path fill="currentColor" stroke="currentColor" stroke-width="1" opacity="0.7098039215686275" d="M 435.5 95 L 436.5 97 L 435.5 95 Z " /><path fill="currentColor" stroke="currentColor" stroke-width="1" opacity="0.7098039215686275" d="M 48.5 101 L 49 107.5 L 48 107.5 L 48.5 101 Z " /><path fill="currentColor" stroke="currentColor" stroke-width="1" opacity="0.7098039215686275" d="M 463.5 102 L 464 112.5 L 463 112.5 L 463.5 102 Z " /><path fill="currentColor" stroke="currentColor" stroke-width="1" opacity="0.7098039215686275" d="M 72.5 103 L 73 105.5 L 72 105.5 L 72.5 103 Z " /><path fill="currentColor" stroke="currentColor" stroke-width="1" opacity="0.7098039215686275" d="M 439.5 104 L 440 111.5 L 439 111.5 L 439.5 104 Z " /><path fill="currentColor" stroke="currentColor" stroke-width="1" opacity="0.7098039215686275" d="M 72.5 110 L 73 112.5 L 72 112.5 L 72.5 110 Z " /><path fill="currentColor" stroke="currentColor" stroke-width="1" opacity="0.7098039215686275" d="M 48.5 111 L 49 114.5 L 48 114.5 L 48.5 111 Z " /><path fill="currentColor" stroke="currentColor" stroke-width="1" opacity="0.7098039215686275" d="M 436.5 119 L 435.5 121 L 436.5 119 Z " /><path fill="currentColor" stroke="currentColor" stroke-width="1" opacity="0.7098039215686275" d="M 77.5 122 L 78.5 124 L 77.5 122 Z " /><path fill="currentColor" stroke="currentColor" stroke-width="1" opacity="0.7098039215686275" d="M 430.5 125 L 429.5 127 L 430.5 125 Z " /><path fill="currentColor" stroke="currentColor" stroke-width="1" opacity="0.7098039215686275" d="M 459.5 127 L 458.5 129 L 459.5 127 Z " /><path fill="currentColor" stroke="currentColor" stroke-width="1" opacity="0.7098039215686275" d="M 90.5 129 L 422 129.5 L 90.5 130 L 90.5 129 Z " /><path fill="currentColor" stroke="currentColor" stroke-width="1" opacity="0.7098039215686275" d="M 56.5 134 L 57.5 136 L 56.5 134 Z " /><path fill="currentColor" stroke="currentColor" stroke-width="1" opacity="0.7098039215686275" d="M 454.5 135 L 452.5 138 L 454.5 135 Z " /><path fill="currentColor" stroke="currentColor" stroke-width="1" opacity="0.7098039215686275" d="M 60.5 139 L 62.5 142 L 60.5 139 Z " /><path fill="currentColor" stroke="currentColor" stroke-width="1" opacity="0.7098039215686275" d="M 447.5 142 L 444.5 146 L 447.5 142 Z " /><path fill="currentColor" stroke="currentColor" stroke-width="1" opacity="0.7098039215686275" d="M 66.5 144 L 67.5 146 L 66.5 144 Z " /><path fill="currentColor" stroke="currentColor" stroke-width="1" opacity="0.7098039215686275" d="M 69.5 146 L 70.5 148 L 69.5 146 Z " /><path fill="currentColor" stroke="currentColor" stroke-width="1" opacity="0.7098039215686275" d="M 440.5 147 L 439.5 149 L 440.5 147 Z " /><path fill="currentColor" stroke="currentColor" stroke-width="1" opacity="0.7098039215686275" d="M 429.5 152 L 430 454.5 L 429 454.5 L 429.5 152 Z " /><path fill="currentColor" stroke="currentColor" stroke-width="1" opacity="0.7098039215686275" d="M 106.5 153 L 406 153.5 L 106.5 154 L 106.5 153 Z " /><path fill="currentColor" stroke="currentColor" stroke-width="1" opacity="0.7098039215686275" d="M 180.5 186 L 182 186.5 L 179.5 188 L 180.5 186 Z " /><path fill="currentColor" stroke="currentColor" stroke-width="1" opacity="0.7098039215686275" d="M 259.5 186 L 262 187.5 L 260.5 187 L 259.5 186 Z " /><path fill="currentColor" stroke="currentColor" stroke-width="1" opacity="0.7098039215686275" d="M 330.5 186 L 333 187.5 L 331.5 187 L 330.5 186 Z " /><path fill="currentColor" stroke="currentColor" stroke-width="1" opacity="0.7098039215686275" d="M 191.5 187 L 192.5 189 L 191.5 187 Z " /><path fill="currentColor" stroke="currentColor" stroke-width="1" opacity="0.7098039215686275" d="M 249.5 187 L 248.5 189 L 249.5 187 Z " /><path fill="currentColor" stroke="currentColor" stroke-width="1" opacity="0.7098039215686275" d="M 320.5 187 L 319.5 189 L 320.5 187 Z " /><path fill="currentColor" stroke="currentColor" stroke-width="1" opacity="0.7098039215686275" d="M 177.5 188 L 176.5 190 L 177.5 188 Z " /><path fill="currentColor" stroke="currentColor" stroke-width="1" opacity="0.7098039215686275" d="M 263.5 188 L 264.5 190 L 263.5 188 Z " /><path fill="currentColor" stroke="currentColor" stroke-width="1" opacity="0.7098039215686275" d="M 334.5 188 L 335.5 190 L 334.5 188 Z " /><path fill="currentColor" stroke="currentColor" stroke-width="1" opacity="0.7098039215686275" d="M 317.5 190 L 316.5 192 L 317.5 190 Z " /><path fill="currentColor" stroke="currentColor" stroke-width="1" opacity="0.7098039215686275" d="M 336.5 191 L 338 193.5 L 337 193.5 L 336.5 191 Z " /><path fill="currentColor" stroke="currentColor" stroke-width="1" opacity="0.7098039215686275" d="M 173.5 195 L 174 425.5 L 173 425.5 L 173.5 195 Z " /><path fill="currentColor" stroke="currentColor" stroke-width="1" opacity="0.7098039215686275" d="M 267.5 195 L 268 197.5 L 267 197.5 L 267.5 195 Z " /><path fill="currentColor" stroke="currentColor" stroke-width="1" opacity="0.7098039215686275" d="M 338.5 196 L 339 424.5 L 338 424.5 L 338.5 196 Z " /><path fill="currentColor" stroke="currentColor" stroke-width="1" opacity="0.7098039215686275" d="M 267.5 424 L 268 426.5 L 267 426.5 L 267.5 424 Z " /><path fill="currentColor" stroke="currentColor" stroke-width="1" opacity="0.7098039215686275" d="M 196.5 425 L 197 427.5 L 196 427.5 L 196.5 425 Z " /><path fill="currentColor" stroke="currentColor" stroke-width="1" opacity="0.7098039215686275" d="M 244.5 425 L 245 427.5 L 244 427.5 L 244.5 425 Z " /><path fill="currentColor" stroke="currentColor" stroke-width="1" opacity="0.7098039215686275" d="M 174.5 429 L 175.5 431 L 174.5 429 Z " /><path fill="currentColor" stroke="currentColor" stroke-width="1" opacity="0.7098039215686275" d="M 266.5 429 L 265.5 431 L 266.5 429 Z " /><path fill="currentColor" stroke="currentColor" stroke-width="1" opacity="0.7098039215686275" d="M 336.5 430 L 335.5 432 L 336.5 430 Z " /><path fill="currentColor" stroke="currentColor" stroke-width="1" opacity="0.7098039215686275" d="M 317.5 431 L 319.5 434 L 317.5 431 Z " /><path fill="currentColor" stroke="currentColor" stroke-width="1" opacity="0.7098039215686275" d="M 178.5 433 L 179.5 435 L 178.5 433 Z " /><path fill="currentColor" stroke="currentColor" stroke-width="1" opacity="0.7098039215686275" d="M 262.5 433 L 261.5 435 L 262.5 433 Z " /><path fill="currentColor" stroke="currentColor" stroke-width="1" opacity="0.7098039215686275" d="M 186.5 435 L 189 435.5 L 186.5 436 L 186.5 435 Z " /><path fill="currentColor" stroke="currentColor" stroke-width="1" opacity="0.7098039215686275" d="M 252.5 435 L 255 435.5 L 252.5 436 L 252.5 435 Z " /><path fill="currentColor" stroke="currentColor" stroke-width="1" opacity="0.7098039215686275" d="M 323.5 435 L 326 435.5 L 323.5 436 L 323.5 435 Z " /><path fill="currentColor" stroke="currentColor" stroke-width="1" opacity="0.7098039215686275" d="M 405.5 449 L 406 454.5 L 405 454.5 L 405.5 449 Z " /><path fill="currentColor" stroke="currentColor" stroke-width="1" opacity="0.7098039215686275" d="M 82.5 450 L 83 456.5 L 82 456.5 L 82.5 450 Z " /><path fill="currentColor" stroke="currentColor" stroke-width="1" opacity="0.7098039215686275" d="M 106.5 452 L 107 456.5 L 106 456.5 L 106.5 452 Z " /><path fill="currentColor" stroke="currentColor" stroke-width="1" opacity="0.7098039215686275" d="M 428.5 458 L 429 460.5 L 428 460.5 L 428.5 458 Z " /><path fill="currentColor" stroke="currentColor" stroke-width="1" opacity="0.7098039215686275" d="M 83.5 460 L 84 462.5 L 83 462.5 L 83.5 460 Z " /><path fill="currentColor" stroke="currentColor" stroke-width="1" opacity="0.7098039215686275" d="M 112.5 471 L 113.5 473 L 112.5 471 Z " /><path fill="currentColor" stroke="currentColor" stroke-width="1" opacity="0.7098039215686275" d="M 398.5 472 L 397.5 474 L 398.5 472 Z " /><path fill="currentColor" stroke="currentColor" stroke-width="1" opacity="0.7098039215686275" d="M 115.5 475 L 119.5 480 L 115.5 475 Z " /><path fill="currentColor" stroke="currentColor" stroke-width="1" opacity="0.7098039215686275" d="M 395.5 476 L 394.5 478 L 395.5 476 Z " /><path fill="currentColor" stroke="currentColor" stroke-width="1" opacity="0.7098039215686275" d="M 122.5 481 L 123.5 483 L 122.5 481 Z " /><path fill="currentColor" stroke="currentColor" stroke-width="1" opacity="0.7098039215686275" d="M 92.5 484 L 93.5 486 L 92.5 484 Z " /><path fill="currentColor" stroke="currentColor" stroke-width="1" opacity="0.7098039215686275" d="M 418.5 485 L 417.5 487 L 418.5 485 Z " /><path fill="currentColor" stroke="currentColor" stroke-width="1" opacity="0.7098039215686275" d="M 135.5 487 L 139 487.5 L 135.5 488 L 135.5 487 Z " /><path fill="currentColor" stroke="currentColor" stroke-width="1" opacity="0.7098039215686275" d="M 373.5 487 L 377 487.5 L 373.5 488 L 373.5 487 Z " /><path fill="currentColor" stroke="currentColor" stroke-width="1" opacity="0.7098039215686275" d="M 95.5 488 L 97.5 491 L 95.5 488 Z " /><path fill="currentColor" stroke="currentColor" stroke-width="1" opacity="0.7098039215686275" d="M 415.5 489 L 413.5 492 L 415.5 489 Z " /><path fill="currentColor" stroke="currentColor" stroke-width="1" opacity="0.7098039215686275" d="M 408.5 496 L 405.5 500 L 408.5 496 Z " /><path fill="currentColor" stroke="currentColor" stroke-width="1" opacity="0.7098039215686275" d="M 105.5 498 L 107.5 501 L 105.5 498 Z " /><path fill="currentColor" stroke="currentColor" stroke-width="1" opacity="0.7098039215686275" d="M 109.5 501 L 110.5 503 L 109.5 501 Z " /><path fill="currentColor" stroke="currentColor" stroke-width="1" opacity="0.7098039215686275" d="M 380.5 510 L 383 510.5 L 380.5 511 L 380.5 510 Z " /><path fill="currentColor" stroke="currentColor" stroke-width="1" opacity="0.7098039215686275" d="M 134.5 511 L 140 511.5 L 134.5 512 L 134.5 511 Z " /><path fill="currentColor" stroke="currentColor" stroke-width="1" opacity="0.7098039215686275" d="M 372.5 511 L 377 511.5 L 372.5 512 L 372.5 511 Z " /><path fill="currentColor" stroke="currentColor" stroke-width="1" opacity="0.7098039215686275" d="M 172.5 11 L 171.5 13 L 172.5 11 Z " /><path fill="currentColor" stroke="currentColor" stroke-width="1" opacity="0.7098039215686275" d="M 340.5 12 L 341.5 14 L 340.5 12 Z " /><path fill="currentColor" stroke="currentColor" stroke-width="1" opacity="0.7098039215686275" d="M 343.5 15 L 344.5 17 L 343.5 15 Z " /><path fill="currentColor" stroke="currentColor" stroke-width="1" opacity="0.7098039215686275" d="M 167.5 16 L 166.5 18 L 167.5 16 Z " /><path fill="currentColor" stroke="currentColor" stroke-width="1" opacity="0.7098039215686275" d="M 347.5 20 L 348.5 22 L 347.5 20 Z " /><path fill="currentColor" stroke="currentColor" stroke-width="1" opacity="0.7098039215686275" d="M 202.5 23 L 310 23.5 L 202.5 24 L 202.5 23 Z " /><path fill="currentColor" stroke="currentColor" stroke-width="1" opacity="0.7098039215686275" d="M 186.5 29 L 184.5 32 L 186.5 29 Z " /><path fill="currentColor" stroke="currentColor" stroke-width="1" opacity="0.7098039215686275" d="M 444.5 71 L 445.5 73 L 444.5 71 Z " /><path fill="currentColor" stroke="currentColor" stroke-width="1" opacity="0.7098039215686275" d="M 64.5 73 L 59.5 79 L 64.5 73 Z " /><path fill="currentColor" stroke="currentColor" stroke-width="1" opacity="0.7098039215686275" d="M 81.5 89 L 80.5 91 L 81.5 89 Z " /><path fill="currentColor" stroke="currentColor" stroke-width="1" opacity="0.7098039215686275" d="M 431.5 90 L 432.5 92 L 431.5 90 Z " /><path fill="currentColor" stroke="currentColor" stroke-width="1" opacity="0.7098039215686275" d="M 434.5 93 L 435.5 95 L 434.5 93 Z " /><path fill="currentColor" stroke="currentColor" stroke-width="1" opacity="0.7098039215686275" d="M 76.5 94 L 75.5 96 L 76.5 94 Z " /><path fill="currentColor" stroke="currentColor" stroke-width="1" opacity="0.7098039215686275" d="M 48.5 108 L 49 110.5 L 48 110.5 L 48.5 108 Z " /><path fill="currentColor" stroke="currentColor" stroke-width="1" opacity="0.7098039215686275" d="M 75.5 120 L 76.5 122 L 75.5 120 Z " /><path fill="currentColor" stroke="currentColor" stroke-width="1" opacity="0.7098039215686275" d="M 434.5 122 L 432.5 125 L 434.5 122 Z " /><path fill="currentColor" stroke="currentColor" stroke-width="1" opacity="0.7098039215686275" d="M 79.5 124 L 80.5 126 L 79.5 124 Z " /><path fill="currentColor" stroke="currentColor" stroke-width="1" opacity="0.7098039215686275" d="M 58.5 136 L 59.5 138 L 58.5 136 Z " /><path fill="currentColor" stroke="currentColor" stroke-width="1" opacity="0.7098039215686275" d="M 451.5 138 L 448.5 142 L 451.5 138 Z " /><path fill="currentColor" stroke="currentColor" stroke-width="1" opacity="0.7098039215686275" d="M 63.5 141 L 65.5 144 L 63.5 141 Z " /><path fill="currentColor" stroke="currentColor" stroke-width="1" opacity="0.7098039215686275" d="M 267.5 198 L 268 423.5 L 267 423.5 L 267.5 198 Z " /><path fill="currentColor" stroke="currentColor" stroke-width="1" opacity="0.7098039215686275" d="M 176.5 431 L 177.5 433 L 176.5 431 Z " /><path fill="currentColor" stroke="currentColor" stroke-width="1" opacity="0.7098039215686275" d="M 264.5 431 L 263.5 433 L 264.5 431 Z " /><path fill="currentColor" stroke="currentColor" stroke-width="1" opacity="0.7098039215686275" d="M 393.5 478 L 390.5 482 L 393.5 478 Z " /><path fill="currentColor" stroke="currentColor" stroke-width="1" opacity="0.7098039215686275" d="M 120.5 480 L 121.5 482 L 120.5 480 Z " /><path fill="currentColor" stroke="currentColor" stroke-width="1" opacity="0.7098039215686275" d="M 142.5 488 L 370 488.5 L 142.5 489 L 142.5 488 Z " /><path fill="currentColor" stroke="currentColor" stroke-width="1" opacity="0.7098039215686275" d="M 98.5 491 L 104.5 498 L 98.5 491 Z " /><path fill="currentColor" stroke="currentColor" stroke-width="1" opacity="0.7098039215686275" d="M 412.5 492 L 409.5 496 L 412.5 492 Z " /><path fill="currentColor" stroke="currentColor" stroke-width="1" opacity="0.7098039215686275" d="M 404.5 499 L 403.5 501 L 404.5 499 Z " /><path fill="currentColor" stroke="currentColor" stroke-width="1" opacity="0.7098039215686275" d="M 140.5 511 L 143 511.5 L 140.5 512 L 140.5 511 Z " /><path fill="currentColor" stroke="currentColor" stroke-width="1" opacity="0.7098039215686275" d="M 369.5 511 L 372 511.5 L 369.5 512 L 369.5 511 Z " /><path fill="currentColor" stroke="currentColor" stroke-width="1" opacity="0.7098039215686275" d="M 203.5 0 L 308.5 0 L 309.5 1 L 318.5 1 L 333.5 7 L 343 14 L 353 29.5 L 355 36.5 L 356 41.5 L 356 63 L 424.5 63 Q 443.9 67.1 454 80.5 L 462 96.5 L 463 114.5 Q 459.1 135.1 444.5 145 L 429 152 L 429 456.5 Q 424.2 484.7 405.5 499 L 392.5 507 L 383.5 510 L 369.5 511 L 368.5 512 L 143.5 512 L 142.5 511 L 132.5 511 L 124.5 509 L 113.5 504 Q 102.5 497.5 95 487.5 L 85 467.5 L 83 458.5 L 83 448.5 L 82 447.5 L 82 152.5 L 80.5 151 Q 67.6 147.4 60 138.5 Q 53.2 131.3 50 120.5 Q 47.4 112.6 49 100.5 Q 53 81.5 66.5 72 L 76.5 66 L 87.5 63 L 156 63 L 156 39.5 L 157 35.5 Q 160.7 21.2 170.5 13 Q 176.9 6.4 186.5 3 L 203.5 0 Z M 203 23 L 194 25 L 187 29 Q 181 34 179 42 L 179 63 L 180 63 L 333 63 L 333 43 L 330 35 L 323 27 L 310 23 L 203 23 Z M 89 86 L 82 89 Q 74 93 72 103 Q 70 115 75 121 Q 80 128 90 130 L 423 130 L 433 125 Q 438 120 440 113 L 440 104 L 436 95 Q 432 88 423 86 L 89 86 Z M 106 153 L 106 457 Q 108 467 114 475 L 125 484 L 135 488 Q 141 486 143 489 L 370 489 L 384 486 L 391 482 Q 402 473 406 456 L 406 153 L 106 153 Z " /><path fill="currentColor" stroke="currentColor" stroke-width="1" opacity="0.7098039215686275" d="M 183.5 186 Q 191.9 186.1 195 191.5 L 197 197.5 L 197 423.5 L 196 428.5 L 192.5 433 Q 189.6 436.6 181.5 435 L 175 429.5 L 174 427.5 L 174 194.5 L 177.5 189 L 183.5 186 Z " /><path fill="currentColor" stroke="currentColor" stroke-width="1" opacity="0.7098039215686275" d="M 254.5 186 Q 262 186 265 190.5 L 267 193.5 L 267 427.5 L 261.5 434 Q 258.3 436.3 251.5 435 L 247 431.5 L 244 423.5 L 244 197.5 Q 244.9 190.9 249.5 188 L 254.5 186 Z " /><path fill="currentColor" stroke="currentColor" stroke-width="1" opacity="0.7098039215686275" d="M 324.5 186 L 328.5 186 L 335 189 L 338 195.5 L 338 426.5 L 332.5 434 L 326.5 436 Q 319.9 435.1 317 430.5 L 315 425.5 L 315 196.5 Q 316.3 190.8 320.5 188 L 324.5 186 Z " /></svg>





