<svg viewBox="0 0 512 512" version="1.1" xmlns="http://www.w3.org/2000/svg" desc="Created with imagetracer.js version 1.2.6" ><path fill="currentColor" stroke="currentColor" stroke-width="1" opacity="0.7098039215686275" d="M 361.5 34 L 368 34.5 L 361.5 35 L 361.5 34 Z " /><path fill="currentColor" stroke="currentColor" stroke-width="1" opacity="0.7098039215686275" d="M 369.5 34 L 376 34.5 L 369.5 35 L 369.5 34 Z " /><path fill="currentColor" stroke="currentColor" stroke-width="1" opacity="0.7098039215686275" d="M 355.5 35 L 358 35.5 L 355.5 36 L 355.5 35 Z " /><path fill="currentColor" stroke="currentColor" stroke-width="1" opacity="0.7098039215686275" d="M 333.5 45 L 332.5 47 L 333.5 45 Z " /><path fill="currentColor" stroke="currentColor" stroke-width="1" opacity="0.7098039215686275" d="M 405.5 46 L 409.5 51 L 405.5 46 Z " /><path fill="currentColor" stroke="currentColor" stroke-width="1" opacity="0.7098039215686275" d="M 328.5 49 L 90.5 288 L 328.5 49 Z " /><path fill="currentColor" stroke="currentColor" stroke-width="1" opacity="0.7098039215686275" d="M 365.5 65 L 373 65.5 L 365.5 66 L 365.5 65 Z " /><path fill="currentColor" stroke="currentColor" stroke-width="1" opacity="0.7098039215686275" d="M 425.5 66 L 429.5 71 L 425.5 66 Z " /><path fill="currentColor" stroke="currentColor" stroke-width="1" opacity="0.7098039215686275" d="M 354.5 69 L 353.5 71 L 354.5 69 Z " /><path fill="currentColor" stroke="currentColor" stroke-width="1" opacity="0.7098039215686275" d="M 384.5 70 L 385.5 72 L 384.5 70 Z " /><path fill="currentColor" stroke="currentColor" stroke-width="1" opacity="0.7098039215686275" d="M 431.5 73 L 432.5 75 L 431.5 73 Z " /><path fill="currentColor" stroke="currentColor" stroke-width="1" opacity="0.7098039215686275" d="M 347.5 75 L 344.5 79 L 347.5 75 Z " /><path fill="currentColor" stroke="currentColor" stroke-width="1" opacity="0.7098039215686275" d="M 404.5 90 L 405.5 92 L 404.5 90 Z " /><path fill="currentColor" stroke="currentColor" stroke-width="1" opacity="0.7098039215686275" d="M 331.5 92 L 384.5 144 L 405 124.5 L 383.5 145 L 331.5 92 Z " /><path fill="currentColor" stroke="currentColor" stroke-width="1" opacity="0.7098039215686275" d="M 441.5 95 L 442 97.5 L 441 97.5 L 441.5 95 Z " /><path fill="currentColor" stroke="currentColor" stroke-width="1" opacity="0.7098039215686275" d="M 442.5 101 L 443 112.5 L 442 112.5 L 442.5 101 Z " /><path fill="currentColor" stroke="currentColor" stroke-width="1" opacity="0.7098039215686275" d="M 410.5 102 L 411 106.5 L 410 106.5 L 410.5 102 Z " /><path fill="currentColor" stroke="currentColor" stroke-width="1" opacity="0.7098039215686275" d="M 410.5 108 L 411 111.5 L 410 111.5 L 410.5 108 Z " /><path fill="currentColor" stroke="currentColor" stroke-width="1" opacity="0.7098039215686275" d="M 307.5 115 L 114.5 309 L 307.5 115 Z " /><path fill="currentColor" stroke="currentColor" stroke-width="1" opacity="0.7098039215686275" d="M 309.5 115 L 360.5 167 L 309.5 115 Z " /><path fill="currentColor" stroke="currentColor" stroke-width="1" opacity="0.7098039215686275" d="M 407.5 120 L 406.5 122 L 407.5 120 Z " /><path fill="currentColor" stroke="currentColor" stroke-width="1" opacity="0.7098039215686275" d="M 431.5 141 L 430.5 143 L 431.5 141 Z " /><path fill="currentColor" stroke="currentColor" stroke-width="1" opacity="0.7098039215686275" d="M 427.5 146 L 187.5 387 L 427.5 146 Z " /><path fill="currentColor" stroke="currentColor" stroke-width="1" opacity="0.7098039215686275" d="M 360.5 168 L 167.5 362 L 360.5 168 Z " /><path fill="currentColor" stroke="currentColor" stroke-width="1" opacity="0.7098039215686275" d="M 88.5 290 L 87.5 292 L 88.5 290 Z " /><path fill="currentColor" stroke="currentColor" stroke-width="1" opacity="0.7098039215686275" d="M 81.5 304 L 82 306.5 L 81 306.5 L 81.5 304 Z " /><path fill="currentColor" stroke="currentColor" stroke-width="1" opacity="0.7098039215686275" d="M 112.5 311 L 113 314.5 L 112 314.5 L 112.5 311 Z " /><path fill="currentColor" stroke="currentColor" stroke-width="1" opacity="0.7098039215686275" d="M 80.5 312 L 81 316.5 L 80 316.5 L 80.5 312 Z " /><path fill="currentColor" stroke="currentColor" stroke-width="1" opacity="0.7098039215686275" d="M 111.5 321 L 112 325.5 L 111 325.5 L 111.5 321 Z " /><path fill="currentColor" stroke="currentColor" stroke-width="1" opacity="0.7098039215686275" d="M 79.5 323 L 80 327.5 L 79 327.5 L 79.5 323 Z " /><path fill="currentColor" stroke="currentColor" stroke-width="1" opacity="0.7098039215686275" d="M 110.5 332 L 111 336.5 L 110 336.5 L 110.5 332 Z " /><path fill="currentColor" stroke="currentColor" stroke-width="1" opacity="0.7098039215686275" d="M 78.5 333 L 79 338.5 L 78 338.5 L 78.5 333 Z " /><path fill="currentColor" stroke="currentColor" stroke-width="1" opacity="0.7098039215686275" d="M 109.5 343 L 110 347.5 L 109 347.5 L 109.5 343 Z " /><path fill="currentColor" stroke="currentColor" stroke-width="1" opacity="0.7098039215686275" d="M 77.5 344 L 78 349.5 L 77 349.5 L 77.5 344 Z " /><path fill="currentColor" stroke="currentColor" stroke-width="1" opacity="0.7098039215686275" d="M 108.5 354 L 109 358.5 L 108 358.5 L 108.5 354 Z " /><path fill="currentColor" stroke="currentColor" stroke-width="1" opacity="0.7098039215686275" d="M 76.5 355 L 77 360.5 L 76 360.5 L 76.5 355 Z " /><path fill="currentColor" stroke="currentColor" stroke-width="1" opacity="0.7098039215686275" d="M 160.5 363 L 164 363.5 L 160.5 364 L 160.5 363 Z " /><path fill="currentColor" stroke="currentColor" stroke-width="1" opacity="0.7098039215686275" d="M 149.5 364 L 155 364.5 L 149.5 365 L 149.5 364 Z " /><path fill="currentColor" stroke="currentColor" stroke-width="1" opacity="0.7098039215686275" d="M 107.5 365 L 108 368 L 111 368.5 L 107 369 L 107.5 365 Z " /><path fill="currentColor" stroke="currentColor" stroke-width="1" opacity="0.7098039215686275" d="M 138.5 365 L 144 365.5 L 138.5 366 L 138.5 365 Z " /><path fill="currentColor" stroke="currentColor" stroke-width="1" opacity="0.7098039215686275" d="M 75.5 366 L 76 370.5 L 75 370.5 L 75.5 366 Z " /><path fill="currentColor" stroke="currentColor" stroke-width="1" opacity="0.7098039215686275" d="M 127.5 366 L 133 366.5 L 127.5 367 L 127.5 366 Z " /><path fill="currentColor" stroke="currentColor" stroke-width="1" opacity="0.7098039215686275" d="M 116.5 367 L 122 367.5 L 116.5 368 L 116.5 367 Z " /><path fill="currentColor" stroke="currentColor" stroke-width="1" opacity="0.7098039215686275" d="M 75.5 377 L 76 379.5 L 75 379.5 L 75.5 377 Z " /><path fill="currentColor" stroke="currentColor" stroke-width="1" opacity="0.7098039215686275" d="M 184.5 388 L 183.5 390 L 184.5 388 Z " /><path fill="currentColor" stroke="currentColor" stroke-width="1" opacity="0.7098039215686275" d="M 80.5 390 L 81.5 392 L 80.5 390 Z " /><path fill="currentColor" stroke="currentColor" stroke-width="1" opacity="0.7098039215686275" d="M 170.5 394 L 173 394.5 L 170.5 395 L 170.5 394 Z " /><path fill="currentColor" stroke="currentColor" stroke-width="1" opacity="0.7098039215686275" d="M 85.5 395 L 86.5 397 L 85.5 395 Z " /><path fill="currentColor" stroke="currentColor" stroke-width="1" opacity="0.7098039215686275" d="M 163.5 395 L 168 395.5 L 163.5 396 L 163.5 395 Z " /><path fill="currentColor" stroke="currentColor" stroke-width="1" opacity="0.7098039215686275" d="M 152.5 396 L 157 396.5 L 152.5 397 L 152.5 396 Z " /><path fill="currentColor" stroke="currentColor" stroke-width="1" opacity="0.7098039215686275" d="M 141.5 397 L 147 397.5 L 141.5 398 L 141.5 397 Z " /><path fill="currentColor" stroke="currentColor" stroke-width="1" opacity="0.7098039215686275" d="M 130.5 398 L 136 398.5 L 130.5 399 L 130.5 398 Z " /><path fill="currentColor" stroke="currentColor" stroke-width="1" opacity="0.7098039215686275" d="M 119.5 399 L 125 399.5 L 119.5 400 L 119.5 399 Z " /><path fill="currentColor" stroke="currentColor" stroke-width="1" opacity="0.7098039215686275" d="M 108.5 400 L 114 400.5 L 108.5 401 L 108.5 400 Z " /><path fill="currentColor" stroke="currentColor" stroke-width="1" opacity="0.7098039215686275" d="M 40.5 453 L 472 453.5 L 40.5 454 L 40.5 453 Z " /><path fill="currentColor" stroke="currentColor" stroke-width="1" opacity="0.7098039215686275" d="M 34.5 455 L 32.5 458 L 34.5 455 Z " /><path fill="currentColor" stroke="currentColor" stroke-width="1" opacity="0.7098039215686275" d="M 477.5 455 L 479.5 458 L 477.5 455 Z " /><path fill="currentColor" stroke="currentColor" stroke-width="1" opacity="0.7098039215686275" d="M 30.5 459 L 29.5 461 L 30.5 459 Z " /><path fill="currentColor" stroke="currentColor" stroke-width="1" opacity="0.7098039215686275" d="M 481.5 459 L 482.5 461 L 481.5 459 Z " /><path fill="currentColor" stroke="currentColor" stroke-width="1" opacity="0.7098039215686275" d="M 30.5 479 L 32.5 482 L 30.5 479 Z " /><path fill="currentColor" stroke="currentColor" stroke-width="1" opacity="0.7098039215686275" d="M 481.5 479 L 479.5 482 L 481.5 479 Z " /><path fill="currentColor" stroke="currentColor" stroke-width="1" opacity="0" d="M 0 0 L 512 0 L 512 512 L 0 512 L 0 0 Z M 362 34 L 344 39 L 329 49 L 90 288 Q 84 294 81 305 L 79 333 L 78 334 L 78 344 L 77 345 L 77 355 L 76 356 L 76 366 L 75 367 Q 73 383 80 391 Q 85 398 96 401 L 114 401 L 115 400 L 157 397 L 158 396 L 168 396 Q 180 394 188 387 L 428 147 L 439 129 L 443 113 L 443 102 L 441 92 Q 437 79 430 71 L 406 46 L 400 42 Q 386 33 362 34 Z M 41 453 L 35 455 L 27 465 Q 25 475 30 480 L 38 485 L 475 485 L 480 482 L 485 475 Q 487 465 483 461 Q 480 454 472 453 L 41 453 Z " /><path fill="currentColor" stroke="currentColor" stroke-width="1" opacity="0" d="M 362.5 66 Q 375.9 64 382.5 69 L 404 89.5 L 409 97.5 L 411 107.5 Q 408.5 109 410 114.5 L 406 122.5 L 384.5 144 L 332 92.5 L 352.5 71 L 362.5 66 Z " /><path fill="currentColor" stroke="currentColor" stroke-width="1" opacity="0" d="M 308.5 115 L 361 167.5 L 166.5 362 L 159.5 364 L 149.5 364 L 148.5 365 L 138.5 365 L 137.5 366 L 127.5 366 L 126.5 367 L 108 368 L 113 310.5 L 308.5 115 Z " /><path fill="currentColor" stroke="currentColor" stroke-width="1" opacity="0.7098039215686275" d="M 368.5 34 L 369.5 35 L 379.5 35 L 387.5 37 L 400.5 43 L 425 65.5 Q 433 73.5 438 84.5 L 442 98.5 L 442 116.5 L 436 134.5 L 430 143.5 L 185.5 388 Q 179.1 393.1 169.5 395 L 141.5 397 L 140.5 398 L 130.5 398 L 129.5 399 L 119.5 399 L 118.5 400 L 108.5 400 L 107.5 401 L 97.5 401 Q 87.8 398.7 82 392.5 Q 75 385.5 75 371.5 L 77 360.5 L 81 307.5 L 83 299.5 L 89 289.5 L 331.5 47 L 347.5 38 L 358.5 35 L 367.5 35 L 368.5 34 Z M 366 65 Q 354 67 348 75 L 344 80 L 341 81 L 341 83 L 331 93 L 385 145 L 405 125 Q 410 120 411 112 L 411 103 L 406 92 L 382 68 L 373 65 L 366 65 Z M 308 115 L 114 309 L 112 312 L 108 365 L 107 369 L 112 368 L 122 368 L 123 367 L 164 364 L 168 362 L 361 169 L 361 167 L 310 115 L 308 115 Z " /><path fill="currentColor" stroke="currentColor" stroke-width="1" opacity="0.7098039215686275" d="M 38.5 454 L 473.5 454 L 481 458 L 485 466.5 L 485 472.5 Q 483.2 479.7 477.5 483 L 472.5 485 L 39.5 485 Q 32.3 483.2 29 477.5 Q 26.1 473.9 27 466.5 L 31 458 L 38.5 454 Z " /></svg>





