<svg viewBox="0 0 512 512" version="1.1" xmlns="http://www.w3.org/2000/svg" desc="Created with imagetracer.js version 1.2.6" ><path fill="currentColor" stroke="currentColor" stroke-width="1" opacity="0.7098039215686275" d="M 239.5 93 L 246 93.5 L 239.5 94 L 239.5 93 Z " /><path fill="currentColor" stroke="currentColor" stroke-width="1" opacity="0.7098039215686275" d="M 266.5 93 L 273 93.5 L 266.5 94 L 266.5 93 Z " /><path fill="currentColor" stroke="currentColor" stroke-width="1" opacity="0.7098039215686275" d="M 229.5 94 L 234 94.5 L 229.5 95 L 229.5 94 Z " /><path fill="currentColor" stroke="currentColor" stroke-width="1" opacity="0.7098039215686275" d="M 278.5 94 L 283 94.5 L 278.5 95 L 278.5 94 Z " /><path fill="currentColor" stroke="currentColor" stroke-width="1" opacity="0.7098039215686275" d="M 223.5 95 L 226 95.5 L 223.5 96 L 223.5 95 Z " /><path fill="currentColor" stroke="currentColor" stroke-width="1" opacity="0.7098039215686275" d="M 286.5 95 L 289 95.5 L 286.5 96 L 286.5 95 Z " /><path fill="currentColor" stroke="currentColor" stroke-width="1" opacity="0.7098039215686275" d="M 217.5 96 L 220 96.5 L 217.5 97 L 217.5 96 Z " /><path fill="currentColor" stroke="currentColor" stroke-width="1" opacity="0.7098039215686275" d="M 292.5 96 L 295 96.5 L 292.5 97 L 292.5 96 Z " /><path fill="currentColor" stroke="currentColor" stroke-width="1" opacity="0.7098039215686275" d="M 212.5 97 L 215 97.5 L 212.5 98 L 212.5 97 Z " /><path fill="currentColor" stroke="currentColor" stroke-width="1" opacity="0.7098039215686275" d="M 297.5 97 L 300 97.5 L 297.5 98 L 297.5 97 Z " /><path fill="currentColor" stroke="currentColor" stroke-width="1" opacity="0.7098039215686275" d="M 139.5 125 L 138.5 127 L 139.5 125 Z " /><path fill="currentColor" stroke="currentColor" stroke-width="1" opacity="0.7098039215686275" d="M 372.5 125 L 373.5 127 L 372.5 125 Z " /><path fill="currentColor" stroke="currentColor" stroke-width="1" opacity="0.7098039215686275" d="M 246.5 126 L 266 126.5 L 246.5 127 L 246.5 126 Z " /><path fill="currentColor" stroke="currentColor" stroke-width="1" opacity="0.7098039215686275" d="M 235.5 127 L 240 127.5 L 235.5 128 L 235.5 127 Z " /><path fill="currentColor" stroke="currentColor" stroke-width="1" opacity="0.7098039215686275" d="M 272.5 127 L 276 127.5 L 272.5 128 L 272.5 127 Z " /><path fill="currentColor" stroke="currentColor" stroke-width="1" opacity="0.7098039215686275" d="M 229.5 128 L 232 128.5 L 229.5 129 L 229.5 128 Z " /><path fill="currentColor" stroke="currentColor" stroke-width="1" opacity="0.7098039215686275" d="M 280.5 128 L 284 128.5 L 280.5 129 L 280.5 128 Z " /><path fill="currentColor" stroke="currentColor" stroke-width="1" opacity="0.7098039215686275" d="M 132.5 129 L 131.5 131 L 132.5 129 Z " /><path fill="currentColor" stroke="currentColor" stroke-width="1" opacity="0.7098039215686275" d="M 223.5 129 L 226 129.5 L 223.5 130 L 223.5 129 Z " /><path fill="currentColor" stroke="currentColor" stroke-width="1" opacity="0.7098039215686275" d="M 286.5 129 L 289 129.5 L 286.5 130 L 286.5 129 Z " /><path fill="currentColor" stroke="currentColor" stroke-width="1" opacity="0.7098039215686275" d="M 379.5 129 L 380.5 131 L 379.5 129 Z " /><path fill="currentColor" stroke="currentColor" stroke-width="1" opacity="0.7098039215686275" d="M 291.5 130 L 294 130.5 L 291.5 131 L 291.5 130 Z " /><path fill="currentColor" stroke="currentColor" stroke-width="1" opacity="0.7098039215686275" d="M 384.5 132 L 385.5 134 L 384.5 132 Z " /><path fill="currentColor" stroke="currentColor" stroke-width="1" opacity="0.7098039215686275" d="M 122.5 135 L 121.5 137 L 122.5 135 Z " /><path fill="currentColor" stroke="currentColor" stroke-width="1" opacity="0.7098039215686275" d="M 389.5 135 L 390.5 137 L 389.5 135 Z " /><path fill="currentColor" stroke="currentColor" stroke-width="1" opacity="0.7098039215686275" d="M 119.5 137 L 118.5 139 L 119.5 137 Z " /><path fill="currentColor" stroke="currentColor" stroke-width="1" opacity="0.7098039215686275" d="M 392.5 137 L 393.5 139 L 392.5 137 Z " /><path fill="currentColor" stroke="currentColor" stroke-width="1" opacity="0.7098039215686275" d="M 116.5 139 L 115.5 141 L 116.5 139 Z " /><path fill="currentColor" stroke="currentColor" stroke-width="1" opacity="0.7098039215686275" d="M 113.5 141 L 112.5 143 L 113.5 141 Z " /><path fill="currentColor" stroke="currentColor" stroke-width="1" opacity="0.7098039215686275" d="M 398.5 141 L 399.5 143 L 398.5 141 Z " /><path fill="currentColor" stroke="currentColor" stroke-width="1" opacity="0.7098039215686275" d="M 110.5 143 L 109.5 145 L 110.5 143 Z " /><path fill="currentColor" stroke="currentColor" stroke-width="1" opacity="0.7098039215686275" d="M 401.5 143 L 402.5 145 L 401.5 143 Z " /><path fill="currentColor" stroke="currentColor" stroke-width="1" opacity="0.7098039215686275" d="M 107.5 145 L 106.5 147 L 107.5 145 Z " /><path fill="currentColor" stroke="currentColor" stroke-width="1" opacity="0.7098039215686275" d="M 404.5 145 L 405.5 147 L 404.5 145 Z " /><path fill="currentColor" stroke="currentColor" stroke-width="1" opacity="0.7098039215686275" d="M 407.5 147 L 409.5 150 L 407.5 147 Z " /><path fill="currentColor" stroke="currentColor" stroke-width="1" opacity="0.7098039215686275" d="M 103.5 148 L 102.5 150 L 103.5 148 Z " /><path fill="currentColor" stroke="currentColor" stroke-width="1" opacity="0.7098039215686275" d="M 100.5 150 L 99.5 152 L 100.5 150 Z " /><path fill="currentColor" stroke="currentColor" stroke-width="1" opacity="0.7098039215686275" d="M 411.5 150 L 412.5 152 L 411.5 150 Z " /><path fill="currentColor" stroke="currentColor" stroke-width="1" opacity="0.7098039215686275" d="M 96.5 153 L 95.5 155 L 96.5 153 Z " /><path fill="currentColor" stroke="currentColor" stroke-width="1" opacity="0.7098039215686275" d="M 415.5 153 L 416.5 155 L 415.5 153 Z " /><path fill="currentColor" stroke="currentColor" stroke-width="1" opacity="0.7098039215686275" d="M 156.5 154 L 155.5 156 L 153.5 157 L 154.5 155 L 156.5 154 Z " /><path fill="currentColor" stroke="currentColor" stroke-width="1" opacity="0.7098039215686275" d="M 355.5 154 L 356.5 156 L 355.5 154 Z " /><path fill="currentColor" stroke="currentColor" stroke-width="1" opacity="0.7098039215686275" d="M 243.5 155 L 248 155.5 L 243.5 156 L 243.5 155 Z " /><path fill="currentColor" stroke="currentColor" stroke-width="1" opacity="0.7098039215686275" d="M 264.5 155 L 269 155.5 L 264.5 156 L 264.5 155 Z " /><path fill="currentColor" stroke="currentColor" stroke-width="1" opacity="0.7098039215686275" d="M 92.5 156 L 91.5 158 L 92.5 156 Z " /><path fill="currentColor" stroke="currentColor" stroke-width="1" opacity="0.7098039215686275" d="M 419.5 156 L 421.5 159 L 419.5 156 Z " /><path fill="currentColor" stroke="currentColor" stroke-width="1" opacity="0.7098039215686275" d="M 362.5 158 L 363.5 160 L 362.5 158 Z " /><path fill="currentColor" stroke="currentColor" stroke-width="1" opacity="0.7098039215686275" d="M 88.5 159 L 86.5 162 L 88.5 159 Z " /><path fill="currentColor" stroke="currentColor" stroke-width="1" opacity="0.7098039215686275" d="M 423.5 159 L 425.5 162 L 423.5 159 Z " /><path fill="currentColor" stroke="currentColor" stroke-width="1" opacity="0.7098039215686275" d="M 144.5 161 L 143.5 163 L 144.5 161 Z " /><path fill="currentColor" stroke="currentColor" stroke-width="1" opacity="0.7098039215686275" d="M 367.5 161 L 368.5 163 L 367.5 161 Z " /><path fill="currentColor" stroke="currentColor" stroke-width="1" opacity="0.7098039215686275" d="M 83.5 163 L 81.5 166 L 83.5 163 Z " /><path fill="currentColor" stroke="currentColor" stroke-width="1" opacity="0.7098039215686275" d="M 428.5 163 L 430.5 166 L 428.5 163 Z " /><path fill="currentColor" stroke="currentColor" stroke-width="1" opacity="0.7098039215686275" d="M 139.5 164 L 138.5 166 L 139.5 164 Z " /><path fill="currentColor" stroke="currentColor" stroke-width="1" opacity="0.7098039215686275" d="M 372.5 164 L 373.5 166 L 372.5 164 Z " /><path fill="currentColor" stroke="currentColor" stroke-width="1" opacity="0.7098039215686275" d="M 301.5 165 L 305 167.5 L 303.5 167 L 301.5 165 Z " /><path fill="currentColor" stroke="currentColor" stroke-width="1" opacity="0.7098039215686275" d="M 136.5 166 L 135.5 168 L 136.5 166 Z " /><path fill="currentColor" stroke="currentColor" stroke-width="1" opacity="0.7098039215686275" d="M 208.5 166 L 207.5 168 L 208.5 166 Z " /><path fill="currentColor" stroke="currentColor" stroke-width="1" opacity="0.7098039215686275" d="M 375.5 166 L 376.5 168 L 375.5 166 Z " /><path fill="currentColor" stroke="currentColor" stroke-width="1" opacity="0.7098039215686275" d="M 77.5 168 L 74.5 172 L 77.5 168 Z " /><path fill="currentColor" stroke="currentColor" stroke-width="1" opacity="0.7098039215686275" d="M 133.5 168 L 132.5 170 L 133.5 168 Z " /><path fill="currentColor" stroke="currentColor" stroke-width="1" opacity="0.7098039215686275" d="M 378.5 168 L 379.5 170 L 378.5 168 Z " /><path fill="currentColor" stroke="currentColor" stroke-width="1" opacity="0.7098039215686275" d="M 434.5 168 L 437.5 172 L 434.5 168 Z " /><path fill="currentColor" stroke="currentColor" stroke-width="1" opacity="0.7098039215686275" d="M 203.5 169 L 202.5 171 L 203.5 169 Z " /><path fill="currentColor" stroke="currentColor" stroke-width="1" opacity="0.7098039215686275" d="M 308.5 169 L 309.5 171 L 308.5 169 Z " /><path fill="currentColor" stroke="currentColor" stroke-width="1" opacity="0.7098039215686275" d="M 130.5 170 L 129.5 172 L 130.5 170 Z " /><path fill="currentColor" stroke="currentColor" stroke-width="1" opacity="0.7098039215686275" d="M 381.5 170 L 382.5 172 L 381.5 170 Z " /><path fill="currentColor" stroke="currentColor" stroke-width="1" opacity="0.7098039215686275" d="M 127.5 172 L 126.5 174 L 127.5 172 Z " /><path fill="currentColor" stroke="currentColor" stroke-width="1" opacity="0.7098039215686275" d="M 384.5 172 L 385.5 174 L 384.5 172 Z " /><path fill="currentColor" stroke="currentColor" stroke-width="1" opacity="0.7098039215686275" d="M 71.5 173 L 66.5 179 L 71.5 173 Z " /><path fill="currentColor" stroke="currentColor" stroke-width="1" opacity="0.7098039215686275" d="M 197.5 173 L 196.5 175 L 197.5 173 Z " /><path fill="currentColor" stroke="currentColor" stroke-width="1" opacity="0.7098039215686275" d="M 314.5 173 L 315.5 175 L 314.5 173 Z " /><path fill="currentColor" stroke="currentColor" stroke-width="1" opacity="0.7098039215686275" d="M 440.5 173 L 445.5 179 L 440.5 173 Z " /><path fill="currentColor" stroke="currentColor" stroke-width="1" opacity="0.7098039215686275" d="M 124.5 174 L 122.5 177 L 124.5 174 Z " /><path fill="currentColor" stroke="currentColor" stroke-width="1" opacity="0.7098039215686275" d="M 194.5 175 L 192.5 178 L 194.5 175 Z " /><path fill="currentColor" stroke="currentColor" stroke-width="1" opacity="0.7098039215686275" d="M 388.5 175 L 389.5 177 L 388.5 175 Z " /><path fill="currentColor" stroke="currentColor" stroke-width="1" opacity="0.7098039215686275" d="M 318.5 176 L 319.5 178 L 318.5 176 Z " /><path fill="currentColor" stroke="currentColor" stroke-width="1" opacity="0.7098039215686275" d="M 120.5 177 L 119.5 179 L 120.5 177 Z " /><path fill="currentColor" stroke="currentColor" stroke-width="1" opacity="0.7098039215686275" d="M 391.5 177 L 393.5 180 L 391.5 177 Z " /><path fill="currentColor" stroke="currentColor" stroke-width="1" opacity="0.7098039215686275" d="M 116.5 180 L 115.5 182 L 116.5 180 Z " /><path fill="currentColor" stroke="currentColor" stroke-width="1" opacity="0.7098039215686275" d="M 188.5 180 L 180.5 189 L 188.5 180 Z " /><path fill="currentColor" stroke="currentColor" stroke-width="1" opacity="0.7098039215686275" d="M 323.5 180 L 331.5 189 L 323.5 180 Z " /><path fill="currentColor" stroke="currentColor" stroke-width="1" opacity="0.7098039215686275" d="M 395.5 180 L 397.5 183 L 395.5 180 Z " /><path fill="currentColor" stroke="currentColor" stroke-width="1" opacity="0.7098039215686275" d="M 62.5 181 L 52.5 192 L 62.5 181 Z " /><path fill="currentColor" stroke="currentColor" stroke-width="1" opacity="0.7098039215686275" d="M 449.5 181 L 459.5 192 L 449.5 181 Z " /><path fill="currentColor" stroke="currentColor" stroke-width="1" opacity="0.7098039215686275" d="M 112.5 183 L 110.5 186 L 112.5 183 Z " /><path fill="currentColor" stroke="currentColor" stroke-width="1" opacity="0.7098039215686275" d="M 399.5 183 L 401.5 186 L 399.5 183 Z " /><path fill="currentColor" stroke="currentColor" stroke-width="1" opacity="0.7098039215686275" d="M 107.5 187 L 106.5 189 L 107.5 187 Z " /><path fill="currentColor" stroke="currentColor" stroke-width="1" opacity="0.7098039215686275" d="M 404.5 187 L 406.5 190 L 404.5 187 Z " /><path fill="currentColor" stroke="currentColor" stroke-width="1" opacity="0.7098039215686275" d="M 249.5 188 L 263 188.5 L 249.5 189 L 249.5 188 Z " /><path fill="currentColor" stroke="currentColor" stroke-width="1" opacity="0.7098039215686275" d="M 242.5 189 L 245 189.5 L 242.5 190 L 242.5 189 Z " /><path fill="currentColor" stroke="currentColor" stroke-width="1" opacity="0.7098039215686275" d="M 267.5 189 L 270 189.5 L 267.5 190 L 267.5 189 Z " /><path fill="currentColor" stroke="currentColor" stroke-width="1" opacity="0.7098039215686275" d="M 102.5 191 L 100.5 194 L 102.5 191 Z " /><path fill="currentColor" stroke="currentColor" stroke-width="1" opacity="0.7098039215686275" d="M 409.5 191 L 412.5 195 L 409.5 191 Z " /><path fill="currentColor" stroke="currentColor" stroke-width="1" opacity="0.7098039215686275" d="M 177.5 192 L 175.5 195 L 177.5 192 Z " /><path fill="currentColor" stroke="currentColor" stroke-width="1" opacity="0.7098039215686275" d="M 334.5 192 L 335.5 194 L 334.5 192 Z " /><path fill="currentColor" stroke="currentColor" stroke-width="1" opacity="0.7098039215686275" d="M 97.5 195 L 93.5 200 L 97.5 195 Z " /><path fill="currentColor" stroke="currentColor" stroke-width="1" opacity="0.7098039215686275" d="M 174.5 196 L 173.5 198 L 174.5 196 Z " /><path fill="currentColor" stroke="currentColor" stroke-width="1" opacity="0.7098039215686275" d="M 223.5 196 L 222.5 198 L 223.5 196 Z " /><path fill="currentColor" stroke="currentColor" stroke-width="1" opacity="0.7098039215686275" d="M 337.5 196 L 338.5 198 L 337.5 196 Z " /><path fill="currentColor" stroke="currentColor" stroke-width="1" opacity="0.7098039215686275" d="M 415.5 196 L 418.5 200 L 415.5 196 Z " /><path fill="currentColor" stroke="currentColor" stroke-width="1" opacity="0.7098039215686275" d="M 218.5 199 L 217.5 201 L 218.5 199 Z " /><path fill="currentColor" stroke="currentColor" stroke-width="1" opacity="0.7098039215686275" d="M 293.5 199 L 294.5 201 L 293.5 199 Z " /><path fill="currentColor" stroke="currentColor" stroke-width="1" opacity="0.7098039215686275" d="M 89.5 202 L 83.5 209 L 89.5 202 Z " /><path fill="currentColor" stroke="currentColor" stroke-width="1" opacity="0.7098039215686275" d="M 170.5 202 L 169.5 204 L 170.5 202 Z " /><path fill="currentColor" stroke="currentColor" stroke-width="1" opacity="0.7098039215686275" d="M 214.5 202 L 212.5 205 L 214.5 202 Z " /><path fill="currentColor" stroke="currentColor" stroke-width="1" opacity="0.7098039215686275" d="M 297.5 202 L 298.5 204 L 297.5 202 Z " /><path fill="currentColor" stroke="currentColor" stroke-width="1" opacity="0.7098039215686275" d="M 341.5 202 L 342.5 204 L 341.5 202 Z " /><path fill="currentColor" stroke="currentColor" stroke-width="1" opacity="0.7098039215686275" d="M 423.5 203 L 429.5 210 L 423.5 203 Z " /><path fill="currentColor" stroke="currentColor" stroke-width="1" opacity="0.7098039215686275" d="M 39.5 204 L 30.5 214 L 39.5 204 Z " /><path fill="currentColor" stroke="currentColor" stroke-width="1" opacity="0.7098039215686275" d="M 472.5 204 L 481.5 214 L 472.5 204 Z " /><path fill="currentColor" stroke="currentColor" stroke-width="1" opacity="0.7098039215686275" d="M 167.5 207 L 167 208.5 L 165.5 211 L 166 209.5 L 167.5 207 Z " /><path fill="currentColor" stroke="currentColor" stroke-width="1" opacity="0.7098039215686275" d="M 344.5 207 L 347 210.5 L 345 209.5 L 344.5 207 Z " /><path fill="currentColor" stroke="currentColor" stroke-width="1" opacity="0.7098039215686275" d="M 204.5 212 L 202.5 215 L 204.5 212 Z " /><path fill="currentColor" stroke="currentColor" stroke-width="1" opacity="0.7098039215686275" d="M 307.5 212 L 309.5 215 L 307.5 212 Z " /><path fill="currentColor" stroke="currentColor" stroke-width="1" opacity="0.7098039215686275" d="M 76.5 214 L 61.5 230 L 76.5 214 Z " /><path fill="currentColor" stroke="currentColor" stroke-width="1" opacity="0.7098039215686275" d="M 437.5 216 L 448.5 228 L 437.5 216 Z " /><path fill="currentColor" stroke="currentColor" stroke-width="1" opacity="0.7098039215686275" d="M 200.5 217 L 199.5 219 L 200.5 217 Z " /><path fill="currentColor" stroke="currentColor" stroke-width="1" opacity="0.7098039215686275" d="M 311.5 217 L 312.5 219 L 311.5 217 Z " /><path fill="currentColor" stroke="currentColor" stroke-width="1" opacity="0.7098039215686275" d="M 485.5 218 L 490.5 224 L 485.5 218 Z " /><path fill="currentColor" stroke="currentColor" stroke-width="1" opacity="0.7098039215686275" d="M 25.5 219 L 22.5 223 L 25.5 219 Z " /><path fill="currentColor" stroke="currentColor" stroke-width="1" opacity="0.7098039215686275" d="M 197.5 222 L 196.5 224 L 197.5 222 Z " /><path fill="currentColor" stroke="currentColor" stroke-width="1" opacity="0.7098039215686275" d="M 314.5 222 L 315.5 224 L 314.5 222 Z " /><path fill="currentColor" stroke="currentColor" stroke-width="1" opacity="0.7098039215686275" d="M 19.5 226 L 15.5 231 L 19.5 226 Z " /><path fill="currentColor" stroke="currentColor" stroke-width="1" opacity="0.7098039215686275" d="M 492.5 226 L 496.5 231 L 492.5 226 Z " /><path fill="currentColor" stroke="currentColor" stroke-width="1" opacity="0.7098039215686275" d="M 13.5 233 L 11.5 236 L 13.5 233 Z " /><path fill="currentColor" stroke="currentColor" stroke-width="1" opacity="0.7098039215686275" d="M 498.5 233 L 500.5 236 L 498.5 233 Z " /><path fill="currentColor" stroke="currentColor" stroke-width="1" opacity="0.7098039215686275" d="M 455.5 235 L 462.5 243 L 455.5 235 Z " /><path fill="currentColor" stroke="currentColor" stroke-width="1" opacity="0.7098039215686275" d="M 55.5 236 L 49.5 243 L 55.5 236 Z " /><path fill="currentColor" stroke="currentColor" stroke-width="1" opacity="0.7098039215686275" d="M 9.5 238 L 7.5 241 L 9.5 238 Z " /><path fill="currentColor" stroke="currentColor" stroke-width="1" opacity="0.7098039215686275" d="M 502.5 238 L 504.5 241 L 502.5 238 Z " /><path fill="currentColor" stroke="currentColor" stroke-width="1" opacity="0.7098039215686275" d="M 189.5 242 L 190 244.5 L 189 244.5 L 189.5 242 Z " /><path fill="currentColor" stroke="currentColor" stroke-width="1" opacity="0.7098039215686275" d="M 322.5 242 L 323 244.5 L 322 244.5 L 322.5 242 Z " /><path fill="currentColor" stroke="currentColor" stroke-width="1" opacity="0.7098039215686275" d="M 5.5 243 L 4.5 245 L 5.5 243 Z " /><path fill="currentColor" stroke="currentColor" stroke-width="1" opacity="0.7098039215686275" d="M 155.5 243 L 156 246.5 L 155 246.5 L 155.5 243 Z " /><path fill="currentColor" stroke="currentColor" stroke-width="1" opacity="0.7098039215686275" d="M 356.5 243 L 357 247.5 L 356 247.5 L 356.5 243 Z " /><path fill="currentColor" stroke="currentColor" stroke-width="1" opacity="0.7098039215686275" d="M 506.5 243 L 507.5 245 L 506.5 243 Z " /><path fill="currentColor" stroke="currentColor" stroke-width="1" opacity="0.7098039215686275" d="M 46.5 246 L 42.5 251 L 46.5 246 Z " /><path fill="currentColor" stroke="currentColor" stroke-width="1" opacity="0.7098039215686275" d="M 465.5 246 L 468.5 250 L 465.5 246 Z " /><path fill="currentColor" stroke="currentColor" stroke-width="1" opacity="0.7098039215686275" d="M 188.5 249 L 189 262.5 L 188 262.5 L 188.5 249 Z " /><path fill="currentColor" stroke="currentColor" stroke-width="1" opacity="0.7098039215686275" d="M 323.5 249 L 324 262.5 L 323 262.5 L 323.5 249 Z " /><path fill="currentColor" stroke="currentColor" stroke-width="1" opacity="0.7098039215686275" d="M 0.5 252 L 1 254.5 L 0 254.5 L 0.5 252 Z " /><path fill="currentColor" stroke="currentColor" stroke-width="1" opacity="0.7098039215686275" d="M 511.5 252 L 512 254.5 L 511 254.5 L 511.5 252 Z " /><path fill="currentColor" stroke="currentColor" stroke-width="1" opacity="0.7098039215686275" d="M 40.5 253 L 39 255.5 L 41 258.5 L 38 256.5 L 40.5 253 Z " /><path fill="currentColor" stroke="currentColor" stroke-width="1" opacity="0.7098039215686275" d="M 471.5 253 L 474 256.5 L 471 258.5 L 473 255.5 L 471.5 253 Z " /><path fill="currentColor" stroke="currentColor" stroke-width="1" opacity="0.7098039215686275" d="M 0.5 257 L 1 259.5 L 0 259.5 L 0.5 257 Z " /><path fill="currentColor" stroke="currentColor" stroke-width="1" opacity="0.7098039215686275" d="M 511.5 257 L 512 259.5 L 511 259.5 L 511.5 257 Z " /><path fill="currentColor" stroke="currentColor" stroke-width="1" opacity="0.7098039215686275" d="M 469.5 261 L 465.5 266 L 469.5 261 Z " /><path fill="currentColor" stroke="currentColor" stroke-width="1" opacity="0.7098039215686275" d="M 43.5 262 L 46.5 266 L 43.5 262 Z " /><path fill="currentColor" stroke="currentColor" stroke-width="1" opacity="0.7098039215686275" d="M 155.5 264 L 156 268.5 L 155 268.5 L 155.5 264 Z " /><path fill="currentColor" stroke="currentColor" stroke-width="1" opacity="0.7098039215686275" d="M 356.5 264 L 357 268.5 L 356 268.5 L 356.5 264 Z " /><path fill="currentColor" stroke="currentColor" stroke-width="1" opacity="0.7098039215686275" d="M 4.5 267 L 5.5 269 L 4.5 267 Z " /><path fill="currentColor" stroke="currentColor" stroke-width="1" opacity="0.7098039215686275" d="M 189.5 267 L 190 269.5 L 189 269.5 L 189.5 267 Z " /><path fill="currentColor" stroke="currentColor" stroke-width="1" opacity="0.7098039215686275" d="M 322.5 267 L 323 269.5 L 322 269.5 L 322.5 267 Z " /><path fill="currentColor" stroke="currentColor" stroke-width="1" opacity="0.7098039215686275" d="M 507.5 267 L 506.5 269 L 507.5 267 Z " /><path fill="currentColor" stroke="currentColor" stroke-width="1" opacity="0.7098039215686275" d="M 49.5 269 L 56.5 277 L 49.5 269 Z " /><path fill="currentColor" stroke="currentColor" stroke-width="1" opacity="0.7098039215686275" d="M 462.5 269 L 456.5 276 L 462.5 269 Z " /><path fill="currentColor" stroke="currentColor" stroke-width="1" opacity="0.7098039215686275" d="M 7.5 271 L 9.5 274 L 7.5 271 Z " /><path fill="currentColor" stroke="currentColor" stroke-width="1" opacity="0.7098039215686275" d="M 504.5 271 L 502.5 274 L 504.5 271 Z " /><path fill="currentColor" stroke="currentColor" stroke-width="1" opacity="0.7098039215686275" d="M 11.5 276 L 13.5 279 L 11.5 276 Z " /><path fill="currentColor" stroke="currentColor" stroke-width="1" opacity="0.7098039215686275" d="M 500.5 276 L 498.5 279 L 500.5 276 Z " /><path fill="currentColor" stroke="currentColor" stroke-width="1" opacity="0.7098039215686275" d="M 15.5 281 L 19.5 286 L 15.5 281 Z " /><path fill="currentColor" stroke="currentColor" stroke-width="1" opacity="0.7098039215686275" d="M 496.5 281 L 492.5 286 L 496.5 281 Z " /><path fill="currentColor" stroke="currentColor" stroke-width="1" opacity="0.7098039215686275" d="M 450.5 282 L 435.5 298 L 450.5 282 Z " /><path fill="currentColor" stroke="currentColor" stroke-width="1" opacity="0.7098039215686275" d="M 64.5 285 L 72.5 294 L 64.5 285 Z " /><path fill="currentColor" stroke="currentColor" stroke-width="1" opacity="0.7098039215686275" d="M 196.5 288 L 197.5 290 L 196.5 288 Z " /><path fill="currentColor" stroke="currentColor" stroke-width="1" opacity="0.7098039215686275" d="M 315.5 288 L 314.5 290 L 315.5 288 Z " /><path fill="currentColor" stroke="currentColor" stroke-width="1" opacity="0.7098039215686275" d="M 490.5 288 L 485.5 294 L 490.5 288 Z " /><path fill="currentColor" stroke="currentColor" stroke-width="1" opacity="0.7098039215686275" d="M 22.5 289 L 26.5 294 L 22.5 289 Z " /><path fill="currentColor" stroke="currentColor" stroke-width="1" opacity="0.7098039215686275" d="M 199.5 293 L 200.5 295 L 199.5 293 Z " /><path fill="currentColor" stroke="currentColor" stroke-width="1" opacity="0.7098039215686275" d="M 312.5 293 L 311.5 295 L 312.5 293 Z " /><path fill="currentColor" stroke="currentColor" stroke-width="1" opacity="0.7098039215686275" d="M 202.5 297 L 204.5 300 L 202.5 297 Z " /><path fill="currentColor" stroke="currentColor" stroke-width="1" opacity="0.7098039215686275" d="M 309.5 297 L 307.5 300 L 309.5 297 Z " /><path fill="currentColor" stroke="currentColor" stroke-width="1" opacity="0.7098039215686275" d="M 30.5 298 L 39.5 308 L 30.5 298 Z " /><path fill="currentColor" stroke="currentColor" stroke-width="1" opacity="0.7098039215686275" d="M 481.5 298 L 472.5 308 L 481.5 298 Z " /><path fill="currentColor" stroke="currentColor" stroke-width="1" opacity="0.7098039215686275" d="M 165.5 301 L 168 304.5 L 166 303.5 L 165.5 301 Z " /><path fill="currentColor" stroke="currentColor" stroke-width="1" opacity="0.7098039215686275" d="M 346.5 301 L 346 302.5 L 344.5 305 L 345 303.5 L 346.5 301 Z " /><path fill="currentColor" stroke="currentColor" stroke-width="1" opacity="0.7098039215686275" d="M 82.5 302 L 87.5 308 L 82.5 302 Z " /><path fill="currentColor" stroke="currentColor" stroke-width="1" opacity="0.7098039215686275" d="M 428.5 303 L 422.5 310 L 428.5 303 Z " /><path fill="currentColor" stroke="currentColor" stroke-width="1" opacity="0.7098039215686275" d="M 212.5 307 L 214.5 310 L 212.5 307 Z " /><path fill="currentColor" stroke="currentColor" stroke-width="1" opacity="0.7098039215686275" d="M 299.5 307 L 297.5 310 L 299.5 307 Z " /><path fill="currentColor" stroke="currentColor" stroke-width="1" opacity="0.7098039215686275" d="M 169.5 308 L 170.5 310 L 169.5 308 Z " /><path fill="currentColor" stroke="currentColor" stroke-width="1" opacity="0.7098039215686275" d="M 342.5 308 L 341.5 310 L 342.5 308 Z " /><path fill="currentColor" stroke="currentColor" stroke-width="1" opacity="0.7098039215686275" d="M 92.5 311 L 96.5 316 L 92.5 311 Z " /><path fill="currentColor" stroke="currentColor" stroke-width="1" opacity="0.7098039215686275" d="M 217.5 311 L 218.5 313 L 217.5 311 Z " /><path fill="currentColor" stroke="currentColor" stroke-width="1" opacity="0.7098039215686275" d="M 294.5 311 L 293.5 313 L 294.5 311 Z " /><path fill="currentColor" stroke="currentColor" stroke-width="1" opacity="0.7098039215686275" d="M 418.5 312 L 415.5 316 L 418.5 312 Z " /><path fill="currentColor" stroke="currentColor" stroke-width="1" opacity="0.7098039215686275" d="M 173.5 314 L 174.5 316 L 173.5 314 Z " /><path fill="currentColor" stroke="currentColor" stroke-width="1" opacity="0.7098039215686275" d="M 222.5 314 L 223.5 316 L 222.5 314 Z " /><path fill="currentColor" stroke="currentColor" stroke-width="1" opacity="0.7098039215686275" d="M 289.5 314 L 288.5 316 L 289.5 314 Z " /><path fill="currentColor" stroke="currentColor" stroke-width="1" opacity="0.7098039215686275" d="M 338.5 314 L 337.5 316 L 338.5 314 Z " /><path fill="currentColor" stroke="currentColor" stroke-width="1" opacity="0.7098039215686275" d="M 99.5 317 L 102.5 321 L 99.5 317 Z " /><path fill="currentColor" stroke="currentColor" stroke-width="1" opacity="0.7098039215686275" d="M 227.5 317 L 231 318.5 L 229.5 319 L 227.5 317 Z " /><path fill="currentColor" stroke="currentColor" stroke-width="1" opacity="0.7098039215686275" d="M 176.5 318 L 177.5 320 L 176.5 318 Z " /><path fill="currentColor" stroke="currentColor" stroke-width="1" opacity="0.7098039215686275" d="M 335.5 318 L 333.5 321 L 335.5 318 Z " /><path fill="currentColor" stroke="currentColor" stroke-width="1" opacity="0.7098039215686275" d="M 411.5 318 L 409.5 321 L 411.5 318 Z " /><path fill="currentColor" stroke="currentColor" stroke-width="1" opacity="0.7098039215686275" d="M 51.5 319 L 62.5 331 L 51.5 319 Z " /><path fill="currentColor" stroke="currentColor" stroke-width="1" opacity="0.7098039215686275" d="M 459.5 320 L 450.5 330 L 459.5 320 Z " /><path fill="currentColor" stroke="currentColor" stroke-width="1" opacity="0.7098039215686275" d="M 105.5 322 L 107.5 325 L 105.5 322 Z " /><path fill="currentColor" stroke="currentColor" stroke-width="1" opacity="0.7098039215686275" d="M 242.5 322 L 245 322.5 L 242.5 323 L 242.5 322 Z " /><path fill="currentColor" stroke="currentColor" stroke-width="1" opacity="0.7098039215686275" d="M 267.5 322 L 270 322.5 L 267.5 323 L 267.5 322 Z " /><path fill="currentColor" stroke="currentColor" stroke-width="1" opacity="0.7098039215686275" d="M 406.5 322 L 404.5 325 L 406.5 322 Z " /><path fill="currentColor" stroke="currentColor" stroke-width="1" opacity="0.7098039215686275" d="M 180.5 323 L 187.5 331 L 180.5 323 Z " /><path fill="currentColor" stroke="currentColor" stroke-width="1" opacity="0.7098039215686275" d="M 249.5 323 L 263 323.5 L 249.5 324 L 249.5 323 Z " /><path fill="currentColor" stroke="currentColor" stroke-width="1" opacity="0.7098039215686275" d="M 331.5 323 L 323.5 332 L 331.5 323 Z " /><path fill="currentColor" stroke="currentColor" stroke-width="1" opacity="0.7098039215686275" d="M 110.5 326 L 112.5 329 L 110.5 326 Z " /><path fill="currentColor" stroke="currentColor" stroke-width="1" opacity="0.7098039215686275" d="M 401.5 326 L 399.5 329 L 401.5 326 Z " /><path fill="currentColor" stroke="currentColor" stroke-width="1" opacity="0.7098039215686275" d="M 114.5 329 L 116.5 332 L 114.5 329 Z " /><path fill="currentColor" stroke="currentColor" stroke-width="1" opacity="0.7098039215686275" d="M 396.5 330 L 395.5 332 L 396.5 330 Z " /><path fill="currentColor" stroke="currentColor" stroke-width="1" opacity="0.7098039215686275" d="M 118.5 332 L 119.5 334 L 118.5 332 Z " /><path fill="currentColor" stroke="currentColor" stroke-width="1" opacity="0.7098039215686275" d="M 66.5 333 L 70.5 338 L 66.5 333 Z " /><path fill="currentColor" stroke="currentColor" stroke-width="1" opacity="0.7098039215686275" d="M 191.5 333 L 193.5 336 L 191.5 333 Z " /><path fill="currentColor" stroke="currentColor" stroke-width="1" opacity="0.7098039215686275" d="M 392.5 333 L 391.5 335 L 392.5 333 Z " /><path fill="currentColor" stroke="currentColor" stroke-width="1" opacity="0.7098039215686275" d="M 445.5 333 L 440.5 339 L 445.5 333 Z " /><path fill="currentColor" stroke="currentColor" stroke-width="1" opacity="0.7098039215686275" d="M 319.5 334 L 318.5 336 L 319.5 334 Z " /><path fill="currentColor" stroke="currentColor" stroke-width="1" opacity="0.7098039215686275" d="M 122.5 335 L 123.5 337 L 122.5 335 Z " /><path fill="currentColor" stroke="currentColor" stroke-width="1" opacity="0.7098039215686275" d="M 389.5 335 L 388.5 337 L 389.5 335 Z " /><path fill="currentColor" stroke="currentColor" stroke-width="1" opacity="0.7098039215686275" d="M 196.5 337 L 197.5 339 L 196.5 337 Z " /><path fill="currentColor" stroke="currentColor" stroke-width="1" opacity="0.7098039215686275" d="M 315.5 337 L 314.5 339 L 315.5 337 Z " /><path fill="currentColor" stroke="currentColor" stroke-width="1" opacity="0.7098039215686275" d="M 385.5 338 L 384.5 340 L 385.5 338 Z " /><path fill="currentColor" stroke="currentColor" stroke-width="1" opacity="0.7098039215686275" d="M 74.5 340 L 77.5 344 L 74.5 340 Z " /><path fill="currentColor" stroke="currentColor" stroke-width="1" opacity="0.7098039215686275" d="M 129.5 340 L 130.5 342 L 129.5 340 Z " /><path fill="currentColor" stroke="currentColor" stroke-width="1" opacity="0.7098039215686275" d="M 382.5 340 L 381.5 342 L 382.5 340 Z " /><path fill="currentColor" stroke="currentColor" stroke-width="1" opacity="0.7098039215686275" d="M 437.5 340 L 434.5 344 L 437.5 340 Z " /><path fill="currentColor" stroke="currentColor" stroke-width="1" opacity="0.7098039215686275" d="M 202.5 341 L 203.5 343 L 202.5 341 Z " /><path fill="currentColor" stroke="currentColor" stroke-width="1" opacity="0.7098039215686275" d="M 309.5 341 L 308.5 343 L 309.5 341 Z " /><path fill="currentColor" stroke="currentColor" stroke-width="1" opacity="0.7098039215686275" d="M 132.5 342 L 133.5 344 L 132.5 342 Z " /><path fill="currentColor" stroke="currentColor" stroke-width="1" opacity="0.7098039215686275" d="M 379.5 342 L 378.5 344 L 379.5 342 Z " /><path fill="currentColor" stroke="currentColor" stroke-width="1" opacity="0.7098039215686275" d="M 135.5 344 L 136.5 346 L 135.5 344 Z " /><path fill="currentColor" stroke="currentColor" stroke-width="1" opacity="0.7098039215686275" d="M 207.5 344 L 211 346.5 L 209.5 346 L 207.5 344 Z " /><path fill="currentColor" stroke="currentColor" stroke-width="1" opacity="0.7098039215686275" d="M 304.5 344 L 303.5 346 L 301.5 347 L 302.5 345 L 304.5 344 Z " /><path fill="currentColor" stroke="currentColor" stroke-width="1" opacity="0.7098039215686275" d="M 376.5 344 L 375.5 346 L 376.5 344 Z " /><path fill="currentColor" stroke="currentColor" stroke-width="1" opacity="0.7098039215686275" d="M 431.5 345 L 428.5 349 L 431.5 345 Z " /><path fill="currentColor" stroke="currentColor" stroke-width="1" opacity="0.7098039215686275" d="M 81.5 346 L 83.5 349 L 81.5 346 Z " /><path fill="currentColor" stroke="currentColor" stroke-width="1" opacity="0.7098039215686275" d="M 373.5 346 L 372.5 348 L 373.5 346 Z " /><path fill="currentColor" stroke="currentColor" stroke-width="1" opacity="0.7098039215686275" d="M 143.5 349 L 144.5 351 L 143.5 349 Z " /><path fill="currentColor" stroke="currentColor" stroke-width="1" opacity="0.7098039215686275" d="M 86.5 350 L 88.5 353 L 86.5 350 Z " /><path fill="currentColor" stroke="currentColor" stroke-width="1" opacity="0.7098039215686275" d="M 425.5 350 L 423.5 353 L 425.5 350 Z " /><path fill="currentColor" stroke="currentColor" stroke-width="1" opacity="0.7098039215686275" d="M 148.5 352 L 149.5 354 L 148.5 352 Z " /><path fill="currentColor" stroke="currentColor" stroke-width="1" opacity="0.7098039215686275" d="M 90.5 353 L 92.5 356 L 90.5 353 Z " /><path fill="currentColor" stroke="currentColor" stroke-width="1" opacity="0.7098039215686275" d="M 421.5 353 L 419.5 356 L 421.5 353 Z " /><path fill="currentColor" stroke="currentColor" stroke-width="1" opacity="0.7098039215686275" d="M 155.5 356 L 156.5 358 L 155.5 356 Z " /><path fill="currentColor" stroke="currentColor" stroke-width="1" opacity="0.7098039215686275" d="M 243.5 356 L 248 356.5 L 243.5 357 L 243.5 356 Z " /><path fill="currentColor" stroke="currentColor" stroke-width="1" opacity="0.7098039215686275" d="M 264.5 356 L 269 356.5 L 264.5 357 L 264.5 356 Z " /><path fill="currentColor" stroke="currentColor" stroke-width="1" opacity="0.7098039215686275" d="M 95.5 357 L 96.5 359 L 95.5 357 Z " /><path fill="currentColor" stroke="currentColor" stroke-width="1" opacity="0.7098039215686275" d="M 416.5 357 L 415.5 359 L 416.5 357 Z " /><path fill="currentColor" stroke="currentColor" stroke-width="1" opacity="0.7098039215686275" d="M 99.5 360 L 100.5 362 L 99.5 360 Z " /><path fill="currentColor" stroke="currentColor" stroke-width="1" opacity="0.7098039215686275" d="M 412.5 360 L 411.5 362 L 412.5 360 Z " /><path fill="currentColor" stroke="currentColor" stroke-width="1" opacity="0.7098039215686275" d="M 102.5 362 L 103.5 364 L 102.5 362 Z " /><path fill="currentColor" stroke="currentColor" stroke-width="1" opacity="0.7098039215686275" d="M 409.5 362 L 407.5 365 L 409.5 362 Z " /><path fill="currentColor" stroke="currentColor" stroke-width="1" opacity="0.7098039215686275" d="M 106.5 365 L 107.5 367 L 106.5 365 Z " /><path fill="currentColor" stroke="currentColor" stroke-width="1" opacity="0.7098039215686275" d="M 405.5 365 L 404.5 367 L 405.5 365 Z " /><path fill="currentColor" stroke="currentColor" stroke-width="1" opacity="0.7098039215686275" d="M 109.5 367 L 110.5 369 L 109.5 367 Z " /><path fill="currentColor" stroke="currentColor" stroke-width="1" opacity="0.7098039215686275" d="M 402.5 367 L 401.5 369 L 402.5 367 Z " /><path fill="currentColor" stroke="currentColor" stroke-width="1" opacity="0.7098039215686275" d="M 112.5 369 L 113.5 371 L 112.5 369 Z " /><path fill="currentColor" stroke="currentColor" stroke-width="1" opacity="0.7098039215686275" d="M 399.5 369 L 398.5 371 L 399.5 369 Z " /><path fill="currentColor" stroke="currentColor" stroke-width="1" opacity="0.7098039215686275" d="M 115.5 371 L 116.5 373 L 115.5 371 Z " /><path fill="currentColor" stroke="currentColor" stroke-width="1" opacity="0.7098039215686275" d="M 396.5 371 L 395.5 373 L 396.5 371 Z " /><path fill="currentColor" stroke="currentColor" stroke-width="1" opacity="0.7098039215686275" d="M 118.5 373 L 119.5 375 L 118.5 373 Z " /><path fill="currentColor" stroke="currentColor" stroke-width="1" opacity="0.7098039215686275" d="M 393.5 373 L 392.5 375 L 393.5 373 Z " /><path fill="currentColor" stroke="currentColor" stroke-width="1" opacity="0.7098039215686275" d="M 121.5 375 L 122.5 377 L 121.5 375 Z " /><path fill="currentColor" stroke="currentColor" stroke-width="1" opacity="0.7098039215686275" d="M 390.5 375 L 389.5 377 L 390.5 375 Z " /><path fill="currentColor" stroke="currentColor" stroke-width="1" opacity="0.7098039215686275" d="M 126.5 378 L 127.5 380 L 126.5 378 Z " /><path fill="currentColor" stroke="currentColor" stroke-width="1" opacity="0.7098039215686275" d="M 385.5 378 L 384.5 380 L 385.5 378 Z " /><path fill="currentColor" stroke="currentColor" stroke-width="1" opacity="0.7098039215686275" d="M 131.5 381 L 132.5 383 L 131.5 381 Z " /><path fill="currentColor" stroke="currentColor" stroke-width="1" opacity="0.7098039215686275" d="M 218.5 381 L 221 381.5 L 218.5 382 L 218.5 381 Z " /><path fill="currentColor" stroke="currentColor" stroke-width="1" opacity="0.7098039215686275" d="M 291.5 381 L 294 381.5 L 291.5 382 L 291.5 381 Z " /><path fill="currentColor" stroke="currentColor" stroke-width="1" opacity="0.7098039215686275" d="M 380.5 381 L 379.5 383 L 380.5 381 Z " /><path fill="currentColor" stroke="currentColor" stroke-width="1" opacity="0.7098039215686275" d="M 223.5 382 L 226 382.5 L 223.5 383 L 223.5 382 Z " /><path fill="currentColor" stroke="currentColor" stroke-width="1" opacity="0.7098039215686275" d="M 286.5 382 L 289 382.5 L 286.5 383 L 286.5 382 Z " /><path fill="currentColor" stroke="currentColor" stroke-width="1" opacity="0.7098039215686275" d="M 229.5 383 L 232 383.5 L 229.5 384 L 229.5 383 Z " /><path fill="currentColor" stroke="currentColor" stroke-width="1" opacity="0.7098039215686275" d="M 280.5 383 L 284 383.5 L 280.5 384 L 280.5 383 Z " /><path fill="currentColor" stroke="currentColor" stroke-width="1" opacity="0.7098039215686275" d="M 236.5 384 L 240 384.5 L 236.5 385 L 236.5 384 Z " /><path fill="currentColor" stroke="currentColor" stroke-width="1" opacity="0.7098039215686275" d="M 272.5 384 L 276 384.5 L 272.5 385 L 272.5 384 Z " /><path fill="currentColor" stroke="currentColor" stroke-width="1" opacity="0.7098039215686275" d="M 138.5 385 L 139.5 387 L 138.5 385 Z " /><path fill="currentColor" stroke="currentColor" stroke-width="1" opacity="0.7098039215686275" d="M 246.5 385 L 266 385.5 L 246.5 386 L 246.5 385 Z " /><path fill="currentColor" stroke="currentColor" stroke-width="1" opacity="0.7098039215686275" d="M 373.5 385 L 372.5 387 L 373.5 385 Z " /><path fill="currentColor" stroke="currentColor" stroke-width="1" opacity="0.7098039215686275" d="M 212.5 414 L 215 414.5 L 212.5 415 L 212.5 414 Z " /><path fill="currentColor" stroke="currentColor" stroke-width="1" opacity="0.7098039215686275" d="M 297.5 414 L 300 414.5 L 297.5 415 L 297.5 414 Z " /><path fill="currentColor" stroke="currentColor" stroke-width="1" opacity="0.7098039215686275" d="M 217.5 415 L 220 415.5 L 217.5 416 L 217.5 415 Z " /><path fill="currentColor" stroke="currentColor" stroke-width="1" opacity="0.7098039215686275" d="M 292.5 415 L 295 415.5 L 292.5 416 L 292.5 415 Z " /><path fill="currentColor" stroke="currentColor" stroke-width="1" opacity="0.7098039215686275" d="M 223.5 416 L 226 416.5 L 223.5 417 L 223.5 416 Z " /><path fill="currentColor" stroke="currentColor" stroke-width="1" opacity="0.7098039215686275" d="M 286.5 416 L 289 416.5 L 286.5 417 L 286.5 416 Z " /><path fill="currentColor" stroke="currentColor" stroke-width="1" opacity="0.7098039215686275" d="M 229.5 417 L 234 417.5 L 229.5 418 L 229.5 417 Z " /><path fill="currentColor" stroke="currentColor" stroke-width="1" opacity="0.7098039215686275" d="M 278.5 417 L 283 417.5 L 278.5 418 L 278.5 417 Z " /><path fill="currentColor" stroke="currentColor" stroke-width="1" opacity="0.7098039215686275" d="M 239.5 418 L 246 418.5 L 239.5 419 L 239.5 418 Z " /><path fill="currentColor" stroke="currentColor" stroke-width="1" opacity="0.7098039215686275" d="M 266.5 418 L 273 418.5 L 266.5 419 L 266.5 418 Z " /><path fill="currentColor" stroke="currentColor" stroke-width="1" opacity="0" d="M 0 0 L 512 0 L 512 251.5 L 511 251.5 L 508 244.5 L 491 223.5 L 449.5 181 Q 421.9 155.6 389.5 135 Q 368.1 121.4 343.5 111 Q 321.3 101.2 294.5 96 L 289.5 96 L 282.5 94 L 273.5 94 L 272.5 93 L 239.5 93 L 238.5 94 L 229.5 94 L 212.5 97 L 178.5 107 Q 153.8 116.3 132.5 129 Q 74.1 164.1 30 213.5 L 7 240.5 L 0.5 252 L 0 0 Z " /><path fill="currentColor" stroke="currentColor" stroke-width="1" opacity="0" d="M 240.5 127 L 271.5 127 L 272.5 128 L 279.5 128 L 295.5 131 Q 328.3 139.2 354.5 154 Q 411.9 187.1 455 234.5 L 473 256.5 Q 453.1 281.6 429.5 303 Q 389.4 341.4 336.5 367 L 310.5 377 L 285.5 383 L 272.5 384 L 271.5 385 L 240.5 385 L 239.5 384 L 232.5 384 L 216.5 381 L 201.5 377 L 173.5 366 L 150.5 354 Q 97.5 322 57 277.5 L 39 255.5 Q 58.9 230.4 82.5 209 Q 115.8 177.3 157.5 154 Q 177.8 142.8 201.5 135 L 220.5 130 L 239.5 128 L 240.5 127 Z M 244 155 L 229 158 L 213 164 L 189 180 Q 162 202 155 244 L 155 269 L 158 284 Q 165 307 180 324 Q 192 337 209 346 L 229 354 L 244 357 L 269 357 L 284 354 Q 307 347 324 332 Q 337 320 346 304 L 354 284 L 357 269 L 357 244 L 354 229 Q 347 205 332 189 Q 316 171 293 161 L 269 155 L 244 155 Z " /><path fill="currentColor" stroke="currentColor" stroke-width="1" opacity="0" d="M 245.5 189 L 266.5 189 L 278.5 192 Q 295.9 198.6 307 211.5 Q 316.2 221.8 321 236.5 L 323 245.5 L 323 266.5 Q 317.8 292.8 300.5 307 Q 290.2 316.2 275.5 321 L 266.5 323 L 245.5 323 Q 219.2 317.8 205 300.5 Q 195.8 290.2 191 275.5 L 189 266.5 L 189 245.5 Q 194.2 219.2 211.5 205 Q 224.4 192.9 245.5 189 Z " /><path fill="currentColor" stroke="currentColor" stroke-width="1" opacity="0" d="M 0.5 260 L 4 267.5 L 15 281.5 L 62.5 331 Q 90.1 356.4 122.5 377 Q 143.9 390.6 168.5 401 Q 190.7 410.8 217.5 416 L 222.5 416 L 229.5 418 L 238.5 418 L 239.5 419 L 272.5 419 L 273.5 418 L 282.5 418 L 299.5 415 L 333.5 405 Q 358.2 395.7 379.5 383 Q 437.9 347.9 482 298.5 L 505 271.5 L 511.5 260 L 512 512 L 0 512 L 0.5 260 Z " /><path fill="currentColor" stroke="currentColor" stroke-width="1" opacity="0.7098039215686275" d="M 246.5 93 L 277.5 94 L 278.5 95 L 285.5 95 L 301.5 98 L 320.5 103 L 349.5 114 Q 384.3 130.2 413.5 152 Q 445 175.6 472 203.5 L 506 242.5 L 511 250.5 L 512 256.5 L 509 265.5 L 498 279.5 L 460.5 320 Q 414.1 366.6 351.5 397 L 329.5 406 L 301.5 414 L 285.5 417 L 278.5 417 L 277.5 418 L 246.5 419 L 245.5 418 L 234.5 418 L 233.5 417 L 220.5 416 L 191.5 409 L 169.5 401 L 140.5 387 Q 83.6 354.4 40 308.5 L 6 269.5 L 1 261.5 L 0 255.5 L 3 246.5 L 14 232.5 L 51.5 192 Q 90.7 153.2 140.5 125 L 169.5 111 L 191.5 103 L 220.5 96 L 233.5 95 L 234.5 94 L 245.5 94 L 246.5 93 Z M 247 126 L 246 127 L 236 127 L 229 129 L 224 129 L 207 133 Q 178 142 155 155 Q 111 180 77 214 L 38 256 L 64 286 Q 104 328 157 358 Q 179 371 207 379 L 224 383 L 236 384 L 237 385 L 246 385 L 247 386 L 266 386 L 267 385 L 276 385 L 277 384 L 284 384 L 294 382 Q 316 377 336 368 Q 393 340 436 298 L 474 257 L 449 228 Q 409 184 356 154 Q 333 141 306 133 L 276 127 L 247 126 Z " /><path fill="currentColor" stroke="currentColor" stroke-width="1" opacity="0.7098039215686275" d="M 248.5 155 L 272.5 156 L 293.5 162 Q 318.3 172.2 334 191.5 Q 347.7 207.3 354 230.5 L 356 239.5 L 356 247.5 L 357 248.5 L 357 263.5 L 356 264.5 L 356 272.5 L 354 281.5 L 347 300.5 Q 336.8 320.3 320.5 334 Q 304.7 347.7 281.5 354 L 272.5 356 L 264.5 356 L 263.5 357 L 248.5 357 L 247.5 356 L 239.5 356 L 230.5 354 L 211.5 347 Q 191.7 336.8 178 320.5 Q 164.3 304.7 158 281.5 L 156 272.5 L 156 264.5 L 155 263.5 L 155 247.5 L 158 230.5 L 165 211.5 Q 175.1 191.6 191.5 178 Q 203 168 218.5 162 L 234.5 157 L 247.5 156 L 248.5 155 Z M 250 188 L 230 193 L 215 202 Q 203 211 196 224 L 190 239 L 188 250 L 188 263 L 190 274 Q 194 288 202 298 Q 211 309 224 316 L 239 322 L 250 324 L 263 324 L 274 322 Q 288 318 298 310 Q 309 301 316 289 L 322 274 L 324 263 L 324 250 L 322 239 Q 318 224 310 215 Q 299 201 283 193 L 270 189 L 250 188 Z " /></svg>






