<?xml version="1.0" encoding="UTF-8"?>
<svg viewBox="0 0 512 512" version="1.1" xmlns="http://www.w3.org/2000/svg">
<path opacity="0.7098039215686275" d="M0 0 C3.80921064 0.00685405 7.61838169 -0.00372186 11.42758417 -0.01193976 C18.86907477 -0.02521223 26.31047411 -0.02242849 33.75196815 -0.01370184 C39.80504156 -0.00689999 45.85808957 -0.00601933 51.91116571 -0.00927329 C52.77584174 -0.00973299 53.64051776 -0.01019269 54.53139609 -0.01066632 C56.28849785 -0.01162559 58.04559961 -0.01259823 59.80270135 -0.01358409 C76.24177824 -0.02211898 92.68080478 -0.01233379 109.1198734 0.00381701 C123.19580667 0.01721845 137.27166568 0.01488982 151.3475976 0.00106072 C167.73173 -0.01502879 184.11581837 -0.02129519 200.49995756 -0.01210248 C202.25024715 -0.01114693 204.00053675 -0.01020382 205.75082636 -0.00927329 C206.61178579 -0.00881046 207.47274521 -0.00834764 208.35979432 -0.00787079 C214.39882023 -0.00529099 220.43781799 -0.00962998 226.47683954 -0.01671195 C233.84609509 -0.02516473 241.21525489 -0.02276799 248.5844996 -0.00686972 C252.3374403 0.00096254 256.09022193 0.00419191 259.84316111 -0.00581717 C289.42608026 -0.07816969 313.66762346 3.04558589 336.08099604 24.07967401 C357.12706559 46.18488017 359.3006533 72.5085748 359.22317004 101.56117797 C359.216316 105.37038861 359.2268919 109.17955966 359.23510981 112.98876214 C359.24838227 120.43025274 359.24559854 127.87165208 359.23687188 135.31314611 C359.23007003 141.36621953 359.22918938 147.41926754 359.23244333 153.47234368 C359.23290303 154.33701971 359.23336273 155.20169573 359.23383636 156.09257406 C359.23479563 157.84967582 359.23576827 159.60677758 359.23675413 161.36387932 C359.24528903 177.80295621 359.23550383 194.24198275 359.21935304 210.68105137 C359.20595159 224.75698463 359.20828022 238.83284365 359.22210932 252.90877557 C359.23819883 269.29290797 359.24446523 285.67699633 359.23527253 302.06113553 C359.23431698 303.81142512 359.23337386 305.56171472 359.23244333 307.31200433 C359.23198051 308.17296375 359.23151768 309.03392318 359.23104083 309.92097229 C359.22846103 315.9599982 359.23280002 321.99899596 359.23988199 328.03801751 C359.24833477 335.40727306 359.24593804 342.77643286 359.23003976 350.14567757 C359.2222075 353.89861827 359.21897813 357.6513999 359.22898722 361.40433908 C359.30133973 390.98725823 356.17758415 415.22880142 335.14349604 437.64217401 C317.55107877 454.44238615 295.95928427 460.55012127 272.13862848 460.5326159 C270.86971937 460.53558702 269.60081025 460.53855814 268.29344934 460.5416193 C264.78704945 460.54964631 261.28067007 460.55147646 257.77426207 460.55221677 C253.98603388 460.5540749 250.19781615 460.5616261 246.40959406 460.56835198 C238.13233228 460.5819061 229.85507536 460.58795571 221.57780433 460.59236264 C216.40291746 460.5951305 211.22803245 460.59936888 206.05314684 460.60386682 C191.70726784 460.61605658 177.36139033 460.62635588 163.01550627 460.62974191 C162.09816908 460.62996147 161.18083189 460.63018104 160.23569661 460.63040726 C159.31624045 460.63062554 158.39678428 460.63084381 157.44946581 460.63106871 C155.58648956 460.63151216 153.7235133 460.63195873 151.86053705 460.63240838 C150.93644853 460.63262981 150.01236001 460.63285124 149.06026881 460.63307938 C134.10223072 460.6370235 119.14424145 460.65446706 104.1862222 460.6777679 C88.80528613 460.7015328 73.4243745 460.71394612 58.04341978 460.71510983 C49.41725706 460.7160238 40.79115794 460.72170566 32.16501284 460.73992944 C24.81646488 460.75540007 17.46800018 460.76041018 10.11943901 460.75219133 C6.3765471 460.74830906 2.6338225 460.74909428 -1.10904837 460.76324868 C-31.01859672 460.86985093 -55.74888679 457.97970704 -78.41900396 436.70467401 C-99.46507351 414.59946784 -101.63866122 388.27577321 -101.56117797 359.22317004 C-101.55432392 355.4139594 -101.56489983 351.60478835 -101.57311773 347.79558587 C-101.5863902 340.35409527 -101.58360646 332.91269593 -101.57487981 325.4712019 C-101.56807796 319.41812848 -101.5671973 313.36508047 -101.57045126 307.31200433 C-101.57091096 306.4473283 -101.57137066 305.58265228 -101.57184429 304.69177395 C-101.57280356 302.93467219 -101.5737762 301.17757043 -101.57476206 299.42046869 C-101.58329695 282.9813918 -101.57351176 266.54236527 -101.55736096 250.10329664 C-101.54395952 236.02736338 -101.54628815 221.95150437 -101.56011724 207.87557244 C-101.57620675 191.49144005 -101.58247316 175.10735168 -101.57328045 158.72321248 C-101.5723249 156.97292289 -101.57138179 155.22263329 -101.57045126 153.47234368 C-101.56998843 152.61138426 -101.56952561 151.75042483 -101.56904875 150.86337572 C-101.56646896 144.82434981 -101.57080795 138.78535205 -101.57788992 132.7463305 C-101.5863427 125.37707496 -101.58394596 118.00791516 -101.56804769 110.63867044 C-101.56021543 106.88572974 -101.55698606 103.13294811 -101.56699514 99.38000894 C-101.63934766 69.79708978 -98.51559208 45.55554659 -77.48150396 23.14217401 C-55.3762978 2.09610446 -29.05260317 -0.07748325 0 0 Z M-57.16900396 50.39217401 C-64.46322056 59.90756182 -68.2842535 69.87757959 -68.30043173 81.90709138 C-68.30427287 82.98452312 -68.30811402 84.06195486 -68.31207156 85.17203605 C-68.31120508 86.34478564 -68.3103386 87.51753523 -68.30944586 88.72582269 C-68.31241698 89.98021657 -68.3153881 91.23461046 -68.31844926 92.52701628 C-68.32649595 96.00198168 -68.32830753 99.47692639 -68.32904673 102.95190001 C-68.33090136 106.70257596 -68.33845078 110.45324128 -68.34518194 114.20391107 C-68.35874945 122.40244566 -68.36478758 130.60097535 -68.3691926 138.7995193 C-68.37195783 143.92175835 -68.37619571 149.04399552 -68.38069677 154.1662333 C-68.39288762 168.35677304 -68.40318714 182.54731128 -68.40657187 196.73785615 C-68.40679143 197.64565094 -68.407011 198.55344574 -68.40723722 199.48874947 C-68.40745549 200.39867934 -68.40767377 201.3086092 -68.40789866 202.2461127 C-68.40834213 204.08988444 -68.40878869 205.93365618 -68.40923834 207.77742791 C-68.40945977 208.69199653 -68.4096812 209.60656514 -68.40990934 210.54884796 C-68.41385572 225.36166111 -68.43130568 240.17442503 -68.45459786 254.98721917 C-68.47833539 270.20647603 -68.49077482 285.42570822 -68.49193978 300.64498389 C-68.49285522 309.18550344 -68.49857435 317.72595882 -68.5167594 326.26646066 C-68.53219285 333.5401748 -68.53726177 340.81380495 -68.52902129 348.08753236 C-68.52512618 351.79536187 -68.5259883 355.50302242 -68.54007864 359.21083093 C-68.55524778 363.23954921 -68.54691741 367.26789012 -68.53649664 371.29662347 C-68.54455304 372.45598873 -68.55260945 373.61535399 -68.56090999 374.80985153 C-68.46916608 390.02770188 -64.22869749 402.93272204 -53.69244146 414.06404901 C-44.05965171 422.9512668 -32.73345923 427.5060116 -19.65408659 427.52360177 C-18.57665485 427.52744292 -17.49922311 427.53128406 -16.38914192 427.5352416 C-15.21639233 427.53437512 -14.04364274 427.53350864 -12.83535528 427.5326159 C-10.95376445 427.53707258 -10.95376445 427.53707258 -9.03416169 427.5416193 C-5.55919629 427.54966599 -2.08425157 427.55147757 1.39072204 427.55221677 C5.14139799 427.5540714 8.89206332 427.56162082 12.6427331 427.56835198 C20.84126769 427.5819195 29.03979738 427.58795762 37.23834133 427.59236264 C42.36058038 427.59512787 47.48281755 427.59936575 52.60505533 427.60386682 C66.79559507 427.61605767 80.98613332 427.62635718 95.17667818 427.62974191 C96.08447298 427.62996147 96.99226777 427.63018104 97.9275715 427.63040726 C99.2924663 427.63073468 99.2924663 427.63073468 100.68493474 427.63106871 C102.52870647 427.63151217 104.37247821 427.63195873 106.21624994 427.63240838 C107.13081856 427.63262981 108.04538717 427.63285124 108.98766999 427.63307938 C123.80048315 427.63702576 138.61324706 427.65447572 153.4260412 427.6777679 C168.64529807 427.70150543 183.86453025 427.71394486 199.08380592 427.71510983 C207.62432547 427.71602526 216.16478086 427.72174439 224.70528269 427.73992944 C231.97899683 427.75536289 239.25262698 427.76043181 246.52635439 427.75219133 C250.23418391 427.74829622 253.94184445 427.74915834 257.64965296 427.76324868 C261.67837124 427.77841783 265.70671215 427.77008745 269.7354455 427.75966668 C271.47449339 427.77175129 271.47449339 427.77175129 273.24867356 427.78408003 C288.46652391 427.69233613 301.37154407 423.45186753 312.50287104 412.91561151 C321.39008883 403.28282175 325.94483363 391.95662927 325.9624238 378.87725663 C325.96626495 377.79982489 325.97010609 376.72239315 325.97406363 375.61231196 C325.97276391 373.85318757 325.97276391 373.85318757 325.97143793 372.05852532 C325.97440905 370.80413144 325.97738018 369.54973755 325.98044133 368.25733173 C325.98848802 364.78236633 325.9902996 361.30742162 325.9910388 357.83244801 C325.99289344 354.08177205 326.00044285 350.33110673 326.00717402 346.58043694 C326.02074153 338.38190235 326.02677965 330.18337266 326.03118467 321.98482871 C326.0339499 316.86258966 326.03818778 311.74035249 326.04268885 306.61811471 C326.0548797 292.42757497 326.06517921 278.23703673 326.06856394 264.04649186 C326.0687835 263.13869707 326.06900307 262.23090227 326.06922929 261.29559854 C326.06944757 260.38566868 326.06966585 259.47573881 326.06989074 258.53823531 C326.0703342 256.69446357 326.07078076 254.85069183 326.07123041 253.0069201 C326.07145184 252.09235148 326.07167327 251.17778287 326.07190141 250.23550005 C326.07584779 235.4226869 326.09329775 220.60992298 326.11658993 205.79712884 C326.14032746 190.57787198 326.15276689 175.35863979 326.15393186 160.13936412 C326.15484729 151.59884457 326.16056642 143.05838919 326.17875147 134.51788735 C326.19418493 127.24417321 326.19925384 119.97054306 326.19101337 112.69681565 C326.18711825 108.98898614 326.18798038 105.28132559 326.20207071 101.57351708 C326.21723986 97.5447988 326.20890948 93.51645789 326.19848871 89.48772454 C326.20654512 88.32835928 326.21460152 87.16899402 326.22290206 85.97449648 C326.13115816 70.75664613 321.89068957 57.85162597 311.35443354 46.72029901 C302.15860868 38.2362253 290.95700083 33.27750054 278.40509844 33.26074624 C276.78056216 33.25498452 276.78056216 33.25498452 275.12320697 33.24910641 C273.93908053 33.24997289 272.75495408 33.25083937 271.53494501 33.25173211 C270.27253288 33.24876099 269.01012075 33.24578987 267.7094537 33.24272871 C264.20749523 33.2346713 260.70555727 33.23286984 257.20359063 33.23213124 C253.42564947 33.23027847 249.6477189 33.22272996 245.86978388 33.21599603 C237.60927571 33.20242065 229.3487724 33.19638909 221.08825493 33.19198537 C215.92833939 33.18922134 210.76842572 33.18498366 205.60851145 33.1804812 C191.31678558 33.16828907 177.02506121 33.15798997 162.73333025 33.1546061 C161.81881355 33.15438654 160.90429685 33.15416697 159.96206752 33.15394075 C158.58704254 33.15361334 158.58704254 33.15361334 157.18423927 33.1532793 C155.32674543 33.15283584 153.46925159 33.15238928 151.61175776 33.15193963 C150.6903801 33.1517182 149.76900244 33.15149677 148.81970425 33.15126863 C133.89622117 33.14732217 118.97278697 33.12987252 104.04932277 33.10658011 C88.7204912 33.08284854 73.39168414 33.07040341 58.06283391 33.06923819 C49.45917434 33.06832239 40.85557844 33.06259415 32.25193644 33.04441857 C24.92437087 33.02899315 17.59688865 33.02391147 10.26930992 33.03215668 C6.53325802 33.03605469 2.79737382 33.03517537 -0.93865728 33.02109933 C-4.99624207 33.00595217 -9.05345146 33.01425207 -13.11105108 33.02468133 C-14.2817932 33.01662493 -15.45253532 33.00856852 -16.65875447 33.00026798 C-32.71965772 33.09660154 -46.20047008 38.50346111 -57.16900396 50.39217401 Z " fill="currentColor" transform="translate(127.16900396347046,25.607825994491577)"/>
<path opacity="0.7098039215686275" d="M0 0 C2.51924679 2.05054971 4.91313206 4.20860515 7.30859375 6.40234375 C14.37608887 13.07444838 14.37608887 13.07444838 23.62109375 14.96484375 C29.2126662 14.02032138 32.2508337 10.60719045 36.18359375 6.77734375 C49.00888757 -4.39988925 61.14708066 -9.37101235 78.17041016 -8.41357422 C91.79827284 -7.12119141 101.24752073 0.6306428 110.76171875 9.76171875 C114.51994957 12.88953665 118.41252848 15.37230243 123.43359375 15.02734375 C128.8314957 14.20592389 131.78071069 10.95712016 135.58203125 7.26171875 C147.52269911 -4.14108119 159.60462014 -8.80879984 175.97265625 -8.49609375 C189.53131865 -7.8739107 199.45006005 -1.24285109 208.62890625 8.2109375 C212.92853035 12.54297083 216.73815708 13.98247977 222.62109375 15.15234375 C228.53559491 16.39465906 232.35593241 18.04121848 236.18359375 22.77734375 C238.81331554 27.00776577 238.95025038 31.93530188 238.18359375 36.77734375 C236.40201175 41.48403479 233.81876829 44.77779426 229.43359375 47.27734375 C220.27527865 51.12178572 210.60464779 48.03660351 201.65234375 44.88671875 C195.29556701 42.12110809 190.6373226 37.84441774 185.73657227 33.05493164 C180.65575995 28.00951653 180.65575995 28.00951653 174.12109375 25.37890625 C173.16203125 25.39050781 173.16203125 25.39050781 172.18359375 25.40234375 C171.54421875 25.39460938 170.90484375 25.386875 170.24609375 25.37890625 C165.38010621 26.31892657 162.03058076 29.7063127 158.55859375 33.02734375 C147.17630884 43.41177605 135.33601182 49.17667449 119.81640625 48.921875 C106.83309181 48.20914112 96.90324432 42.80874533 87.5546875 33.96875 C83.00714687 29.76583354 78.36939491 25.50409324 71.93359375 25.21484375 C65.81141832 26.13317006 62.46998656 29.30307985 58.12109375 33.52734375 C47.06548885 43.74630828 35.12279619 49.23674712 19.98046875 48.984375 C5.63623117 47.92258088 -5.01238144 42.11733213 -14.80078125 31.80078125 C-18.60551691 27.98129855 -22.37782697 25.6211612 -27.87890625 25.27734375 C-34.42380011 26.10844138 -38.26610659 30.0750933 -42.81640625 34.58984375 C-50.81705405 41.96918784 -60.81557127 47.64003938 -71.81640625 48.77734375 C-72.5640625 48.85855469 -73.31171875 48.93976563 -74.08203125 49.0234375 C-79.80418736 49.34457891 -84.11472054 48.07490613 -88.81640625 44.77734375 C-93.45946579 39.8961786 -94.17368638 35.81033769 -94.09765625 29.28125 C-93.56101358 24.50363955 -90.96180508 21.83570018 -87.5546875 18.6875 C-84.46068382 16.52920071 -82.39574019 16.12228487 -78.69140625 15.58984375 C-70.97387228 14.0009397 -66.44812972 10.08153564 -60.81640625 4.77734375 C-44.11800884 -10.67645261 -18.97343423 -13.68176083 0 0 Z " fill="currentColor" transform="translate(183.81640625,193.22265625)"/>
<path opacity="0.7098039215686275" d="M0 0 C2.4877031 2.09038936 4.94880814 4.20617385 7.37353516 6.36938477 C13.48726587 12.07582027 13.48726587 12.07582027 21.33300781 14.02197266 C22.29207031 14.03357422 22.29207031 14.03357422 23.27050781 14.04541016 C28.13649535 13.10538984 31.4860208 9.71800371 34.95800781 6.39697266 C46.42300424 -4.07848539 58.05568668 -9.75770386 73.73535156 -9.49755859 C88.01183604 -8.70322788 98.26319052 -2.09974889 108.33300781 7.64697266 C113.17720106 11.97909474 116.53727792 14.05983338 123.29785156 13.91259766 C128.66934476 13.21151985 132.29258209 8.77309797 136.08300781 5.27197266 C146.86316663 -4.56937353 158.59242396 -9.76339533 173.27050781 -9.56396484 C187.49704924 -8.58407551 196.78817666 -2.92252222 207.03613281 6.52978516 C212.9162883 11.94992848 216.76473094 13.9363419 224.74707031 15.13916016 C229.98744639 16.16823703 232.59310942 18.65395113 235.70800781 22.83447266 C237.86408984 27.03838154 238.01773687 31.02293819 237.33300781 35.64697266 C235.5076619 40.92019418 232.72581578 43.44388351 228.33300781 46.64697266 C218.93048356 49.78114741 208.86704339 47.51969519 200.06738281 43.65087891 C192.94914996 40.05442909 187.27427569 34.60691953 181.68457031 28.99072266 C178.23462973 25.71232608 175.24383376 24.92648871 170.67675781 24.39697266 C164.67517585 25.0371414 160.70381312 28.90392431 156.58300781 32.95947266 C145.61829493 43.31285895 134.62871833 48.18412102 119.39282227 48.06884766 C104.36598762 47.52637554 93.96613354 40.57220466 83.58081055 30.42993164 C80.04105541 27.03312472 77.09188186 24.92929908 72.15722656 24.42431641 C65.26632264 24.94081926 62.14147442 27.96433508 57.33300781 32.64697266 C44.50771399 43.82420566 32.36952091 48.79532876 15.34619141 47.83789062 C1.21729193 46.49799257 -8.31006977 38.24973534 -18.12402344 28.78369141 C-21.74723158 25.73930607 -25.09085252 24.21816258 -29.85449219 24.45947266 C-35.32164977 25.21854908 -38.2248639 28.42904454 -42.06542969 32.16259766 C-53.06325698 42.66502732 -64.59800109 48.04411103 -79.79199219 47.85791016 C-85.09975601 47.46848183 -88.09512642 45.49465797 -91.47949219 41.58447266 C-95.34548089 36.39300212 -95.31492132 32.00927677 -94.66699219 25.64697266 C-92.46870424 21.16897868 -89.74813797 18.4599658 -85.66699219 15.64697266 C-82.53808594 14.98681641 -82.53808594 14.98681641 -79.10449219 14.58447266 C-71.59350104 13.16538143 -67.70230916 9.64295752 -62.54199219 4.44384766 C-46.24922621 -11.91514907 -18.2745072 -14.83264776 0 0 Z " fill="currentColor" transform="translate(184.6669921875,279.35302734375)"/>
<path opacity="0.7098039215686275" d="M0 0 C5.0145632 3.48986493 9.36859562 7.34813318 13.61328125 11.72265625 C17.12475706 15.26222387 19.97444569 16.41698666 24.890625 16.76171875 C30.79559925 16.56080986 33.86254694 14.10896076 38.078125 10.19921875 C49.06572636 0.09771427 59.58674088 -6.4295798 74.890625 -6.23828125 C76.20546875 -6.22365845 76.20546875 -6.22365845 77.546875 -6.20874023 C94.14818158 -5.75661824 104.4913125 2.73446875 116.3359375 13.66796875 C119.796344 16.70940226 122.96253138 16.66165562 127.4296875 16.59765625 C133.02332767 15.75613516 136.46877351 11.7129652 140.4453125 7.97265625 C152.50504363 -3.26055125 163.9775242 -6.43703847 180.17578125 -6.11328125 C194.15957226 -5.47584348 203.91253948 2.82986484 213.6953125 12.02734375 C217.47005607 15.4679297 219.9071519 16.45990383 224.890625 17.07421875 C229.88323799 17.86918246 233.31122589 18.6206646 237.078125 22.19921875 C240.76262482 27.41313359 241.78967492 31.89691949 241.078125 38.19921875 C239.07515832 43.874291 235.46462321 47.50596964 230.078125 50.19921875 C215.40368707 51.25605548 204.71308736 48.63488944 193.078125 39.19921875 C190.11291598 36.58921706 187.20578874 33.94426618 184.328125 31.23828125 C180.50614758 27.77461421 177.61580671 27.85389692 172.60546875 27.92578125 C167.3318658 28.49634107 164.37123144 31.86693276 160.890625 35.51171875 C151.88885173 44.73111731 140.61007286 50.21195927 127.78271484 50.67016602 C112.42683652 50.83902108 101.30596517 46.99096061 90.01171875 36.23046875 C88.85238031 35.04859457 87.69586398 33.86394151 86.54296875 32.67578125 C83.03149294 29.13621363 80.18180431 27.98145084 75.265625 27.63671875 C68.21197735 27.88677421 64.63682023 31.79252522 59.7109375 36.42578125 C47.65036949 47.65976827 36.17337808 50.84158802 19.97265625 50.5078125 C6.3008853 49.88223878 -4.91322281 41.9301102 -13.94921875 32.1171875 C-17.21873901 28.9383074 -20.07922198 27.86286165 -24.609375 27.63671875 C-31.01585559 27.77762375 -34.4045621 30.96922611 -38.921875 35.19921875 C-50.22014473 45.77887062 -60.61321329 50.77238978 -76.37890625 50.5078125 C-81.20591955 50.08737804 -83.2636947 49.36964168 -86.921875 46.19921875 C-90.64387333 41.42742602 -91.57982699 37.66363248 -91.3046875 31.62890625 C-90.50709062 26.56660771 -88.26493253 23.43896417 -84.484375 19.94921875 C-81.02556083 18.25015214 -78.30189752 17.61167685 -74.546875 16.88671875 C-67.84257192 15.4744873 -64.63775194 12.96244385 -59.921875 8.19921875 C-43.46535611 -6.40109346 -19.79572344 -12.20030549 0 0 Z " fill="currentColor" transform="translate(180.921875,361.80078125)"/>
<path opacity="0.7098039215686275" d="M0 0 C5.0145632 3.48986493 9.36859562 7.34813318 13.61328125 11.72265625 C17.12475706 15.26222387 19.97444569 16.41698666 24.890625 16.76171875 C30.79559925 16.56080986 33.86254694 14.10896076 38.078125 10.19921875 C49.06572636 0.09771427 59.58674088 -6.4295798 74.890625 -6.23828125 C76.20546875 -6.22365845 76.20546875 -6.22365845 77.546875 -6.20874023 C94.14818158 -5.75661824 104.4913125 2.73446875 116.3359375 13.66796875 C119.796344 16.70940226 122.96253138 16.66165562 127.4296875 16.59765625 C133.02332767 15.75613516 136.46877351 11.7129652 140.4453125 7.97265625 C152.50504363 -3.26055125 163.9775242 -6.43703847 180.17578125 -6.11328125 C194.15957226 -5.47584348 203.91253948 2.82986484 213.6953125 12.02734375 C217.47005607 15.4679297 219.9071519 16.45990383 224.890625 17.07421875 C229.88323799 17.86918246 233.31122589 18.6206646 237.078125 22.19921875 C240.76262482 27.41313359 241.78967492 31.89691949 241.078125 38.19921875 C239.07515832 43.874291 235.46462321 47.50596964 230.078125 50.19921875 C215.40368707 51.25605548 204.71308736 48.63488944 193.078125 39.19921875 C190.11291598 36.58921706 187.20578874 33.94426618 184.328125 31.23828125 C180.50614758 27.77461421 177.61580671 27.85389692 172.60546875 27.92578125 C167.3318658 28.49634107 164.37123144 31.86693276 160.890625 35.51171875 C151.88885173 44.73111731 140.61007286 50.21195927 127.78271484 50.67016602 C112.42683652 50.83902108 101.30596517 46.99096061 90.01171875 36.23046875 C88.85238031 35.04859457 87.69586398 33.86394151 86.54296875 32.67578125 C83.03149294 29.13621363 80.18180431 27.98145084 75.265625 27.63671875 C68.21197735 27.88677421 64.63682023 31.79252522 59.7109375 36.42578125 C47.65036949 47.65976827 36.17337808 50.84158802 19.97265625 50.5078125 C6.3008853 49.88223878 -4.91322281 41.9301102 -13.94921875 32.1171875 C-17.21873901 28.9383074 -20.07922198 27.86286165 -24.609375 27.63671875 C-31.01585559 27.77762375 -34.4045621 30.96922611 -38.921875 35.19921875 C-50.22014473 45.77887062 -60.61321329 50.77238978 -76.37890625 50.5078125 C-81.20591955 50.08737804 -83.2636947 49.36964168 -86.921875 46.19921875 C-90.64387333 41.42742602 -91.57982699 37.66363248 -91.3046875 31.62890625 C-90.50709062 26.56660771 -88.26493253 23.43896417 -84.484375 19.94921875 C-81.02556083 18.25015214 -78.30189752 17.61167685 -74.546875 16.88671875 C-67.84257192 15.4744873 -64.63775194 12.96244385 -59.921875 8.19921875 C-43.46535611 -6.40109346 -19.79572344 -12.20030549 0 0 Z " fill="currentColor" transform="translate(180.921875,105.80078125)"/>
</svg>






