<?xml version="1.0" encoding="UTF-8"?>
<svg viewBox="0 0 512 512" version="1.1" xmlns="http://www.w3.org/2000/svg">
<path opacity="0.7098039215686275" d="M0 0 C13.06773311 8.38425756 21.98186263 20.33347417 26.0625 35.4375 C28.88128366 50.58846218 26.36598186 65.41901733 17.75 78.1875 C10.69065466 87.67796426 1.39188995 95.27702751 -10.25 98.1875 C-10.25 110.3975 -10.25 122.6075 -10.25 135.1875 C-2.70423052 135.18238769 4.83700945 135.15915065 12.38183594 135.08984375 C14.94623592 135.07171621 17.51073335 135.06410931 20.07519531 135.06738281 C23.76964234 135.07024895 27.4620817 135.03483469 31.15625 134.9921875 C32.8660907 135.0058284 32.8660907 135.0058284 34.61047363 135.01974487 C41.22706193 134.89992204 45.1666468 134.08253102 50.15588379 129.60598755 C54.13297702 126.06706285 59.21051432 125.73253161 64.31640625 125.87890625 C70.47303663 126.65960256 75.93540628 128.83808179 80.1875 133.4375 C84.37335717 139.0107376 86.39128348 144.83472327 86.08984375 151.828125 C84.96146012 159.6619608 81.84978605 164.85642383 75.75 169.8125 C69.21764593 174.30349343 62.42234785 173.85641268 54.75 173.1875 C51.03762541 172.079247 47.94745341 170.59238397 45.37797546 167.57780457 C43.07793627 165.613552 41.44910268 165.79005364 38.45239258 165.75512695 C36.83105156 165.72543571 36.83105156 165.72543571 35.17695618 165.69514465 C34.01125595 165.68875473 32.84555573 165.68236481 31.64453125 165.67578125 C30.45018967 165.65783005 29.25584808 165.63987885 28.02531433 165.62138367 C24.20441232 165.56712967 20.38363629 165.53333571 16.5625 165.5 C13.97459178 165.46684035 11.38670023 165.43235198 8.79882812 165.39648438 C2.44933172 165.31139443 -3.90018069 165.24310847 -10.25 165.1875 C-10.0094622 185.43668835 -9.76607077 205.68584063 -9.51950932 225.93495655 C-9.40502462 235.3422835 -9.29141242 244.74961936 -9.17993164 254.15698242 C-8.94887661 273.61953336 -8.70798641 293.08186733 -8.43537331 312.54388618 C-8.32074739 320.75531734 -8.21767409 328.96661006 -8.13597584 337.17845249 C-8.09263954 341.20268198 -8.03461773 345.22657194 -7.97082329 349.25052452 C-7.94672052 350.95722226 -7.92881499 352.66402347 -7.91832161 354.37085915 C-7.81387653 370.54216205 -5.61717941 385.78817816 5.62890625 398.2734375 C15.31360658 407.54727175 27.12275568 408.66394501 39.859375 408.4609375 C46.30059014 408.21129716 51.79931697 406.61532104 57.75 404.1875 C58.35875977 403.95144043 58.96751953 403.71538086 59.59472656 403.47216797 C84.75554087 393.67196129 105.07459081 376.29722103 123.75 357.1875 C115.49356105 353.00504115 107.21531946 348.93642719 98.75 345.1875 C98.75 344.5275 98.75 343.8675 98.75 343.1875 C100.20849609 341.97338867 100.20849609 341.97338867 102.2734375 340.60546875 C103.037771 340.09250244 103.80210449 339.57953613 104.58959961 339.05102539 C105.8446228 338.22139282 105.8446228 338.22139282 107.125 337.375 C108.88544658 336.19208407 110.64453042 335.00713791 112.40234375 333.8203125 C113.29937012 333.21477539 114.19639648 332.60923828 115.12060547 331.98535156 C119.02949848 329.31264143 122.86167948 326.53978592 126.6875 323.75 C135.49463135 317.34152712 144.40106913 311.08023362 153.34765625 304.86816406 C155.07144203 303.66221475 156.78663127 302.44394194 158.49609375 301.21777344 C159.39457031 300.57614258 160.29304688 299.93451172 161.21875 299.2734375 C162.03794922 298.68353027 162.85714844 298.09362305 163.70117188 297.48583984 C165.75 296.1875 165.75 296.1875 167.75 296.1875 C169.89624932 314.28762499 171.68461713 332.42082302 173.4375 350.5625 C173.60891006 352.32430603 173.60891006 352.32430603 173.78378296 354.1217041 C174.11244335 357.50536326 174.43765805 360.88933505 174.76171875 364.2734375 C174.86158081 365.29954132 174.96144287 366.32564514 175.06433105 367.38284302 C175.15484741 368.3372226 175.24536377 369.29160217 175.33862305 370.27490234 C175.4183989 371.10613617 175.49817474 371.93737 175.58036804 372.79379272 C175.7555989 375.26650702 175.77905364 377.70943977 175.75 380.1875 C169.82570956 378.45210179 164.4141012 375.74198391 158.875 373.0625 C157.90046875 372.59457031 156.9259375 372.12664062 155.921875 371.64453125 C153.52970501 370.49535155 151.13915684 369.34292757 148.75 368.1875 C148.43361572 368.76081055 148.11723145 369.33412109 147.79125977 369.92480469 C141.71208949 380.88908141 135.68502447 391.44707547 127.75 401.1875 C127.05777344 402.08082031 126.36554688 402.97414063 125.65234375 403.89453125 C102.59344781 433.14710523 70.84172894 450.12403375 37.5 465.3125 C7.57309717 478.90377531 7.57309717 478.90377531 -17.078125 500.3125 C-19.47599885 503.09134446 -21.09258033 504.90453462 -24.7265625 505.79296875 C-28.93749739 506.02276903 -31.40588037 505.82573679 -34.8125 503.25 C-36.0190625 501.7340625 -36.0190625 501.7340625 -37.25 500.1875 C-55.21592808 480.43275656 -80.59958351 470.33040742 -104.23962402 458.97970581 C-124.50208089 449.24891457 -143.21893152 439.06211664 -160.25 424.1875 C-160.77190918 423.73262207 -161.29381836 423.27774414 -161.83154297 422.80908203 C-176.94554881 409.53943713 -188.56276923 393.78180366 -198.4375 376.3125 C-199.01757812 375.28636597 -199.01757812 375.28636597 -199.609375 374.23950195 C-202.25 369.45215114 -202.25 369.45215114 -202.25 367.1875 C-203.41571533 367.73277344 -203.41571533 367.73277344 -204.60498047 368.2890625 C-207.48475705 369.63390652 -210.36609188 370.97533542 -213.24853516 372.31445312 C-214.49656893 372.89511521 -215.74396929 373.47714069 -216.99072266 374.06054688 C-218.7812114 374.89810247 -220.5741663 375.73037966 -222.3671875 376.5625 C-223.98536377 377.31660156 -223.98536377 377.31660156 -225.63623047 378.0859375 C-228.25 379.1875 -228.25 379.1875 -230.25 379.1875 C-228.8590518 362.75962422 -227.1143548 346.37960406 -225.21826172 330.00292969 C-224.82050947 326.56314578 -224.43357135 323.12222599 -224.04869843 319.68098068 C-223.6754166 316.36456895 -223.29002382 313.04958879 -222.90625 309.734375 C-222.76973022 308.50128601 -222.63321045 307.26819702 -222.49255371 305.9977417 C-222.35901489 304.86765686 -222.22547607 303.73757202 -222.08789062 302.57324219 C-221.97401001 301.57814636 -221.86012939 300.58305054 -221.74279785 299.55780029 C-221.25 297.1875 -221.25 297.1875 -219.25 295.1875 C-209.43349682 301.79401951 -199.72749089 308.48271052 -190.3190918 315.66064453 C-184.40669317 320.14033584 -178.2926333 324.29268995 -172.1472168 328.4440918 C-165.29753425 333.09559947 -158.72978943 338.03391523 -152.25 343.1875 C-155.10547875 345.46205645 -157.93281607 347.11784657 -161.234375 348.66796875 C-162.16894531 349.10947266 -163.10351562 349.55097656 -164.06640625 350.00585938 C-165.03449219 350.45767578 -166.00257813 350.90949219 -167 351.375 C-167.98355469 351.83841797 -168.96710938 352.30183594 -169.98046875 352.77929688 C-172.40177315 353.91942565 -174.82496629 355.05533065 -177.25 356.1875 C-153.88798885 380.55532716 -124.05324687 407.32881942 -88.25 408.1875 C-77.51754235 407.78820902 -67.45728213 404.3117399 -59.375 397.0625 C-48.05150939 384.46856898 -46.81442375 367.68681792 -46.62890625 351.5703125 C-46.59819264 349.79629829 -46.5664475 348.02230173 -46.53382874 346.24832153 C-46.4401809 340.8593081 -46.36850389 335.47015257 -46.30020905 330.08076477 C-46.24548977 325.83777175 -46.18647245 321.59485211 -46.12664795 317.35192871 C-45.8184078 295.38690289 -45.54718018 273.4214927 -45.28720629 251.45584893 C-45.17551567 242.02585218 -45.06092357 232.59589125 -44.94616115 223.16593146 C-44.71102415 203.83982416 -44.47930593 184.51367733 -44.25 165.1875 C-51.83103255 165.20378956 -59.41108878 165.2586226 -66.99169922 165.34008789 C-69.56975982 165.36326548 -72.14791508 165.377663 -74.72607422 165.38305664 C-78.43517023 165.39234725 -82.14277782 165.43334512 -85.8515625 165.48046875 C-87.00177887 165.4765361 -88.15199524 165.47260345 -89.33706665 165.46855164 C-96.11415662 165.48959928 -96.11415662 165.48959928 -101.87158203 168.65136719 C-102.65645996 169.48829102 -103.44133789 170.32521484 -104.25 171.1875 C-110.66844993 174.55003189 -119.12219456 174.4699829 -125.953125 172.34765625 C-132.45826629 169.06189611 -136.05207844 163.98390996 -139.625 157.8125 C-141.50400172 149.92069278 -140.46580747 143.10856503 -136.25 136.1875 C-132.42389354 131.65658446 -127.91480073 128.07576691 -122.25 126.1875 C-115.56322411 125.62576762 -109.15463375 125.72045053 -103.25 129.1875 C-102.47551514 130.02152344 -101.70103027 130.85554687 -100.90307617 131.71484375 C-96.24384123 135.60437481 -90.63895591 134.91431864 -84.8515625 134.89453125 C-83.06641739 134.91721321 -83.06641739 134.91721321 -81.24520874 134.94035339 C-77.45494657 134.98324107 -73.66548069 134.99207012 -69.875 135 C-67.30076006 135.02314324 -64.72653908 135.0485082 -62.15234375 135.07617188 C-55.85112854 135.14320608 -49.5521338 135.16415876 -43.25 135.1875 C-43.25 122.9775 -43.25 110.7675 -43.25 98.1875 C-44.9 97.8575 -46.55 97.5275 -48.25 97.1875 C-61.70553929 91.40017127 -71.72609559 81.66971753 -77.53125 68.21875 C-83.02568026 53.61926389 -82.80597547 38.60664365 -77.03125 24.1328125 C-70.33493852 9.51253243 -59.3111788 0.54840795 -44.44140625 -5.0859375 C-29.76122552 -9.9531632 -13.22183828 -7.43853044 0 0 Z M-50.25 31.1875 C-54.96787414 37.80950329 -55.21626347 45.30122848 -54.25 53.1875 C-52.62592748 59.09321825 -49.93143405 63.19115386 -45.25 67.1875 C-44.1053125 68.239375 -44.1053125 68.239375 -42.9375 69.3125 C-36.54232847 73.77424758 -29.99523255 75.25057113 -22.25 74.1875 C-13.37665268 71.6688643 -6.81713782 67.29617277 -2.25 59.1875 C0.52062782 52.15436784 1.05771626 44.7137218 -1.0546875 37.40234375 C-4.26567819 30.2385128 -9.51209929 24.57656029 -16.55078125 21.02734375 C-29.99236202 16.03608319 -41.00123888 20.79302161 -50.25 31.1875 Z " fill="currentColor" transform="translate(283.25,6.8125)"/>
</svg>






