<svg viewBox="0 0 512 512" version="1.1" xmlns="http://www.w3.org/2000/svg" desc="Created with imagetracer.js version 1.2.6" ><path fill="currentColor" stroke="currentColor" stroke-width="1" opacity="0.7098039215686275" d="M 224.5 0 L 288.5 0 Q 300.3 3.7 307 12.5 L 313 27.5 L 316 57.5 L 317 58.5 L 317 68 L 333.5 73 L 340.5 77 L 347.5 78 L 381.5 52 L 392.5 48 L 403.5 48 Q 414.5 51 421.5 58 L 457 93.5 Q 465.9 101.6 464 120.5 L 459 132.5 L 436 161.5 L 434 167.5 L 443 188.5 L 444 195 L 470.5 197 L 471.5 198 L 478.5 198 L 488.5 200 Q 500.7 203.3 507 212.5 L 512 223.5 L 512 287.5 Q 508.8 301.3 498.5 308 L 487.5 312 L 463.5 315 L 462.5 316 L 455.5 316 L 454.5 317 L 444 317 Q 441.7 330.4 435 340.5 L 434 347.5 L 460 381.5 L 464 392.5 L 464 403.5 Q 461.2 413.7 455 420.5 L 419.5 456 Q 411 465 392.5 464 L 379.5 459 L 350.5 436 L 344.5 434 L 323.5 443 L 317 444 L 315 470.5 L 312 487.5 Q 309.3 499.8 300.5 506 L 289.5 512 L 223.5 512 Q 211.7 508.3 205 499.5 Q 200.5 493.5 199 484.5 L 198 470.5 L 196 462.5 L 196 454.5 L 195 453.5 L 195 444 Q 181.6 441.7 171.5 435 L 164.5 434 L 132.5 459 L 120.5 464 L 108.5 464 Q 98.3 461.2 91.5 455 L 54 417.5 L 48 403.5 L 48 392.5 L 53 379.5 L 76 350.5 L 78 344.5 L 71 328.5 L 68 317 L 41.5 315 L 40.5 314 L 33.5 314 L 23.5 312 Q 11.3 308.7 5 299.5 L 0 288.5 L 0 224.5 Q 3 211.5 12.5 205 Q 18.5 200.5 27.5 199 L 68 195 Q 70.3 181.6 77 171.5 L 78 164.5 L 52 130.5 L 48 120.5 L 48 108.5 Q 50.8 98.3 57 91.5 L 94.5 54 L 107.5 48 L 120.5 48 L 132.5 53 L 162.5 77 L 167.5 78 L 188.5 69 L 195 68 L 198 33.5 L 200 23.5 Q 203.3 11.3 212.5 5 L 224.5 0 Z M 230 22 L 225 25 L 221 34 L 218 65 L 215 82 L 211 86 Q 187 92 169 103 Q 162 104 159 102 L 125 75 L 115 70 L 110 72 L 100 81 L 71 111 L 71 119 L 97 152 L 103 162 L 102 173 Q 92 189 86 211 Q 83 215 77 216 L 33 221 L 25 225 L 22 229 L 22 269 L 21 270 Q 20 280 23 286 L 27 289 L 34 291 L 72 295 L 83 298 L 88 307 Q 93 327 103 343 L 103 352 L 71 394 L 71 402 L 77 409 L 89 419 L 90 422 L 111 441 L 121 440 Q 139 423 162 409 L 173 410 Q 189 421 211 426 Q 215 429 216 436 L 221 481 L 224 487 L 229 490 L 283 490 L 287 488 L 291 479 L 295 441 L 298 430 L 307 424 L 328 417 L 343 409 L 348 408 L 358 413 L 394 441 L 402 441 L 416 428 L 419 424 L 424 420 L 441 402 Q 442 395 440 392 L 409 352 L 410 340 Q 420 323 426 302 Q 429 297 436 296 L 468 293 L 485 289 L 490 284 L 490 243 L 491 242 L 491 235 L 489 227 L 487 224 L 479 221 L 441 217 L 430 214 L 424 206 L 419 190 L 409 170 L 409 161 L 441 119 L 441 111 L 435 104 L 402 71 L 394 71 L 361 97 L 351 103 L 340 102 Q 323 91 302 86 Q 297 83 296 77 L 291 33 L 287 24 L 284 22 L 230 22 Z " /><path fill="currentColor" stroke="currentColor" stroke-width="1" opacity="0.7098039215686275" d="M 246.5 148 L 271.5 149 L 294.5 155 Q 318.7 164.8 335 182.5 Q 350.6 199.4 359 223.5 L 364 246.5 L 364 263.5 L 360 285.5 L 352 305.5 Q 341.3 325.3 324.5 339 Q 310.5 351 291.5 358 L 272.5 363 L 249.5 364 L 223.5 359 L 210.5 354 Q 189.2 344.3 175 327.5 Q 160.9 311.1 153 288.5 L 148 265.5 L 148 248.5 L 152 226.5 L 160 206.5 Q 170.7 186.7 187.5 173 Q 199.6 162.6 215.5 156 L 233.5 150 L 245.5 149 L 246.5 148 Z M 249 171 L 225 177 Q 210 183 199 193 Q 187 204 179 219 L 173 235 L 171 246 L 171 264 L 176 286 L 183 300 L 195 316 L 214 330 L 226 336 L 245 341 L 264 341 L 265 340 L 276 339 Q 298 333 314 319 Q 325 308 333 294 L 339 278 L 341 267 L 341 249 L 336 227 Q 329 210 318 198 Q 305 184 287 176 L 268 171 L 249 171 Z " /><path fill="currentColor" stroke="currentColor" stroke-width="1" opacity="0" d="M 0 0 L 224 0.5 Q 211.1 3.1 205 12.5 L 199 27.5 L 195 68 L 188.5 69 L 171.5 77 L 165.5 78 L 162.5 77 L 132.5 53 L 120.5 48 L 107.5 48 L 94.5 54 L 57 91.5 L 49 104.5 L 48 120.5 L 55 135.5 L 78 164.5 L 78 168.5 Q 70.8 180.2 68 195 L 50.5 196 L 49.5 197 L 23.5 200 Q 11.3 203.3 5 212.5 L 0.5 224 L 0 0 Z " /><path fill="currentColor" stroke="currentColor" stroke-width="1" opacity="0" d="M 289.5 0 L 512 0 L 512 222.5 L 511 222.5 Q 508.9 210.1 499.5 205 L 484.5 199 L 444 195 L 443 188.5 L 436 173.5 L 434 165.5 L 459 132.5 L 464 120.5 L 464 107.5 L 457 93.5 L 421.5 58 L 409.5 50 Q 403.4 46.6 392.5 48 Q 382.9 49.9 376.5 55 L 349.5 77 L 343.5 78 Q 331.8 71 317 68 L 317 58.5 L 316 57.5 L 316 50.5 L 315 49.5 L 315 42.5 L 314 41.5 L 312 23.5 Q 309 12 300.5 6 L 289.5 1 L 289.5 0 Z " /><path fill="currentColor" stroke="currentColor" stroke-width="1" opacity="0" d="M 229.5 22 L 283.5 22 L 287 24 L 291 32.5 L 296 76.5 Q 296.9 83.1 301.5 86 Q 323.1 91.4 339.5 102 L 350.5 103 L 360.5 97 L 393.5 71 L 401.5 71 L 435 103.5 L 441 110.5 L 441 118.5 L 409 160.5 L 409 169.5 L 419 189.5 L 424 205.5 L 429.5 214 L 440.5 217 L 478.5 221 L 486.5 224 L 489 226.5 L 491 234.5 L 491 241.5 L 490 242.5 L 490 283.5 L 484.5 289 L 467.5 293 L 435.5 296 Q 428.9 296.9 426 301.5 Q 420.4 322.9 410 339.5 L 409 351.5 L 440 391.5 Q 442.3 394.7 441 401.5 L 423.5 420 L 419 423.5 L 415.5 428 L 401.5 441 L 393.5 441 L 357.5 413 L 347.5 408 L 342.5 409 L 327.5 417 L 306.5 424 L 298 429.5 L 295 440.5 L 291 478.5 L 286.5 488 L 282.5 490 L 228.5 490 L 224 486.5 L 221 480.5 L 216 435.5 Q 215.1 428.9 210.5 426 Q 188.9 420.6 172.5 410 L 161.5 409 Q 139.4 422.9 120.5 440 L 110.5 441 L 90 421.5 L 88.5 419 L 77 408.5 L 71 401.5 L 71 393.5 L 103 351.5 L 103 342.5 Q 93 327 88 306.5 L 82.5 298 L 71.5 295 L 33.5 291 L 26.5 289 L 23 285.5 Q 19.8 279.8 21 269.5 L 22 268.5 L 22 228.5 L 24.5 225 L 32.5 221 L 76.5 216 Q 83.1 215.1 86 210.5 Q 91.6 189.1 102 172.5 L 103 161.5 L 97 151.5 L 71 118.5 L 71 110.5 L 99.5 81 L 109.5 72 L 114.5 70 L 124.5 75 L 158.5 102 Q 161.7 104.3 168.5 103 Q 187.4 92.4 210.5 86 L 215 81.5 L 218 64.5 L 221 33.5 L 224.5 25 L 229.5 22 Z M 247 148 L 246 149 L 234 150 L 216 156 Q 200 163 188 173 Q 171 187 160 207 L 152 227 L 148 249 L 148 266 L 153 289 Q 161 311 175 328 Q 189 344 211 354 L 224 359 L 250 364 L 273 363 L 292 358 Q 310 351 325 339 Q 341 325 352 306 L 360 286 L 364 264 L 364 247 L 359 224 Q 351 199 335 183 Q 319 165 295 155 L 272 149 L 247 148 Z " /><path fill="currentColor" stroke="currentColor" stroke-width="1" opacity="0" d="M 248.5 171 L 267.5 171 L 286.5 176 Q 305.3 183.7 318 197.5 Q 329.4 209.6 336 226.5 L 341 248.5 L 341 266.5 L 339 277.5 L 333 293.5 Q 325.2 308.2 313.5 319 Q 298.1 332.6 275.5 339 L 264.5 340 L 263.5 341 L 244.5 341 L 225.5 336 L 213.5 330 L 195 316 L 183 299.5 L 176 285.5 L 171 263.5 L 171 245.5 L 173 234.5 L 179 218.5 Q 186.5 203.5 198.5 193 Q 209.8 183.3 224.5 177 L 248.5 171 Z " /><path fill="currentColor" stroke="currentColor" stroke-width="1" opacity="0" d="M 511.5 288 L 512 512 L 290 511.5 Q 300.8 507.8 307 499.5 L 310 493.5 L 314 478.5 L 317 444 L 323.5 443 L 345.5 434 L 350.5 436 L 379.5 459 L 392.5 464 L 402.5 464 Q 412.9 461.9 419.5 456 L 455 420.5 Q 461.2 413.7 464 403.5 L 464 392.5 Q 462.1 382.9 457 376.5 L 435 349.5 L 434 343.5 L 441 328.5 L 444 317 L 462.5 316 L 491.5 311 Q 501.9 307.9 507 299.5 L 511.5 288 Z " /><path fill="currentColor" stroke="currentColor" stroke-width="1" opacity="0" d="M 0.5 289 Q 3.5 301 12.5 307 L 27.5 313 L 68 317 L 71 328.5 L 78 345.5 L 76 350.5 L 53 379.5 L 48 392.5 L 48 403.5 L 54 417.5 L 91.5 455 L 104.5 463 L 120.5 464 L 135.5 457 L 162.5 435 L 168.5 434 Q 180.2 441.2 195 444 L 196 462.5 L 197 463.5 L 200 489.5 Q 203.4 500.1 211.5 506 L 223 511.5 L 0 512 L 0.5 289 Z " /></svg>





