<?xml version="1.0" encoding="UTF-8"?>
<svg viewBox="0 0 512 512" version="1.1" xmlns="http://www.w3.org/2000/svg">
<path opacity="0.7098039215686275" d="M0 0 C0.90045044 -0.00705963 1.80090088 -0.01411926 2.7286377 -0.02139282 C40.56271231 -0.2507174 40.56271231 -0.2507174 57.20703125 3.203125 C58.69759033 3.50911621 58.69759033 3.50911621 60.21826172 3.82128906 C100.09528291 12.25457013 136.42102332 28.6616794 168.20703125 54.203125 C169.21894531 55.00878906 170.23085938 55.81445312 171.2734375 56.64453125 C185.28030655 68.01849702 198.28088572 80.93266329 208.94921875 95.50097656 C210.23742597 97.24425699 211.56159532 98.95480198 212.89453125 100.6640625 C252.56473084 152.18095989 266.70202523 219.50051408 258.83251953 283.23632812 C254.96953255 310.93745658 246.37262406 337.94351532 233.34594727 362.69604492 C232.00022998 365.19941235 232.00022998 365.19941235 232.20703125 368.203125 C233.9614188 369.6837182 233.9614188 369.6837182 236.29296875 370.98046875 C237.14117187 371.49416016 237.989375 372.00785156 238.86328125 372.53710938 C239.76046875 373.06626953 240.65765625 373.59542969 241.58203125 374.140625 C243.34540889 375.18204006 245.10348942 376.23249035 246.85546875 377.29296875 C247.64099121 377.75566162 248.42651367 378.21835449 249.23583984 378.69506836 C251.42393908 380.36906996 252.07329316 381.73891876 253.20703125 384.203125 C246.23323958 386.99773043 239.25889783 389.79095962 232.28417969 392.58325195 C229.9136113 393.53248242 227.54316703 394.48202292 225.17285156 395.43188477 C221.75749101 396.80046648 218.3416794 398.16791699 214.92578125 399.53515625 C213.87338257 399.95714798 212.82098389 400.37913971 211.73669434 400.81391907 C206.24936446 403.00893387 200.75032303 405.15338269 195.20703125 407.203125 C194.34583358 399.68429032 193.93526996 392.19410052 193.671875 384.6328125 C193.60740929 382.88945114 193.60740929 382.88945114 193.54164124 381.11087036 C193.40632708 377.43338913 193.27535936 373.75576828 193.14453125 370.078125 C193.0530226 367.57030197 192.96122857 365.06248933 192.86914062 362.5546875 C192.6451376 356.43761633 192.42469374 350.32042489 192.20703125 344.203125 C195.83250984 344.8608827 198.28130456 345.63474108 201.34375 347.70703125 C202.08560547 348.20009766 202.82746094 348.69316406 203.59179688 349.20117188 C204.35169922 349.71744141 205.11160156 350.23371094 205.89453125 350.765625 C207.41657762 351.79176654 208.94119604 352.81410665 210.46875 353.83203125 C211.4736145 354.5137439 211.4736145 354.5137439 212.4987793 355.20922852 C214.16575555 356.37075675 214.16575555 356.37075675 216.20703125 356.203125 C226.83393774 334.90011338 234.37862906 313.5345283 239.20703125 290.203125 C239.38637207 289.3874707 239.56571289 288.57181641 239.75048828 287.73144531 C247.06988985 253.46763301 243.31151804 214.42274308 233.20703125 181.203125 C232.99884766 180.48995117 232.79066406 179.77677734 232.57617188 179.04199219 C219.43314065 134.33546598 190.36400629 92.32840602 152.94238281 64.49414062 C151.81181461 63.65305387 150.68588829 62.80567986 149.56542969 61.95117188 C110.27770623 31.99279906 61.55407773 16.71500423 12.39453125 16.828125 C11.052164 16.82894073 11.052164 16.82894073 9.68267822 16.82977295 C-5.77766499 16.87274795 -20.63266336 17.95395461 -35.79296875 21.203125 C-36.77281738 21.41211426 -37.75266602 21.62110352 -38.76220703 21.83642578 C-75.54606639 29.98958073 -109.2703516 46.65397965 -137.79296875 71.203125 C-139.04207031 72.27433594 -139.04207031 72.27433594 -140.31640625 73.3671875 C-141.59722329 74.48115481 -142.87169155 75.60250856 -144.13671875 76.734375 C-145.84270338 78.2472293 -147.59636054 79.69013226 -149.35546875 81.140625 C-152.53508207 83.86088109 -155.23297362 86.84850686 -157.93359375 90.0390625 C-159.18092276 91.49078576 -160.46331005 92.91305338 -161.77734375 94.3046875 C-196.76212092 131.46005303 -218.41710646 186.29622029 -219.79296875 237.203125 C-219.82366455 238.29826416 -219.82366455 238.29826416 -219.85498047 239.41552734 C-221.41817538 304.38500851 -197.26781165 363.67224105 -153.1953125 410.9921875 C-147.93557707 416.37695626 -142.3767172 421.26627001 -136.45068359 425.90478516 C-135.25992424 426.83740051 -134.07321662 427.7751978 -132.88916016 428.71630859 C-123.82953267 435.90734736 -114.69374282 442.54345949 -104.59179688 448.19433594 C-102.85119676 449.17047053 -101.12641242 450.17464286 -99.40234375 451.1796875 C-45.91154961 481.28325102 18.40990602 486.34192359 77.0065918 470.16748047 C88.47656028 466.82373953 99.37484065 462.21047895 110.20703125 457.203125 C110.93937988 456.86522949 111.67172852 456.52733398 112.42626953 456.17919922 C128.78830463 448.53342403 144.09665949 438.89493353 157.83203125 427.140625 C160.20703125 425.203125 160.20703125 425.203125 162.20703125 425.203125 C163.81792369 426.88961889 165.34826856 428.65376834 166.83203125 430.453125 C167.64929688 431.42765625 168.4665625 432.4021875 169.30859375 433.40625 C171.20703125 436.203125 171.20703125 436.203125 171.20703125 440.203125 C168.97905803 442.24364117 166.84025763 443.95801368 164.39453125 445.703125 C163.32005737 446.48598877 163.32005737 446.48598877 162.22387695 447.28466797 C131.58180558 469.30999746 97.98270878 484.81055751 60.95703125 492.453125 C59.86104614 492.68008057 59.86104614 492.68008057 58.74291992 492.91162109 C43.38501593 495.87569154 28.18568212 496.5780603 12.58203125 496.515625 C11.61147797 496.51346985 10.64092468 496.5113147 9.64096069 496.50909424 C-4.68382095 496.45807071 -18.71979026 496.12343317 -32.79296875 493.203125 C-34.28352783 492.89713379 -34.28352783 492.89713379 -35.80419922 492.58496094 C-102.29810922 478.52268106 -159.75561962 440.10251905 -197.10742188 383.20068359 C-199.80846263 378.94599541 -202.32874595 374.59827707 -204.79296875 370.203125 C-205.16373535 369.55053711 -205.53450195 368.89794922 -205.91650391 368.22558594 C-212.27935902 356.95300326 -217.28817643 345.32882602 -221.79296875 333.203125 C-222.25445312 331.97464844 -222.7159375 330.74617188 -223.19140625 329.48046875 C-237.04284833 290.35235051 -241.265163 244.03124826 -232.79296875 203.203125 C-232.48697754 201.71256592 -232.48697754 201.71256592 -232.17480469 200.19189453 C-220.0911436 143.05394249 -189.55235563 89.13857973 -142.79296875 53.203125 C-142.24833984 52.78208496 -141.70371094 52.36104492 -141.14257812 51.92724609 C-131.15245292 44.24964987 -120.70498409 37.49390645 -109.79296875 31.203125 C-109.05626953 30.77644531 -108.31957031 30.34976563 -107.56054688 29.91015625 C-75.5686934 11.62105796 -37.00420221 0.19437036 0 0 Z " fill="currentColor" transform="translate(243.79296875,7.796875)"/>
<path opacity="0.7098039215686275" d="M0 0 C10.25043521 7.74112867 18.70526266 17.59173526 20.6875 30.6875 C21.96836177 44.82795902 21.06844427 57.71255554 12.4375 69.5625 C4.06048815 79.29647921 -6.30950268 87.6011099 -19.55273438 88.90869141 C-36.29194278 89.71018162 -48.24843021 87.01387295 -61.27734375 76.03125 C-69.90636197 68.02533375 -74.97975631 57.73921602 -75.62890625 46.03125 C-76.18819388 29.34451548 -72.52277041 17.35708981 -61 4.9375 C-44.70456176 -10.48496833 -18.58433045 -12.3339951 0 0 Z M-5.3125 14.6875 C-5.70451599 15.09061905 -6.09653198 15.4937381 -6.50042725 15.90907288 C-10.57341547 20.09245567 -14.66372392 24.25830954 -18.76464844 28.41430664 C-20.2939288 29.96877171 -21.81869698 31.52768906 -23.33886719 33.09106445 C-25.52155612 35.33422554 -27.71983643 37.56100791 -29.921875 39.78515625 C-30.6011908 40.49027847 -31.28050659 41.1954007 -31.98040771 41.92189026 C-32.62076965 42.56262985 -33.26113159 43.20336945 -33.92089844 43.86352539 C-34.76028961 44.71957115 -34.76028961 44.71957115 -35.61663818 45.59291077 C-37.3125 46.6875 -37.3125 46.6875 -39.39068604 46.47947693 C-42.05827944 45.3801653 -43.58160247 43.7049424 -45.5625 41.625 C-46.26890625 40.89152344 -46.9753125 40.15804687 -47.703125 39.40234375 C-48.23421875 38.83644531 -48.7653125 38.27054687 -49.3125 37.6875 C-52.52774305 39.09594718 -54.63433868 40.79094786 -57.0625 43.3125 C-57.98289063 44.25996094 -57.98289063 44.25996094 -58.921875 45.2265625 C-59.38078125 45.70867187 -59.8396875 46.19078125 -60.3125 46.6875 C-56.6624275 51.00995428 -52.94751417 55.27276513 -49.1875 59.5 C-48.35992187 60.43457031 -47.53234375 61.36914062 -46.6796875 62.33203125 C-43.86608578 65.16112394 -43.86608578 65.16112394 -40.3125 66.6875 C-35.55236696 66.31252685 -33.29124878 65.28692949 -29.95947266 61.90209961 C-29.15909576 61.10134506 -28.35871887 60.30059052 -27.53408813 59.47557068 C-26.69010468 58.60578079 -25.84612122 57.73599091 -24.9765625 56.83984375 C-24.09721039 55.9534169 -23.21785828 55.06699005 -22.31185913 54.15370178 C-19.98474437 51.80337097 -17.6688895 49.44265126 -15.35803223 47.07635498 C-12.99395351 44.66098041 -10.61552309 42.25982969 -8.23828125 39.85742188 C-3.58304505 35.14708415 1.05762362 30.42275943 5.6875 25.6875 C2.3064962 21.55128916 -0.97840534 17.87433431 -5.3125 14.6875 Z " fill="currentColor" transform="translate(203.3125,327.3125)"/>
<path opacity="0.7098039215686275" d="M0 0 C10.25043521 7.74112867 18.70526266 17.59173526 20.6875 30.6875 C21.96836177 44.82795902 21.06844427 57.71255554 12.4375 69.5625 C4.06048815 79.29647921 -6.30950268 87.6011099 -19.55273438 88.90869141 C-36.29194278 89.71018162 -48.24843021 87.01387295 -61.27734375 76.03125 C-69.90636197 68.02533375 -74.97975631 57.73921602 -75.62890625 46.03125 C-76.18819388 29.34451548 -72.52277041 17.35708981 -61 4.9375 C-44.70456176 -10.48496833 -18.58433045 -12.3339951 0 0 Z M-5.3125 14.6875 C-5.70451599 15.09061905 -6.09653198 15.4937381 -6.50042725 15.90907288 C-10.57341547 20.09245567 -14.66372392 24.25830954 -18.76464844 28.41430664 C-20.2939288 29.96877171 -21.81869698 31.52768906 -23.33886719 33.09106445 C-25.52155612 35.33422554 -27.71983643 37.56100791 -29.921875 39.78515625 C-30.6011908 40.49027847 -31.28050659 41.1954007 -31.98040771 41.92189026 C-32.62076965 42.56262985 -33.26113159 43.20336945 -33.92089844 43.86352539 C-34.76028961 44.71957115 -34.76028961 44.71957115 -35.61663818 45.59291077 C-37.3125 46.6875 -37.3125 46.6875 -39.39068604 46.47947693 C-42.05827944 45.3801653 -43.58160247 43.7049424 -45.5625 41.625 C-46.26890625 40.89152344 -46.9753125 40.15804687 -47.703125 39.40234375 C-48.23421875 38.83644531 -48.7653125 38.27054688 -49.3125 37.6875 C-52.52774305 39.09594718 -54.63433868 40.79094786 -57.0625 43.3125 C-57.98289063 44.25996094 -57.98289063 44.25996094 -58.921875 45.2265625 C-59.38078125 45.70867187 -59.8396875 46.19078125 -60.3125 46.6875 C-56.6624275 51.00995428 -52.94751417 55.27276513 -49.1875 59.5 C-48.35992187 60.43457031 -47.53234375 61.36914062 -46.6796875 62.33203125 C-43.86608578 65.16112394 -43.86608578 65.16112394 -40.3125 66.6875 C-35.55236696 66.31252685 -33.29124878 65.28692949 -29.95947266 61.90209961 C-29.15909576 61.10134506 -28.35871887 60.30059052 -27.53408813 59.47557068 C-26.69010468 58.60578079 -25.84612122 57.73599091 -24.9765625 56.83984375 C-24.09721039 55.9534169 -23.21785828 55.06699005 -22.31185913 54.15370178 C-19.98474437 51.80337097 -17.6688895 49.44265126 -15.35803223 47.07635498 C-12.99395351 44.66098041 -10.61552309 42.25982969 -8.23828125 39.85742188 C-3.58304505 35.14708415 1.05762362 30.42275943 5.6875 25.6875 C2.3064962 21.55128916 -0.97840534 17.87433431 -5.3125 14.6875 Z " fill="currentColor" transform="translate(203.3125,215.3125)"/>
<path opacity="0.7098039215686275" d="M0 0 C10.25043521 7.74112867 18.70526266 17.59173526 20.6875 30.6875 C21.96836177 44.82795902 21.06844427 57.71255554 12.4375 69.5625 C4.06048815 79.29647921 -6.30950268 87.6011099 -19.55273438 88.90869141 C-36.29194278 89.71018162 -48.24843021 87.01387295 -61.27734375 76.03125 C-69.90636197 68.02533375 -74.97975631 57.73921602 -75.62890625 46.03125 C-76.18819388 29.34451548 -72.52277041 17.35708981 -61 4.9375 C-44.70456176 -10.48496833 -18.58433045 -12.3339951 0 0 Z M-5.3125 14.6875 C-5.70451599 15.09061905 -6.09653198 15.4937381 -6.50042725 15.90907288 C-10.57341547 20.09245567 -14.66372392 24.25830954 -18.76464844 28.41430664 C-20.2939288 29.96877171 -21.81869698 31.52768906 -23.33886719 33.09106445 C-25.52155612 35.33422554 -27.71983643 37.56100791 -29.921875 39.78515625 C-30.6011908 40.49027847 -31.28050659 41.1954007 -31.98040771 41.92189026 C-32.62076965 42.56262985 -33.26113159 43.20336945 -33.92089844 43.86352539 C-34.76028961 44.71957115 -34.76028961 44.71957115 -35.61663818 45.59291077 C-37.3125 46.6875 -37.3125 46.6875 -39.39068604 46.47947693 C-42.05827944 45.3801653 -43.58160247 43.7049424 -45.5625 41.625 C-46.26890625 40.89152344 -46.9753125 40.15804687 -47.703125 39.40234375 C-48.23421875 38.83644531 -48.7653125 38.27054688 -49.3125 37.6875 C-52.52774305 39.09594718 -54.63433868 40.79094786 -57.0625 43.3125 C-57.98289063 44.25996094 -57.98289063 44.25996094 -58.921875 45.2265625 C-59.38078125 45.70867187 -59.8396875 46.19078125 -60.3125 46.6875 C-56.6624275 51.00995428 -52.94751417 55.27276513 -49.1875 59.5 C-48.35992187 60.43457031 -47.53234375 61.36914062 -46.6796875 62.33203125 C-43.86608578 65.16112394 -43.86608578 65.16112394 -40.3125 66.6875 C-35.55236696 66.31252685 -33.29124878 65.28692949 -29.95947266 61.90209961 C-29.15909576 61.10134506 -28.35871887 60.30059052 -27.53408813 59.47557068 C-26.69010468 58.60578079 -25.84612122 57.73599091 -24.9765625 56.83984375 C-24.09721039 55.9534169 -23.21785828 55.06699005 -22.31185913 54.15370178 C-19.98474437 51.80337097 -17.6688895 49.44265126 -15.35803223 47.07635498 C-12.99395351 44.66098041 -10.61552309 42.25982969 -8.23828125 39.85742188 C-3.58304505 35.14708415 1.05762362 30.42275943 5.6875 25.6875 C2.3064962 21.55128916 -0.97840534 17.87433431 -5.3125 14.6875 Z " fill="currentColor" transform="translate(203.3125,103.3125)"/>
<path opacity="0.7098039215686275" d="M0 0 C44.88 0 89.76 0 136 0 C136 5.28 136 10.56 136 16 C91.12 16 46.24 16 0 16 C0 10.72 0 5.44 0 0 Z " fill="currentColor" transform="translate(248,344)"/>
<path opacity="0.7098039215686275" d="M0 0 C44.88 0 89.76 0 136 0 C136 5.28 136 10.56 136 16 C91.12 16 46.24 16 0 16 C0 10.72 0 5.44 0 0 Z " fill="currentColor" transform="translate(248,232)"/>
<path opacity="0.7098039215686275" d="M0 0 C44.88 0 89.76 0 136 0 C136 5.28 136 10.56 136 16 C91.12 16 46.24 16 0 16 C0 10.72 0 5.44 0 0 Z " fill="currentColor" transform="translate(248,120)"/>
<path opacity="0.7098039215686275" d="M0 0 C23.76 0 47.52 0 72 0 C72 5.28 72 10.56 72 16 C48.24 16 24.48 16 0 16 C0 10.72 0 5.44 0 0 Z " fill="currentColor" transform="translate(248,376)"/>
<path opacity="0.7098039215686275" d="M0 0 C23.76 0 47.52 0 72 0 C72 5.28 72 10.56 72 16 C48.24 16 24.48 16 0 16 C0 10.72 0 5.44 0 0 Z " fill="currentColor" transform="translate(248,264)"/>
<path opacity="0.7098039215686275" d="M0 0 C23.76 0 47.52 0 72 0 C72 5.28 72 10.56 72 16 C48.24 16 24.48 16 0 16 C0 10.72 0 5.44 0 0 Z " fill="currentColor" transform="translate(248,152)"/>
</svg>






